<svg width="56" height="56" viewBox="0 0 56 56" fill="none" xmlns="http://www.w3.org/2000/svg">
<path d="M4.17458 30.9784C4.17458 30.1009 3.61527 29.1608 2 29.0982V26.9047C3.60952 26.8421 4.17458 25.9014 4.17458 25.0245C4.17458 23.4574 3.92625 22.4552 3.92625 20.637C3.92625 17.8792 4.92071 17.0017 7.15679 17.0017H13.1206V19.0073H8.27484C7.21887 19.0073 6.90789 19.3831 6.90789 20.7623L7.03206 24.8992C7.03206 26.8421 6.41124 27.5943 5.16846 27.9081V28.0333C6.41124 28.3465 7.03206 29.0988 7.03206 31.0422L6.90789 35.1792C6.90789 36.5583 7.2183 36.9968 8.27484 36.9968H8.77206V38.9397H7.16254C4.92646 38.9397 3.932 38.0622 3.932 35.3044C3.932 33.4868 4.18033 32.5467 4.18033 30.9796L4.17458 30.9784ZM9.45554 17.1885H13.1833V31.2916C13.1833 32.1065 13.5558 32.357 13.8673 32.357C13.9915 32.357 14.1157 32.357 14.3025 32.2944L14.7376 35.0521C14.3025 35.2401 13.6817 35.3653 12.874 35.3653C10.3276 35.3653 9.45726 33.673 9.45726 31.1025L9.45554 17.1885ZM19.9548 22.0776C23.4957 22.0776 25.2978 24.7107 25.2978 28.1575C25.2978 28.8476 25.2357 29.4114 25.1737 29.7245H17.5319C17.8423 31.6674 19.1414 32.4823 20.8245 32.4823C21.7557 32.4823 22.626 32.2318 23.5578 31.6674L24.8006 33.9235C23.4957 34.801 21.8184 35.3653 20.3273 35.3653C16.7243 35.3653 13.9904 32.9208 13.9904 28.7212C13.9283 24.6469 16.9105 22.0771 19.9542 22.0771L19.9548 22.0776ZM22.1294 27.4058C22.1294 25.964 21.5086 24.8986 20.0169 24.8986C18.8367 24.8986 17.8423 25.7135 17.594 27.4058H22.1294ZM27.4103 31.2916C28.5284 32.1691 29.5849 32.6082 30.6409 32.6082C31.7589 32.6082 32.2504 32.1691 32.2504 31.5427C32.2504 30.7279 31.0076 30.2889 29.7039 29.7878C28.2128 29.2234 26.4113 28.1638 26.4113 26.0893C26.4113 23.7694 28.3369 22.1397 31.195 22.1397C33.1207 22.1397 34.5497 22.9546 35.6057 23.7636L33.9283 26.0197C32.9971 25.3295 32.1889 24.9543 31.2571 24.9543C30.3253 24.9543 29.8281 25.3301 29.8281 25.9576C29.8281 26.7725 31.0082 27.0857 32.313 27.5816C33.9226 28.1459 35.7298 29.086 35.7298 31.4053C35.7298 33.7246 33.9283 35.4796 30.5736 35.4796C28.9641 35.4796 27.0327 34.7894 25.7899 33.7246L27.4103 31.2916ZM37.5371 31.2916C38.6551 32.1691 39.7117 32.6082 40.7676 32.6082C41.8857 32.6082 42.3772 32.1691 42.3772 31.5427C42.3772 30.7279 41.1344 30.2889 39.8307 29.7878C38.3396 29.2234 36.538 28.1638 36.538 26.0893C36.538 23.7694 38.4637 22.1397 41.3218 22.1397C43.2474 22.1397 44.6765 22.9546 45.7324 23.7636L44.0551 26.0197C43.1239 25.3295 42.3156 24.9543 41.3838 24.9543C40.4521 24.9543 39.9548 25.3301 39.9548 25.9576C39.9548 26.7725 41.1349 27.0857 42.3777 27.5816C43.9872 28.1459 45.7945 29.086 45.7945 31.4053C45.7945 33.7246 43.993 35.4796 40.6383 35.4796C39.0288 35.4796 37.0973 34.7894 35.8546 33.7246L37.5371 31.2916ZM46.7309 36.9324C47.7869 36.9324 48.0979 36.5566 48.0979 35.1148C48.0979 33.7356 47.9737 32.4817 47.9737 30.9779C47.9737 29.035 48.5945 28.2827 49.8373 27.969V27.8437C48.5945 27.5305 47.9737 26.7783 47.9737 24.8348C47.9737 23.3304 48.0979 22.0144 48.0979 20.6979C48.0979 19.3187 47.8495 18.9429 46.7309 18.9429H46.2337V17H47.8432C50.0793 17 51.0737 17.8775 51.0737 20.6353C51.0737 22.3902 50.8254 23.393 50.8254 25.0227C50.8254 25.9002 51.3847 26.8404 53 26.903V29.097C51.3905 29.1596 50.8254 30.1004 50.8254 30.9773C50.8254 32.6012 51.0737 33.5465 51.0737 35.3647C51.0737 38.1225 50.0793 39 47.8432 39H46.2337V36.9962L46.7309 36.9324Z" fill="#214674"/>
</svg>
