<svg width="56" height="56" viewBox="0 0 56 56" fill="none" xmlns="http://www.w3.org/2000/svg">
<path d="M44.1656 22.2161C44.0907 20.5677 44.3155 19.1066 43.5662 17.8703C41.768 14.7983 37.2723 13 28.281 13V13.2622H28.0937H28.281V13C19.2897 13 14.5693 14.7983 12.771 17.9077C12.0592 19.1815 12.1341 20.6051 12.0218 22.2535C11.9468 23.5648 11.3474 24.9509 11.6097 26.4495C11.9094 28.3976 12.0218 30.3457 12.3215 32.144C12.5462 33.605 14.5693 34.8414 14.7566 36.2275C15.2811 40.0488 19.2523 41.8096 28.2435 41.8096V42.1093H28.0562H28.281V41.8096C37.2723 41.8096 41.0936 40.0488 41.5806 36.2275C41.768 34.8039 43.6411 33.605 43.8659 32.144C44.1656 30.3457 44.278 28.3976 44.5777 26.4495C44.84 24.9509 44.2406 23.5273 44.1656 22.2161V22.2161Z" fill="#EFCCA3"/>
<path d="M28.1311 23.5645C29.742 23.6019 30.8659 24.6134 31.9149 25.55C33.1512 26.6365 35.2492 27.3858 36.1109 28.3223C36.9725 29.2589 38.0964 30.1955 38.5085 31.6566C38.9206 33.1177 39.033 34.9909 39.033 35.4779C39.033 35.9649 39.2953 35.8526 40.0445 35.4779C41.8053 34.6163 43.7535 32.2935 43.7535 32.2935C43.5287 33.7546 41.618 35.0658 41.4307 36.452C40.9811 40.2733 37.2722 42.109 28.0936 42.109H28.0562H28.2809" fill="#CCAC8D"/>
<path d="M34.0502 20.6429C34.3873 21.8043 35.5862 25.738 33.2634 24.4268C33.2634 24.4268 34.2375 24.9887 34.8369 27.1241C35.4738 29.2596 37.0098 29.5218 37.0098 29.5218C37.0098 29.5218 39.5199 30.0089 41.3931 28.3979C42.9665 27.0492 43.2288 24.6515 42.5544 22.8158C41.8801 21.0176 40.6812 20.4556 38.9205 20.081C37.1597 19.6689 33.6381 19.3317 34.0502 20.6429V20.6429Z" fill="#CCAC8D"/>
<path d="M38.5087 28.2108C40.3295 28.2108 41.8055 26.7348 41.8055 24.914C41.8055 23.0932 40.3295 21.6172 38.5087 21.6172C36.6879 21.6172 35.2119 23.0932 35.2119 24.914C35.2119 26.7348 36.6879 28.2108 38.5087 28.2108Z" fill="#4A4B65"/>
<path d="M37.6468 24.3151C38.1227 24.3151 38.5085 23.9293 38.5085 23.4535C38.5085 22.9776 38.1227 22.5918 37.6468 22.5918C37.1709 22.5918 36.7852 22.9776 36.7852 23.4535C36.7852 23.9293 37.1709 24.3151 37.6468 24.3151Z" fill="white"/>
<path d="M33.4885 24.7637C33.4885 24.7637 36.4481 26.7867 38.059 28.7723C39.67 30.7579 39.6325 31.1325 39.6325 31.1325L38.4711 31.657C38.4711 31.657 36.8227 28.5475 34.7997 27.3861C32.7392 26.2248 32.5144 25.2507 32.5144 25.2507L33.4885 24.7637Z" fill="#EFCCA3"/>
<path d="M28.2435 23.5645C26.6326 23.6019 25.4337 24.6134 24.3473 25.55C23.111 26.6365 20.9381 27.3858 20.0764 28.3223C19.2147 29.2589 18.0534 30.1955 17.6413 31.6566C17.2292 33.1177 17.0793 34.9909 17.0793 35.4779C17.0793 35.9649 17.1542 36.0024 16.0678 35.4779C14.307 34.6537 12.3589 32.2935 12.3589 32.2935C12.5837 33.7546 14.4943 35.0658 14.6816 36.452C15.2061 40.2733 18.915 42.109 28.0936 42.109H28.281" fill="#CCAC8D"/>
<path d="M36.9351 29.8959C35.1369 27.6855 32.2522 25.625 28.2436 25.625H28.2061C24.1975 25.625 21.3128 27.6855 19.5145 29.8959C17.6413 32.1812 17.7912 33.0803 17.7912 35.2532C17.7912 43.1206 20.5635 40.8727 22.3992 41.8468C24.2724 42.7834 26.2205 42.4837 28.2061 42.4837H28.2436C30.2666 42.4837 32.1773 42.7459 34.0504 41.8093C35.8862 40.8727 38.6585 43.1955 38.6585 35.3281C38.6959 33.1552 38.8083 32.1812 36.9351 29.8959V29.8959Z" fill="#56332B"/>
<path d="M28.0563 27.5723C28.0563 27.5723 27.794 31.2062 27.2695 31.9181L28.2436 31.6933L28.0563 27.5723Z" fill="#442823"/>
<path d="M28.3184 27.5723C28.3184 27.5723 28.5807 31.2062 29.1052 31.9181L28.1311 31.6933L28.3184 27.5723Z" fill="#442823"/>
<path d="M25.1715 26.7111C24.7968 25.8494 26.1455 24.4632 28.281 24.4258C30.4164 24.4258 31.7651 25.8119 31.3905 26.7111C31.0158 27.6102 29.6671 27.8724 28.281 27.9099C26.9323 27.8724 25.5461 27.6102 25.1715 26.7111V26.7111Z" fill="#56332B"/>
<path d="M28.2809 27.5737C28.2809 27.4238 29.5547 27.3863 30.229 26.9368C30.229 26.9368 28.8428 27.3863 28.5431 27.199C28.2434 27.0492 28.1685 26.5996 28.1685 26.5996C28.1685 26.5996 28.0561 27.0492 27.8313 27.199C27.5691 27.3489 25.9956 26.9368 25.9956 26.9368L28.0936 27.5737C28.0936 27.6861 28.0561 28.0607 28.0561 28.3229L28.206 31.7696C28.4307 32.1068 28.3558 29.2595 28.3558 28.3229L28.2809 27.5737Z" fill="#4A4B65"/>
<path d="M28.3558 32.5943C28.9927 32.5943 30.1166 33.0438 31.1281 33.7556C30.1541 32.6692 28.9927 31.9199 28.3558 31.9199C27.6815 31.9199 26.2579 32.7441 25.2463 33.943C26.2953 33.1188 27.644 32.5943 28.3558 32.5943Z" fill="#7F4A41" stroke="#4D4D4D" stroke-width="1.74509" stroke-miterlimit="10"/>
<path d="M28.0935 39.2254C26.6699 39.2254 25.2838 38.7758 24.01 38.4387C23.7477 38.3637 23.4855 38.5511 23.2233 38.4761C20.863 37.7269 18.9524 36.4531 17.791 34.8421V35.2168C17.791 43.0842 20.5633 40.8738 22.3991 41.8104C24.2722 42.747 26.2204 42.4473 28.2059 42.4473H28.2434C30.2664 42.4473 32.1771 42.7095 34.0503 41.7729C35.886 40.8363 38.6583 43.1216 38.6583 35.2542C38.6583 34.9545 38.6583 34.6548 38.6958 34.3926C37.6093 36.1534 35.6237 37.5395 33.1511 38.3637C32.9264 38.4387 32.4019 38.2513 32.1771 38.2888C30.8284 38.7384 29.6296 39.2254 28.0935 39.2254V39.2254Z" fill="#442823"/>
<path d="M24.5347 34.9922C24.5347 34.9922 23.5981 37.802 24.235 39.0383L23.3733 38.6636C23.3733 38.6636 24.0102 35.8164 24.5347 34.9922V34.9922ZM31.9525 34.9922C31.9525 34.9922 32.8891 37.802 32.2522 39.0383L33.1139 38.6636C33.1139 38.6636 32.4395 35.8164 31.9525 34.9922Z" fill="#442823"/>
<path d="M22.137 20.6429C21.7998 21.8043 20.601 25.738 22.9238 24.4268C22.9238 24.4268 21.9497 24.9887 21.3503 27.1241C20.7509 29.2596 19.1774 29.5218 19.1774 29.5218C19.1774 29.5218 16.6673 30.0089 14.7941 28.3979C13.2206 27.0492 12.9584 24.6515 13.6327 22.8158C14.3071 20.9801 15.5059 20.4556 17.2667 20.081C19.0275 19.6689 22.5116 19.3317 22.137 20.6429V20.6429Z" fill="#CCAC8D"/>
<path d="M28.2435 31.9189C29.2551 31.9189 32.402 34.0917 32.4395 36.7517V36.6018C32.4395 33.8295 29.8919 31.6191 28.2435 31.6191C26.5951 31.6191 24.0476 33.867 24.0476 36.6018V36.7517C24.0851 34.0917 27.232 31.9189 28.2435 31.9189Z" fill="#4A4B65"/>
<path d="M29.0613 26.7322C29.2216 26.6909 29.2887 26.4137 29.2112 26.1132C29.1337 25.8127 28.941 25.6026 28.7807 25.6439C28.6204 25.6852 28.5533 25.9624 28.6308 26.2629C28.7083 26.5634 28.901 26.7735 29.0613 26.7322Z" fill="#331712"/>
<path d="M27.1356 26.7267C27.2937 26.7758 27.4964 26.5752 27.5884 26.2788C27.6803 25.9824 27.6267 25.7023 27.4686 25.6533C27.3105 25.6042 27.1078 25.8048 27.0159 26.1012C26.9239 26.3976 26.9775 26.6777 27.1356 26.7267Z" fill="#331712"/>
<path d="M17.8659 28.2108C19.6867 28.2108 21.1627 26.7348 21.1627 24.914C21.1627 23.0932 19.6867 21.6172 17.8659 21.6172C16.0451 21.6172 14.5691 23.0932 14.5691 24.914C14.5691 26.7348 16.0451 28.2108 17.8659 28.2108Z" fill="#4A4B65"/>
<path d="M18.7279 24.3151C19.2038 24.3151 19.5895 23.9293 19.5895 23.4535C19.5895 22.9776 19.2038 22.5918 18.7279 22.5918C18.252 22.5918 17.8662 22.9776 17.8662 23.4535C17.8662 23.9293 18.252 24.3151 18.7279 24.3151Z" fill="white"/>
<path d="M29.2176 24.9516C29.2176 24.9142 28.3559 25.3263 28.1311 25.3637C27.9063 25.3263 27.0447 24.9142 27.0447 24.9516H29.2176Z" fill="#7F4A41" stroke="#4D4D4D" stroke-width="1.74509" stroke-miterlimit="10"/>
<path d="M22.6615 24.7637C22.6615 24.7637 19.7018 26.7867 18.0909 28.7723C16.4799 30.7579 16.5174 31.1325 16.5174 31.1325L17.6788 31.657C17.6788 31.657 19.3272 28.5475 21.3502 27.3861C23.3733 26.2248 23.6355 25.2507 23.6355 25.2507L22.6615 24.7637Z" fill="#EFCCA3"/>
<path d="M16.18 18.7702C16.18 18.7702 15.1685 21.5425 12.9207 22.7039C12.9207 22.7039 16.4422 22.2918 16.18 18.7702ZM39.8196 18.7702C39.8196 18.7702 40.8311 21.5425 43.079 22.7039C43.079 22.7039 39.5574 22.2918 39.8196 18.7702ZM33.4133 23.9402C33.4133 23.9402 31.203 21.6175 28.2433 21.5425C28.2059 21.5425 28.3182 21.5425 28.2808 21.5425C28.2433 21.5425 28.3182 21.5425 28.3182 21.5425C25.3211 21.6175 23.1483 23.9402 23.1483 23.9402C25.7332 22.1419 27.9436 22.1794 28.3182 22.1794C28.2808 22.1794 30.8283 22.1419 33.4133 23.9402V23.9402ZM30.8283 19.0699C30.8283 19.0699 29.7044 17.4964 28.2059 17.459H28.2808C27.1569 17.4964 25.6958 19.0699 25.6958 19.0699C26.9696 17.8336 28.2808 17.8711 28.2808 17.8711C28.2808 17.8711 29.5171 17.8336 30.8283 19.0699ZM17.8659 30.5713C17.8659 30.5713 16.1051 31.433 14.8313 30.9085H14.7938C13.6699 30.2716 13.108 28.3609 13.108 28.3609C13.108 28.3609 14.2319 31.7327 17.8659 30.5713V30.5713ZM38.396 30.5713C38.396 30.5713 40.1568 31.433 41.4306 30.9085C42.9291 30.2716 43.1539 28.3609 43.1539 28.3609C43.1539 28.3609 42.03 31.7327 38.396 30.5713V30.5713ZM19.8889 18.5829C20.863 18.3956 22.4739 18.3581 23.7477 18.7702C25.3586 19.3322 24.0474 21.3927 24.3846 21.5051C24.7217 21.6175 25.1713 20.0814 28.1684 20.2313C31.203 20.3812 31.5401 21.7298 31.9522 21.5051C32.3643 21.2803 31.5401 17.7587 36.0732 18.5829C36.0732 18.5829 31.3153 17.3091 31.5401 20.7558C31.5401 20.7558 28.8053 18.6578 24.984 20.531C25.0214 20.531 25.9955 17.3091 19.8889 18.5829V18.5829ZM36.4853 18.5829C36.5603 18.5829 36.5977 18.6204 36.6352 18.6204C36.6727 18.6204 36.5977 18.5829 36.4853 18.5829Z" fill="#CCAC8D"/>
<path d="M18.5778 13.9746C18.5778 13.9746 14.5317 19.0697 13.9323 21.0178C13.3328 23.0034 12.8833 31.133 12.3588 32.2944L10.4856 24.2771L13.9323 15.9227L18.5778 13.9746ZM37.6093 13.9746C37.6093 13.9746 41.6554 19.0697 42.2548 21.0178C42.8543 23.0034 43.3038 31.133 43.8283 32.2944L45.7015 24.2771L42.2548 15.9227L37.6093 13.9746Z" fill="#CCAC8D"/>
<path d="M37.4222 13.973C37.4222 13.973 41.768 17.607 43.0418 21.8029C44.3155 25.9988 43.7911 31.0939 44.7651 31.7308C46.1513 32.6299 47.7247 27.2726 48.2492 26.7107C49.0734 25.8115 51.8083 23.5262 51.9956 23.1141C52.1829 22.702 46.451 16.4456 43.9409 15.2093C40.9063 13.7857 37.16 13.6733 37.4222 13.973V13.973Z" fill="#56332B"/>
<path d="M41.1309 16.2227C41.1309 16.2227 46.2634 22.7788 46.1885 30.9459L48.249 26.75C48.2115 26.75 46.4132 21.3926 41.1309 16.2227V16.2227Z" fill="#442823"/>
<path d="M18.5779 13.973C18.5779 13.973 14.2321 17.607 12.9583 21.8029C11.6845 25.9988 12.209 31.0939 11.235 31.7308C9.84882 32.6299 8.27535 27.2726 7.75086 26.7107C6.92665 25.8115 4.1918 23.5262 4.00448 23.1141C3.81716 22.702 9.54911 16.4456 12.0592 15.2093C15.0937 13.7857 18.8401 13.6733 18.5779 13.973V13.973Z" fill="#56332B"/>
<path d="M14.869 16.2227C14.869 16.2227 9.73644 22.7788 9.81137 30.9459L7.78833 26.75C7.78833 26.75 9.58659 21.3926 14.869 16.2227V16.2227Z" fill="#442823"/>
<path d="M12.0967 31.0949C12.0967 31.0949 12.4713 33.1179 13.0707 33.7548C13.6702 34.3917 13.2581 33.2678 13.2581 33.2678C13.2581 33.2678 12.6212 32.9306 12.7336 30.3456C12.846 27.7606 12.0967 31.0949 12.0967 31.0949V31.0949ZM44.0532 31.0949C44.0532 31.0949 43.6786 33.1179 43.0792 33.7548C42.4798 34.3917 42.8919 33.2678 42.8919 33.2678C42.8919 33.2678 43.5287 32.9306 43.4164 30.3456C43.304 27.7606 44.0532 31.0949 44.0532 31.0949V31.0949Z" fill="#CCAC8D"/>
<path d="M24.3473 29.8592C24.5128 29.8592 24.647 29.725 24.647 29.5595C24.647 29.394 24.5128 29.2598 24.3473 29.2598C24.1818 29.2598 24.0476 29.394 24.0476 29.5595C24.0476 29.725 24.1818 29.8592 24.3473 29.8592Z" fill="#442823"/>
<path d="M22.6239 31.658C22.7895 31.658 22.9236 31.5238 22.9236 31.3583C22.9236 31.1928 22.7895 31.0586 22.6239 31.0586C22.4584 31.0586 22.3242 31.1928 22.3242 31.3583C22.3242 31.5238 22.4584 31.658 22.6239 31.658Z" fill="#442823"/>
<path d="M22.0622 29.8592C22.2277 29.8592 22.3619 29.725 22.3619 29.5595C22.3619 29.394 22.2277 29.2598 22.0622 29.2598C21.8966 29.2598 21.7625 29.394 21.7625 29.5595C21.7625 29.725 21.8966 29.8592 22.0622 29.8592Z" fill="#442823"/>
<path d="M31.6527 29.8592C31.8183 29.8592 31.9524 29.725 31.9524 29.5595C31.9524 29.394 31.8183 29.2598 31.6527 29.2598C31.4872 29.2598 31.353 29.394 31.353 29.5595C31.353 29.725 31.4872 29.8592 31.6527 29.8592Z" fill="#442823"/>
<path d="M33.3761 31.658C33.5416 31.658 33.6758 31.5238 33.6758 31.3583C33.6758 31.1928 33.5416 31.0586 33.3761 31.0586C33.2106 31.0586 33.0764 31.1928 33.0764 31.3583C33.0764 31.5238 33.2106 31.658 33.3761 31.658Z" fill="#442823"/>
<path d="M33.9381 29.8592C34.1037 29.8592 34.2378 29.725 34.2378 29.5595C34.2378 29.394 34.1037 29.2598 33.9381 29.2598C33.7726 29.2598 33.6384 29.394 33.6384 29.5595C33.6384 29.725 33.7726 29.8592 33.9381 29.8592Z" fill="#442823"/>
</svg>
