<svg width="56" height="56" viewBox="0 0 56 56" fill="none" xmlns="http://www.w3.org/2000/svg">
<path d="M43.8773 29.9495C42.3389 29.9582 41.0067 30.3279 39.8895 30.8783C39.4769 30.0614 39.0644 29.3476 38.9957 28.8145C38.9184 28.1953 38.8238 27.8169 38.9184 27.0774C39.0128 26.3378 39.4425 25.2887 39.4425 25.2027C39.4339 25.1253 39.3479 24.7469 38.4628 24.7383C37.5776 24.7297 36.8126 24.9103 36.7267 25.1425C36.6407 25.3747 36.4689 25.9078 36.3571 26.4582C36.2024 27.2665 34.5867 30.1301 33.667 31.635C33.3662 31.0502 33.1084 30.5343 33.0567 30.1214C32.9795 29.5024 32.8849 29.1239 32.9795 28.3844C33.074 27.6448 33.5037 26.5958 33.5037 26.5098C33.4952 26.4324 33.4092 26.054 32.5241 26.0454C31.6387 26.0368 30.8739 26.2174 30.788 26.4496C30.702 26.6818 30.6075 27.2321 30.4184 27.7653C30.2378 28.2984 28.0892 33.0797 27.5306 34.3266C27.247 34.963 26.9978 35.4703 26.8172 35.8143C26.6367 36.1583 26.8086 35.8401 26.7914 35.8745C26.6367 36.1669 26.5508 36.3303 26.5508 36.3303V36.3389C26.4305 36.5539 26.3016 36.7602 26.2413 36.7602C26.1983 36.7602 26.1124 36.1841 26.2585 35.393C26.5765 33.7333 27.35 31.1449 27.3415 31.0503C27.3415 31.0073 27.4875 30.5515 26.8429 30.3194C26.2155 30.0872 25.9922 30.4742 25.9405 30.4742C25.8889 30.4742 25.846 30.6118 25.846 30.6118C25.846 30.6118 26.5421 27.6967 24.5138 27.6967C23.2418 27.6967 21.4885 29.0812 20.6205 30.3453C20.0705 30.6462 18.9016 31.2825 17.664 31.962C17.1913 32.2199 16.7014 32.4951 16.2373 32.7445L16.1429 32.6411C13.6848 30.0183 9.13834 28.1609 9.32742 24.6351C9.39617 23.3538 9.84309 19.9743 18.0595 15.881C24.789 12.5272 30.1778 13.4473 31.1145 15.494C32.4466 18.4178 28.2353 23.8526 21.2395 24.6351C18.5752 24.9361 17.1742 23.9042 16.8219 23.5172C16.4523 23.113 16.4008 23.0958 16.2633 23.1732C16.0398 23.2936 16.1773 23.6548 16.2633 23.8698C16.4695 24.4115 17.329 25.3747 18.79 25.8562C20.0705 26.2776 23.199 26.5098 26.9806 25.0479C31.2177 23.4054 34.5266 18.8477 33.5554 15.0382C32.567 11.1599 26.1383 9.88719 20.062 12.0456C16.4437 13.3355 12.5246 15.3478 9.70558 17.9878C6.35372 21.118 5.82086 23.8526 6.04432 24.9877C6.8265 29.038 12.4042 31.678 14.6388 33.6301C14.5271 33.6902 14.424 33.7504 14.3294 33.802C13.2121 34.3523 8.95785 36.5796 7.89214 38.9358C6.68891 41.6016 8.08122 43.5193 9.00942 43.7773C11.88 44.5771 14.8193 43.141 16.4093 40.7761C17.9906 38.4113 17.8016 35.3413 17.0711 33.9396L17.0452 33.888L17.9218 33.3721C18.4892 33.0367 19.0478 32.7271 19.5376 32.4605C19.2627 33.2086 19.0649 34.0943 18.9619 35.3842C18.8415 36.8978 19.4603 38.8584 20.2768 39.6323C20.6378 39.9676 21.0675 39.9763 21.3339 39.9763C22.2793 39.9763 22.7091 39.1937 23.1818 38.2564C23.7662 37.1127 24.2818 35.7884 24.2818 35.7884C24.2818 35.7884 23.6373 39.3744 25.3991 39.3744C26.0437 39.3744 26.6883 38.5402 26.9805 38.1102V38.1188C26.9805 38.1188 26.9977 38.093 27.0321 38.0329C27.0682 37.9795 27.1025 37.925 27.1352 37.8696V37.8524C27.3931 37.4052 27.9689 36.3819 28.8283 34.6878C29.9369 32.5035 31.0027 29.7689 31.0027 29.7689C31.0027 29.7689 31.1059 30.4397 31.4239 31.5404C31.6129 32.194 32.0254 32.9077 32.3434 33.6043C32.0856 33.9654 31.9309 34.1719 31.9309 34.1719L31.9395 34.1805C31.7333 34.4557 31.5011 34.7482 31.2606 35.0404C30.3839 36.0896 29.3354 37.285 29.1979 37.6289C29.0346 38.033 29.069 38.334 29.387 38.5749C29.619 38.7469 30.0316 38.7812 30.4699 38.7469C31.2606 38.6952 31.8106 38.4975 32.0857 38.377C32.5154 38.2222 33.0053 37.99 33.478 37.6461C34.3374 37.0098 34.8617 36.1069 34.8101 34.9029C34.7843 34.2408 34.5695 33.5872 34.303 32.9681C34.3804 32.8563 34.4578 32.7444 34.5351 32.6241C35.893 30.6376 36.9415 28.4534 36.9415 28.4534C36.9415 28.4534 37.0447 29.1242 37.3627 30.2249C37.5259 30.7838 37.8526 31.3945 38.1448 31.9964C36.8728 33.037 36.0735 34.2409 35.7985 35.032C35.2914 36.4939 35.6867 37.1561 36.4345 37.3109C36.7696 37.3796 37.2509 37.2249 37.6118 37.0701C38.0587 36.9239 38.6002 36.6744 39.0988 36.3047C39.9582 35.6684 40.7833 34.7826 40.7403 33.5873C40.7145 33.037 40.5684 32.4952 40.3708 31.9792C41.4537 31.5321 42.8545 31.2741 44.6336 31.4891C48.4582 31.9362 49.2145 34.3269 49.0685 35.3244C48.9224 36.322 48.1231 36.8723 47.8566 37.0443C47.5901 37.2077 47.5042 37.2679 47.53 37.3882C47.5643 37.5689 47.6847 37.5602 47.9167 37.5259C48.2347 37.4742 49.9278 36.709 49.9966 34.8688C50.0997 32.5036 47.8566 29.9238 43.8773 29.9495V29.9495ZM14.381 39.899C13.1176 41.2835 11.3385 41.8081 10.5822 41.3609C9.76574 40.8879 10.0836 38.8499 11.6393 37.3794C12.5847 36.4851 13.8137 35.6595 14.6216 35.1521C14.8021 35.0404 15.0771 34.8771 15.4037 34.6792C15.4553 34.6449 15.4897 34.6276 15.4897 34.6276C15.5498 34.5932 15.6186 34.5502 15.6873 34.5072C16.2632 36.6054 15.7131 38.4457 14.381 39.899V39.899ZM23.6201 33.6129C23.1818 34.6878 22.2535 37.4482 21.6949 37.2934C21.2135 37.1644 20.9214 35.0748 21.6003 33.0109C21.9441 31.9703 22.6746 30.7321 23.1043 30.2504C23.8006 29.4765 24.5568 29.2185 24.746 29.5367C24.9694 29.9495 23.8951 32.9421 23.6201 33.6129ZM31.2434 37.259C31.0543 37.3537 30.8824 37.4224 30.8051 37.3709C30.7449 37.3365 30.8823 37.2075 30.8823 37.2075C30.8823 37.2075 31.8363 36.1842 32.2145 35.7112C32.4293 35.4361 32.6872 35.1179 32.9622 34.7567V34.8599C32.9623 36.0981 31.7763 36.9236 31.2434 37.259ZM37.1219 35.9175C36.9844 35.8143 37.0017 35.4961 37.4657 34.4986C37.6463 34.103 38.0587 33.4409 38.7721 32.8131C38.858 33.0711 38.9097 33.3204 38.901 33.5527C38.8925 35.1006 37.7924 35.6767 37.1219 35.9175Z" fill="#CF649A"/>
</svg>
