<svg width="56" height="56" viewBox="0 0 56 56" fill="none" xmlns="http://www.w3.org/2000/svg">
<path fill-rule="evenodd" clip-rule="evenodd" d="M19.8157 17.7061L17.5322 22.2164C19.3647 23.4383 20.9816 24.9273 22.3507 26.4163L24.8257 21.507C25.0286 21.09 25.4464 20.8263 25.9037 20.8263H26.8992C27.3569 20.8263 27.7747 21.09 27.9776 21.507L30.3953 26.2983C31.8726 24.7591 33.5132 23.4004 35.2809 22.2444L32.9831 17.7061C31.4066 14.5928 29.9447 13.8385 27.7985 13.5361C27.4222 13.4832 26.834 13.4449 26.3992 13.4449C25.9648 13.4449 25.3766 13.4832 25.0003 13.5361C22.2183 13.9286 21.0317 15.3041 19.8157 17.7061ZM26.3619 31.6507C27.0557 30.4595 27.826 29.3288 28.6699 28.2683L26.4015 23.6016L24.0595 28.4197C25.0244 29.6385 25.7997 30.7699 26.3619 31.6507ZM15.3516 23.72L14.8581 23.4299C14.5794 23.2662 14.4765 22.909 14.6235 22.6181L17.677 16.5873H17.6774C19.1456 13.6871 20.8967 11.6462 24.6704 11.1146C25.1568 11.046 25.8513 11 26.3992 11C26.9475 11 27.642 11.046 28.1284 11.1146C31.9021 11.6462 33.6531 13.6871 35.1214 16.5873L37.3608 21.0095C41.0304 19.0399 45.1404 17.8912 49.4185 17.7463C50.1572 17.7214 50.7699 18.386 50.6451 19.1737C50.5516 19.7612 50.0245 20.1709 49.4393 20.192C40.2943 20.5239 31.9892 25.8591 27.7532 34.1285C27.7442 34.1465 27.7329 34.1623 27.7227 34.1787C27.7238 34.1795 27.7242 34.1799 27.725 34.1807C27.7148 34.1987 27.702 34.2144 27.691 34.2316C27.6771 34.2535 27.6635 34.2753 27.6484 34.2956C27.3622 34.7046 26.8981 34.9541 26.4018 34.9541H26.3969C25.9407 34.9541 25.5093 34.7414 25.2265 34.3777L25.0734 34.1803C24.1078 32.5004 20.5528 26.7797 15.3516 23.72ZM49.4011 26.5363C50.1473 26.4995 50.7638 27.1583 50.6485 27.9498C50.5625 28.5385 50.0403 28.9501 49.4554 28.9815C47.0434 29.1103 44.6633 29.8086 42.4847 30.9493C42.5288 31.032 42.5755 31.121 42.6291 31.2214C43.3093 32.5057 44.4891 34.7509 46.1358 37.8941C47.0083 39.5606 47.0204 41.2719 46.1682 42.7138C45.3613 44.0805 43.8413 44.9985 42.3866 44.9985C42.3866 44.9985 40.0945 45 40.0081 45C38.231 45 35.7088 44.836 34.1882 41.0554L33.7964 40.0834C33.2364 40.9281 32.6316 41.7625 32.0706 42.5195C30.272 44.9452 28.2034 45 26.5176 45H26.2796C24.5953 45 22.5267 44.9456 20.7285 42.5195C20.1373 41.7219 19.5894 40.8998 19.0611 40.0876L18.5985 41.086C17.0763 44.8367 14.5632 45 12.7906 45C12.7042 45 10.4121 44.9985 10.4121 44.9985C8.95736 44.9985 7.43742 44.0805 6.63051 42.7138C5.77872 41.2719 5.79041 39.5606 6.66294 37.8941L8.87479 33.6724L11.1093 29.407C11.2669 29.1061 11.636 28.99 11.9294 29.1555C14.1744 30.423 17.5472 33.1404 20.6105 38.0325C21.2753 39.0949 21.931 40.0796 22.6493 41.0481C23.768 42.5574 24.8709 42.5566 26.3984 42.5551C27.9263 42.5559 29.0311 42.557 30.1498 41.0481C31.0412 39.8454 32.0468 38.4453 32.7425 37.1843C36.127 31.0485 42.666 26.8686 49.4011 26.5363ZM44.0125 39.0432C41.9213 35.051 40.9093 33.1305 40.4195 32.2068C38.4207 33.6099 36.6771 35.4113 35.3582 37.5097L36.414 40.1294C37.3947 42.5674 38.593 42.5624 40.2506 42.5543L42.3866 42.5536C42.9058 42.5536 43.6849 42.1684 44.1064 41.4551C44.5178 40.7591 44.4861 39.9473 44.0125 39.0432ZM16.3847 40.1302C16.3908 40.1144 17.1845 38.4008 17.5073 37.7052C16.1359 35.6635 14.648 33.7491 12.4071 32.1313L10.998 34.8211L8.78618 39.0436C8.31259 39.9473 8.28091 40.7591 8.69229 41.4551C9.11384 42.1684 9.89286 42.5536 10.4121 42.5536L12.5481 42.5543C14.2076 42.5624 15.404 42.5674 16.3847 40.1302Z" fill="#5D2BFF"/>
<g opacity="0.2">
<path opacity="0.2" d="M18.1717 41.9905C14.6845 37.7 11.556 34.975 8.78616 33.8153C8.78168 33.8134 9.27006 32.8809 10.2513 31.0176C11.1763 31.3991 11.8775 31.766 12.3548 32.1183C14.8848 33.9861 16.785 36.3868 19.0309 40.1257C19.0478 40.1538 18.7614 40.7755 18.1717 41.9905Z" fill="#5D2BFF"/>
<path opacity="0.2" d="M34.5941 42.0199C38.0994 37.7157 41.237 34.9838 44.0068 33.8241C44.0113 33.8222 43.5045 32.8639 42.4864 30.9492C41.5938 31.4418 40.9068 31.8612 40.4255 32.2072C38.0781 33.8951 37.0327 35.0549 35.358 37.5074C34.7568 38.3879 34.31 39.1346 33.7975 40.0873C33.7819 40.1164 34.0474 40.7606 34.5941 42.0199Z" fill="#5D2BFF"/>
</g>
</svg>
