<svg width="56" height="56" viewBox="0 0 56 56" fill="none" xmlns="http://www.w3.org/2000/svg">
<path d="M33.95 50.5055L34.4163 42.6767L35.7037 40.4622C35.7037 40.4622 32.7734 41.6701 27.8676 41.6701C22.9617 41.6701 20.0758 40.4846 20.0758 40.4846L21.5187 42.9003L22.0291 50.5055C22.0291 51.3208 24.6976 51.9817 27.9896 51.9817C31.2814 51.9817 33.95 51.3208 33.95 50.5055V50.5055ZM32.4791 13.9464L33.4578 10.0485L38.8776 4.30212L37.4492 3.07617L31.7112 9.19745L30.5749 13.8544C29.7196 13.8256 28.864 13.8112 28.0082 13.8114C21.9651 13.8114 17.0662 14.5054 17.0662 15.3612C17.0662 16.2172 21.9651 16.9111 28.0082 16.9111C34.0513 16.9111 38.9501 16.2172 38.9501 15.3612C38.9501 14.731 36.2932 14.1885 32.4791 13.9464" fill="#D34A47"/>
<path d="M31.9095 16.1302C31.9095 16.1302 31.6975 16.1781 31.074 16.1808C30.4504 16.1834 30.0076 16.1767 29.8312 16.0148C29.7837 15.9714 29.7578 15.8851 29.7581 15.8266C29.7586 15.7154 29.8369 15.6499 29.9368 15.6088L30.0312 15.7581C29.9901 15.7724 29.9667 15.7892 29.9666 15.8072C29.9662 15.8917 30.6043 15.9496 31.0923 15.9433C31.5804 15.9373 32.1701 15.8968 32.1706 15.8135C32.1706 15.7883 32.126 15.7646 32.0484 15.7459L32.1424 15.5977C32.2689 15.6372 32.3793 15.7137 32.379 15.8459C32.3778 16.0709 32.0938 16.105 31.9095 16.1302" fill="white"/>
<path d="M38.8669 4.31453C39.0032 4.15593 38.7964 3.75026 38.405 3.40856C38.0135 3.06703 37.5856 2.91864 37.4491 3.07724C37.3127 3.23584 37.5196 3.64152 37.9112 3.98305C38.3025 4.32466 38.7306 4.47322 38.8669 4.31453ZM33.6892 31.384C33.5608 30.1388 36.3924 28.3353 35.6657 28.2775C34.1013 28.3677 33.3227 30.1248 32.5356 31.9652C32.2472 32.6397 31.2603 35.5158 30.613 35.1617C29.9658 34.8078 31.4519 32.4427 31.8685 31.0382C31.3879 31.3933 29.6252 32.7731 29.171 31.4809C28.4407 32.1058 26.8802 32.4444 27.0562 30.8028C26.6677 31.4962 25.7957 32.4643 24.7491 32.062C23.3745 31.5339 25.5455 27.1221 26.0853 27.3446C26.6253 27.5671 25.9764 28.5721 25.8065 28.9624C25.4327 29.8213 25.001 30.901 25.2894 31.122C25.7835 31.5007 27.1281 29.6895 27.158 29.6497C27.4095 29.3149 28.126 27.1247 28.7034 27.3762C29.2809 27.6277 27.2631 30.5195 28.0175 31.0934C28.1697 31.2092 28.7923 31.022 29.171 30.6091C29.416 30.342 29.3317 29.7505 30.1486 27.7877C30.9654 25.825 31.6934 23.3808 32.2536 23.567C32.8137 23.7531 32.352 25.0076 32.1511 25.4753C31.208 27.6702 29.5773 31.2965 30.3464 31.022C31.1154 30.7475 31.5159 30.7314 32.2689 29.8435C33.022 28.9555 32.9873 27.4928 33.4892 27.5239C33.9913 27.5551 33.907 28.0241 33.7853 28.3812C34.2793 27.8115 36.1271 26.6118 36.5732 27.8C37.1016 29.2067 33.9296 31.2387 34.7204 31.135C35.4915 31.034 36.7408 30.2368 37.2742 29.5119L38.7423 16.2121C38.7423 16.2121 37.265 17.4441 27.8661 17.4441C18.4671 17.4441 17.1426 16.2378 17.1426 16.2378L18.3925 28.3773C19.056 26.4773 20.6314 22.6342 23.1148 22.7632C24.2445 22.8218 25.7525 25.0136 24.4607 25.0879C23.9139 25.1192 23.8584 23.9939 23.211 23.8286C22.7437 23.7093 22.0933 24.092 21.6729 24.5067C20.8345 25.3335 19.0313 28.5954 19.2696 30.2217C19.5731 32.295 22.109 29.5012 22.538 28.6718C22.8402 28.0875 23.0444 26.3564 23.7052 26.538C24.3662 26.7197 23.6476 28.5062 23.1685 30.0857C22.6303 31.8593 22.3474 33.7302 21.6729 33.515C20.9982 33.2999 22.0971 31.0103 22.0573 30.6091C21.4233 31.1986 20.2551 32.6909 18.7607 31.9523L19.5369 39.4908C19.5369 39.4908 21.6001 41.1333 27.8151 41.1333C34.0302 41.1333 36.1697 39.5164 36.1697 39.5164L37.1336 30.785C36.345 31.5588 33.8491 32.9329 33.6892 31.384" fill="#D34A47"/>
</svg>
