<svg width="56" height="56" viewBox="0 0 56 56" fill="none" xmlns="http://www.w3.org/2000/svg">
<g clip-path="url(#clip0)">
<path d="M27.5 5L47.3863 16.25V38.75L27.5 50L7.61377 38.75V16.25L27.5 5Z" fill="white"/>
<path d="M43.8351 37.9745L28.1563 46.8432V39.9357L37.9251 34.562L43.8351 37.9745ZM44.9076 37.0032V18.4557L39.1701 21.767V33.6882L44.9076 37.0032ZM11.1013 37.9745L26.7801 46.8432V39.9357L17.0113 34.562L11.1013 37.9745V37.9745ZM10.0288 37.0032V18.4557L15.7663 21.767V33.6882L10.0288 37.0032V37.0032ZM10.7001 17.2557L26.7801 8.1582V14.837L16.4788 20.5032L16.4001 20.5482L10.7001 17.2557V17.2557ZM44.2363 17.2557L28.1563 8.1582V14.837L38.4576 20.5032L38.5363 20.5482L44.2363 17.2557V17.2557Z" fill="#8ED6FB"/>
<path d="M26.7798 38.3643L17.1423 33.0655V22.5655L26.7798 28.1305V38.3643ZM28.1561 38.3643L37.7935 33.0655V22.5655L28.1561 28.1305V38.3643ZM17.7948 21.3505L27.4698 16.0293L37.1448 21.3505L27.4698 26.938L17.7948 21.3505" fill="#1C78C0"/>
</g>
<defs>
<clipPath id="clip0">
<rect width="45" height="45" fill="white" transform="translate(5 5)"/>
</clipPath>
</defs>
</svg>
