<svg width="56" height="56" viewBox="0 0 56 56" fill="none" xmlns="http://www.w3.org/2000/svg">
<g clip-path="url(#clip0)">
<path d="M27.9999 5C40.6976 5 50.9997 15.3011 50.9997 27.9999C50.9997 40.6986 40.6976 50.9997 27.9999 50.9997C15.3022 50.9997 5 40.6986 5 27.9999C5 15.3011 15.3011 5 27.9999 5Z" fill="#2C8EBB"/>
<path d="M43.6467 34.9713C43.4867 33.7099 42.4212 32.8403 41.0522 32.8588C39.0094 32.8854 37.2958 33.9417 36.1606 34.6431C35.789 34.877 35.4034 35.0876 35.0059 35.2738C35.0776 34.2432 35.0161 32.8947 34.4829 31.4108C33.8347 29.6346 32.9651 28.5424 32.3426 27.9118C33.0605 26.8637 34.048 25.3378 34.5095 22.974C34.9197 20.9579 34.7844 17.8229 33.8706 16.0652C33.684 15.7104 33.3733 15.452 32.9826 15.3474C32.8226 15.3033 32.5211 15.214 31.9263 15.3833C31.029 13.5374 30.7183 13.3323 30.4803 13.1723C29.983 12.8523 29.3974 12.7826 28.8467 12.9856C28.1084 13.2523 27.4787 13.9629 26.8839 15.2233L26.6439 15.7647C25.5159 15.8447 23.7397 16.2529 22.2394 17.8773C22.0528 18.0824 21.6887 18.2321 21.3062 18.3746H21.3165C20.5351 18.6495 20.1802 19.2894 19.7444 20.4441C19.1394 22.0603 19.7618 23.6498 20.3751 24.6794C19.5403 25.4249 18.4307 26.6155 17.8441 28.0092C17.1263 29.732 17.0361 31.419 17.0627 32.3337C16.4413 32.99 15.4835 34.2247 15.3758 35.6102C15.2322 37.5463 15.9357 38.861 16.2474 39.3399C16.333 39.4735 16.4312 39.5985 16.5407 39.7132C16.5048 39.9532 16.4966 40.2106 16.551 40.4772C16.6669 41.0986 17.0576 41.6052 17.6524 41.9231C18.8245 42.5446 20.4581 42.8112 21.7195 42.1795C22.1728 42.6595 22.9983 43.1209 24.4884 43.1209H24.5776C24.9591 43.1209 29.8076 42.8646 31.2197 42.5159C31.715 42.4058 32.1773 42.1806 32.5693 41.8585C33.4748 41.5745 35.9791 40.7223 38.3428 39.1943C40.0123 38.1114 40.5887 37.8796 41.8326 37.5781C43.0406 37.2848 43.7954 36.1834 43.6447 34.9672L43.6467 34.9713ZM41.5342 36.2768C40.1128 36.6152 39.394 36.9249 37.6352 38.0714C34.891 39.8475 31.8894 40.6731 31.8894 40.6731C31.8894 40.6731 31.6412 41.0463 30.9213 41.2145C29.6784 41.516 24.998 41.7744 24.5714 41.7826C23.4259 41.7929 22.7255 41.4894 22.5286 41.0187C21.9338 39.5973 23.3798 38.9759 23.3798 38.9759C23.3798 38.9759 23.0598 38.781 22.8732 38.6026C22.704 38.4334 22.5266 38.096 22.463 38.2211C22.2415 38.7626 22.1246 40.0855 21.5298 40.6823C20.7125 41.5078 19.1681 41.233 18.2533 40.7541C17.2483 40.2208 18.3251 38.9697 18.3251 38.9697C18.3251 38.9697 17.7836 39.2897 17.3478 38.6313C16.9581 38.0263 16.593 36.9977 16.6915 35.7271C16.7981 34.2811 18.4143 32.8762 18.4143 32.8762C18.4143 32.8762 18.1303 30.736 19.0624 28.5424C19.9064 26.5448 22.18 24.9368 22.18 24.9368C22.18 24.9368 20.2705 22.8243 20.9801 20.923C21.4416 19.6801 21.6282 19.6883 21.78 19.635C22.3133 19.4299 22.8281 19.2084 23.2096 18.791C25.119 16.7297 27.5525 17.1215 27.5525 17.1215C27.5525 17.1215 28.7073 13.6143 29.7727 14.2973C30.1009 14.5106 31.2823 17.1379 31.2823 17.1379C31.2823 17.1379 32.5436 16.3995 32.6852 16.6764C33.4492 18.1593 33.5363 20.9938 33.2 22.7145C32.6318 25.5552 31.2105 27.0832 30.6424 28.043C30.5091 28.2645 32.1704 28.966 33.2164 31.8702C34.1844 34.5262 33.323 36.7546 33.4727 37.0028L33.5086 37.0643C33.5086 37.0643 34.6182 37.1536 36.8477 35.7763C38.0372 35.038 39.4493 34.2134 41.0573 34.197C42.611 34.1704 42.6909 35.9917 41.5188 36.2747L41.5342 36.2768Z" fill="white"/>
</g>
<defs>
<clipPath id="clip0">
<rect width="46" height="46" fill="white" transform="translate(5 5)"/>
</clipPath>
</defs>
</svg>
