<svg width="56" height="56" viewBox="0 0 56 56" fill="none" xmlns="http://www.w3.org/2000/svg">
<path d="M21.2509 45.9994C24.7003 45.9994 27.4997 43.2367 27.4997 39.8327V33.666H21.2509C17.8016 33.666 15.0022 36.4287 15.0022 39.8327C15.0022 43.2367 17.8016 45.9994 21.2509 45.9994Z" fill="#0ACF83"/>
<path d="M15.0022 27.5007C15.0022 24.0967 17.8016 21.334 21.2509 21.334H27.4997V33.6674H21.2509C17.8016 33.6674 15.0022 30.9047 15.0022 27.5007Z" fill="#A259FF"/>
<path d="M15.0029 15.1667C15.0029 11.7627 17.8024 9 21.2517 9H27.5004V21.3333H21.2517C17.8024 21.3333 15.0029 18.5707 15.0029 15.1667Z" fill="#F24E1E"/>
<path d="M27.5 9H33.7488C37.1981 9 39.9975 11.7627 39.9975 15.1667C39.9975 18.5707 37.1981 21.3333 33.7488 21.3333H27.5V9Z" fill="#FF7262"/>
<path d="M39.9975 27.5007C39.9975 30.9047 37.1981 33.6674 33.7488 33.6674C30.2995 33.6674 27.5 30.9047 27.5 27.5007C27.5 24.0967 30.2995 21.334 33.7488 21.334C37.1981 21.334 39.9975 24.0967 39.9975 27.5007Z" fill="#1ABCFE"/>
</svg>
