<svg width="56" height="56" viewBox="0 0 56 56" fill="none" xmlns="http://www.w3.org/2000/svg">
<g clip-path="url(#clip0)">
<path d="M8.70874 9.71289H46.2922V46.2867H8.70874V9.71289Z" fill="url(#paint0_radial)"/>
<path d="M8.70831 9.71489H46.2918V46.2887H8.70831V9.71489ZM7 47.9978H48.0001V8.00586H7V47.9978ZM34.6409 24.4128C33.2913 24.4128 32.8301 25.0964 32.8301 25.6604C32.8301 26.2756 33.1375 26.7029 34.9484 27.6429C37.6305 28.9418 38.4676 30.1894 38.4676 32.0181C38.4676 34.7525 36.3834 36.2223 33.5646 36.2223C32.0784 36.2223 30.7971 35.9147 30.0625 35.4875C29.943 35.4362 29.9259 35.3508 29.9259 35.214V32.7017C29.9259 32.5308 30.0113 32.4795 30.1309 32.565C31.2072 33.2657 32.4372 33.5733 33.5646 33.5733C34.9142 33.5733 35.478 33.0093 35.478 32.2402C35.478 31.625 35.0851 31.0781 33.3596 30.1894C30.9337 29.0272 29.9259 27.848 29.9259 25.8826C29.9259 23.6778 31.6514 21.8492 34.6409 21.8492C36.1101 21.8492 37.1351 22.0714 37.6988 22.3277C37.8355 22.4132 37.8696 22.5499 37.8696 22.6695V25.0109C37.8696 25.1476 37.7842 25.2331 37.6133 25.1818C36.8617 24.7033 35.7513 24.4128 34.6409 24.4128V24.4128ZM19.9492 26.4466C20.3421 26.4807 20.6496 26.4807 21.3329 26.4807C23.3318 26.4807 25.2109 25.78 25.2109 23.0627C25.2109 20.8922 23.8613 19.7983 21.5892 19.7983C20.9059 19.7983 20.2567 19.8325 19.9492 19.8496V26.4466ZM16.9084 17.3715C16.9084 17.2518 17.1476 17.1663 17.2842 17.1663C18.3776 17.1151 20.0005 17.0809 21.6917 17.0809C26.4238 17.0809 28.2688 19.6786 28.2688 22.9942C28.2688 27.3352 25.1254 29.1981 21.2646 29.1981C20.6155 29.1981 20.3934 29.1639 19.9321 29.1639V35.7267C19.9321 35.8634 19.8808 35.9318 19.7271 35.9318H17.1134C16.9767 35.9318 16.9083 35.8805 16.9083 35.7267V17.3715H16.9084Z" fill="#31C5F0"/>
</g>
<defs>
<radialGradient id="paint0_radial" cx="0" cy="0" r="1" gradientUnits="userSpaceOnUse" gradientTransform="translate(21.0869 17.9091) scale(28.5634 27.6662)">
<stop stop-color="#34364E" stop-opacity="0.98"/>
<stop offset="1" stop-color="#0C0824"/>
</radialGradient>
<clipPath id="clip0">
<rect width="41" height="40" fill="white" transform="translate(7 8)"/>
</clipPath>
</defs>
</svg>
