<svg width="56" height="56" viewBox="0 0 56 56" fill="none" xmlns="http://www.w3.org/2000/svg">
<path fill-rule="evenodd" clip-rule="evenodd" d="M15.9245 22.5762L27.4595 44.9598L8.07129 22.5762H15.9245Z" fill="#EA6C00"/>
<path fill-rule="evenodd" clip-rule="evenodd" d="M38.9978 22.5762L27.4629 44.9598L46.8511 22.5762H38.9978Z" fill="#EA6C00"/>
<path fill-rule="evenodd" clip-rule="evenodd" d="M15.9241 22.5762H38.994L27.459 44.9598L15.9241 22.5762Z" fill="#FDAD00"/>
<path fill-rule="evenodd" clip-rule="evenodd" d="M27.4591 10.1719L16.5312 11.3171L15.9241 22.5769L27.4591 10.1719Z" fill="#FDD231"/>
<path fill-rule="evenodd" clip-rule="evenodd" d="M27.459 10.1719L38.3868 11.3171L38.9939 22.5769L27.459 10.1719Z" fill="#FDD231"/>
<path fill-rule="evenodd" clip-rule="evenodd" d="M46.8511 22.5762L38.3908 11.3164L38.9979 22.5762H46.8511Z" fill="#FDAD00"/>
<path fill-rule="evenodd" clip-rule="evenodd" d="M8.07129 22.5762L16.5316 11.3164L15.9245 22.5762H8.07129Z" fill="#FDAD00"/>
<path fill-rule="evenodd" clip-rule="evenodd" d="M27.459 10.1719L15.9241 22.5769H38.994L27.459 10.1719Z" fill="#FEEEB7"/>
</svg>
