<svg width="56" height="56" viewBox="0 0 56 56" fill="none" xmlns="http://www.w3.org/2000/svg">
<g clip-path="url(#clip0)">
<path d="M12.7823 34.1309L10.4806 34.9677L10.3582 41.7811L18.3253 38.8847C15.5903 37.9733 13.5958 36.3668 12.7823 34.1309" fill="#FDBD39"/>
<path d="M13.9872 26.9258L6 29.8294L10.4808 34.9708L12.7824 34.1339C11.9707 31.9052 12.4717 29.3891 13.9872 26.9258Z" fill="#F69833"/>
<path d="M27.4263 17.0913C17.2563 20.7881 10.6987 28.4183 12.7828 34.131L49.611 20.7426C47.5269 15.03 37.5963 13.3944 27.4263 17.0913" fill="#FECF33"/>
<path d="M34.9649 37.7839C45.135 34.087 51.7035 26.4914 49.6084 20.7441L12.7803 34.1307C14.8753 39.8797 24.7949 41.4807 34.9649 37.7839Z" fill="#EE6723"/>
<path d="M49.6088 20.7422L12.7825 34.1305C13.5028 36.1099 16.2541 37.0851 20.1115 37.0851C23.8739 37.0851 28.6892 36.1591 33.7093 34.3343C43.8794 30.6374 51.0329 24.6501 49.6088 20.7422" fill="#F69833"/>
<path d="M42.28 17.791C38.5195 17.791 33.7023 18.717 28.6822 20.5418C18.5121 24.2387 11.3586 30.2242 12.7827 34.1321L49.6109 20.7438C48.8888 18.7643 46.1392 17.791 42.28 17.791" fill="#FDBD39"/>
<path d="M40.2454 42.1445C39.1613 42.1445 37.5635 41.1712 35.494 39.25C33.0461 36.9777 30.2436 33.6483 27.5982 29.8769C24.9547 26.1054 22.7829 22.3358 21.4812 19.2593C20.0644 15.9082 19.8615 13.8487 20.8798 13.1355C21.1156 12.9754 21.3953 12.8936 21.6805 12.9008C22.5087 12.9008 24.1247 13.5139 27.1101 16.4394L27.1759 16.5031L27.1668 16.594C27.1467 16.8051 27.1284 17.0161 27.1119 17.2254L27.079 17.6383L26.7865 17.3454C23.569 14.1198 22.154 13.7723 21.6933 13.7723C21.5617 13.7723 21.4575 13.7978 21.3825 13.8505C20.9401 14.1598 20.9108 15.6735 22.2856 18.921C23.5635 21.941 25.7043 25.6542 28.313 29.3766C30.9236 33.1007 33.6842 36.3791 36.09 38.6114C38.6823 41.0184 39.8505 41.2785 40.2326 41.2785C40.3642 41.2785 40.4703 41.2512 40.5507 41.1948C41.0169 40.8692 41.0169 39.2482 39.4849 35.7514L39.4136 35.5913L39.5672 35.5077C39.7207 35.424 39.8706 35.3421 40.0096 35.2621L40.1942 35.1584L40.2801 35.3512C41.3661 37.8291 42.3825 40.9783 41.0498 41.9098C40.814 42.0699 40.5324 42.1518 40.2454 42.1445ZM40.2454 41.7625V41.9535V41.7625Z" fill="#EE6723"/>
<path d="M35.212 37.6789L35.1974 37.8681C34.9396 41.0338 34.2632 44.8398 32.4972 44.9944C32.4607 44.998 32.4241 44.998 32.3894 44.998C31.1901 44.998 30.0548 43.2879 29.0183 39.9167C28.0347 36.7256 27.2724 32.4429 26.872 27.8564C26.4699 23.27 26.4753 18.92 26.8885 15.607C27.3382 11.9975 28.1938 10.1127 29.4333 10.0035C29.4698 9.99987 29.5082 9.99805 29.5448 9.99805C30.415 9.99805 31.7258 10.9787 33.0676 15.5451L32.1919 15.7125C31.7441 14.1879 31.2559 12.9472 30.7715 12.0921C30.3236 11.3043 29.8867 10.8695 29.5448 10.8695C29.5338 10.8695 29.5229 10.8695 29.5101 10.8713C28.9726 10.9186 28.1901 12.214 27.755 15.7143C27.3492 18.9673 27.3437 23.2536 27.7404 27.78C28.1371 32.3083 28.8867 36.5273 29.8519 39.6602C30.2834 41.0629 30.7569 42.2199 31.223 43.0041C31.6508 43.7282 32.0658 44.1266 32.3894 44.1266C32.4004 44.1266 32.4113 44.1266 32.4223 44.1248C32.936 44.0811 33.9049 42.7312 34.3126 37.9846L35.212 37.6789Z" fill="#EE6723"/>
</g>
<defs>
<clipPath id="clip0">
<rect width="44" height="35" fill="white" transform="translate(6 10)"/>
</clipPath>
</defs>
</svg>
