<svg width="490" height="260" viewBox="0 0 490 260" fill="none" xmlns="http://www.w3.org/2000/svg">
<path d="M288.873 210.502C288.155 210.502 287.454 210.715 286.857 211.114C286.261 211.514 285.796 212.082 285.521 212.746C285.247 213.41 285.175 214.141 285.315 214.846C285.455 215.551 285.8 216.198 286.308 216.707C286.815 217.215 287.461 217.561 288.165 217.701C288.869 217.842 289.598 217.77 290.261 217.495C290.924 217.219 291.49 216.754 291.889 216.156C292.287 215.558 292.5 214.855 292.5 214.137C292.5 213.173 292.118 212.248 291.438 211.567C290.757 210.885 289.835 210.502 288.873 210.502ZM288.873 216.373C288.431 216.373 288 216.242 287.633 215.996C287.265 215.751 286.979 215.401 286.81 214.993C286.641 214.584 286.597 214.134 286.683 213.7C286.769 213.266 286.982 212.868 287.294 212.555C287.606 212.242 288.004 212.029 288.437 211.943C288.87 211.856 289.319 211.901 289.727 212.07C290.135 212.239 290.484 212.526 290.729 212.894C290.974 213.262 291.105 213.694 291.105 214.137V214.137C291.105 214.73 290.87 215.299 290.451 215.718C290.033 216.138 289.465 216.373 288.873 216.373V216.373Z" fill="currentColor"/>
<path d="M274.921 207.705H288.873V221.541C288.873 222.024 288.681 222.487 288.34 222.829C288 223.17 287.537 223.362 287.055 223.362H276.739C276.257 223.362 275.794 223.17 275.453 222.829C275.113 222.487 274.921 222.024 274.921 221.541V207.705V207.705Z" fill="currentColor"/>
<path d="M245.951 223.678H455.647C455.725 223.669 455.797 223.632 455.849 223.574C455.902 223.515 455.93 223.44 455.93 223.361C455.93 223.283 455.902 223.207 455.849 223.149C455.797 223.09 455.725 223.053 455.647 223.045H245.951C245.873 223.053 245.801 223.09 245.749 223.149C245.697 223.207 245.668 223.283 245.668 223.361C245.668 223.44 245.697 223.515 245.749 223.574C245.801 223.632 245.873 223.669 245.951 223.678V223.678Z" fill="#CACACA"/>
<path d="M427.704 217.703L429.001 224.129L404.884 232.2L402.97 222.716L427.704 217.703Z" fill="#FFB6B6"/>
<path d="M425.279 216.487L427.834 229.141L427.834 229.141C428.266 231.28 429.528 233.159 431.342 234.366C433.157 235.572 435.375 236.007 437.51 235.574L437.771 235.521L433.589 214.803L425.279 216.487Z" fill="#374151"/>
<path d="M400.375 129.194C391.331 129.194 383.999 121.847 383.999 112.785C383.999 103.723 391.331 96.377 400.375 96.377C409.418 96.377 416.75 103.723 416.75 112.785C416.75 121.847 409.418 129.194 400.375 129.194Z" fill="#FEB8B8"/>
<path d="M385.08 98.6286C387.528 94.645 391.36 91.7097 395.839 90.3876L397.849 91.8576V89.9488C398.925 89.7839 400.014 89.7203 401.101 89.759L402.835 91.3315V89.8897C405.403 90.2094 407.877 91.0589 410.101 92.3844C412.325 93.71 414.251 95.4829 415.757 97.5914C419.524 103.032 420.16 110.602 416.455 116.086C415.438 112.955 414.204 110.016 413.187 106.885C412.387 106.994 411.577 106.998 410.777 106.897L409.54 104.004L409.194 106.774C405.359 106.439 399.671 105.704 396.035 105.031L396.389 102.905L394.274 104.671C393.16 104.415 392.499 104.182 392.553 104.003C389.849 108.371 386.54 111.161 383.837 115.529C382.81 109.37 381.628 104.249 385.08 98.6286Z" fill="#374151"/>
<path d="M395.047 220.157C371.76 220.157 352.882 214.866 352.882 208.339C352.882 201.812 371.76 196.521 395.047 196.521C418.333 196.521 437.211 201.812 437.211 208.339C437.211 214.866 418.333 220.157 395.047 220.157Z" fill="#374151"/>
<path d="M365.156 154.98C365.719 151.585 366.299 148.125 367.874 145.067C368.909 143.064 370.551 141.156 372.766 140.76C373.202 140.721 373.631 140.621 374.039 140.464C374.688 140.151 383.407 135.164 384.793 134.295C385.983 133.549 387.861 132.169 388.808 132.169C389.761 132.148 393.414 133 407.674 131.883C410.073 132.848 412.396 133.992 414.623 135.306C414.669 135.276 429.423 143.215 429.977 143.194C431.027 143.15 432.003 143.823 432.605 144.671C433.206 145.519 433.489 146.569 433.784 147.584C430.562 154.775 427.613 161.976 424.39 169.167C424.239 169.438 424.159 169.742 424.157 170.053C424.222 170.374 424.359 170.677 424.558 170.938C426.138 173.482 426.088 176.682 425.916 179.672C425.743 182.662 425.529 185.82 426.863 188.5C427.225 189.236 427.697 189.909 428.042 190.645C428.85 192.311 429.142 197.641 428.67 199.432L369.551 201.129C370.822 197.628 365.156 154.98 365.156 154.98Z" fill="#6366F1"/>
<path d="M438.894 169.487C439.012 170.342 439.024 171.208 438.93 172.066L438.082 184.26C438.003 185.409 437.925 186.555 437.817 187.702C437.614 189.926 437.31 192.133 436.933 194.337C436.924 194.65 436.792 194.947 436.566 195.162C436.339 195.378 436.036 195.494 435.724 195.486C431.994 196.277 428.14 196.246 424.334 196.03C418.525 195.705 403.664 195.091 402.756 193.909C401.848 192.727 402.377 190.815 403.561 189.86C404.745 188.904 424.356 186.574 424.356 186.574C424.165 185.053 423.587 183.62 423.038 182.175C422.053 179.613 421.133 176.967 421.116 174.222C421.098 171.477 422.13 168.591 424.374 167.019C426.22 165.728 428.596 165.488 430.846 165.541C432.482 165.588 435.31 165.196 436.805 165.837C437.988 166.359 438.673 168.326 438.894 169.487Z" fill="#FBBEBE"/>
<path d="M365.051 197.048C364.069 196.672 362.987 196.808 361.934 196.95C358.546 197.414 355.108 197.89 351.968 199.246C350.494 199.878 349.09 200.723 348.094 201.966C347.21 203.086 346.693 204.457 346.204 205.807L345.071 208.915C344.59 210.083 344.258 211.307 344.083 212.558C343.73 216.278 346.268 219.785 349.462 221.717C352.655 223.65 356.414 224.338 360.077 225.059C363.739 225.78 367.416 226.577 371.063 227.422C372.764 227.865 374.49 228.205 376.232 228.441C380.136 228.884 384.216 228.232 387.926 229.526C389.4 230.043 390.848 230.811 392.377 231.169C393.393 231.383 394.421 231.54 395.455 231.638L402.476 232.442C403.903 232.633 405.341 232.744 406.781 232.773C409.847 232.773 412.863 232.045 415.841 231.318C416.157 231.262 416.459 231.14 416.725 230.96C417.197 230.588 417.3 229.929 417.368 229.332C417.668 226.691 417.932 224.047 418.157 221.4C418.228 220.54 418.281 219.609 417.812 218.885C417.222 218 416.072 217.721 415.022 217.55C410.571 216.82 406.062 216.507 401.553 216.613C399.84 214.897 397.015 214.888 394.771 213.954C393.946 213.574 393.147 213.139 392.38 212.651C388.366 210.305 383.881 208.885 379.25 208.494C378.343 208.467 377.442 208.338 376.564 208.11C374.828 207.57 373.244 206.098 371.46 206.459C371.239 205.847 371.086 205.029 370.576 204.609C370.324 204.393 370.01 204.249 369.777 204.018C369.285 203.519 369.241 202.733 369.314 202.036C369.388 201.339 369.553 200.624 369.373 199.944C369.299 199.687 369.188 199.441 369.046 199.214C368.165 197.686 366.829 196.9 365.051 197.048Z" fill="#374151"/>
<path d="M433.955 147.804C434.242 148.105 434.465 148.462 434.609 148.852C436.993 154.235 438.4 159.999 438.767 165.876C438.76 166.163 438.826 166.446 438.958 166.7C439.088 166.87 439.234 167.027 439.392 167.17C439.529 167.334 439.634 167.523 439.699 167.727C439.763 167.931 439.787 168.146 439.769 168.36C439.751 168.573 439.691 168.781 439.593 168.971C439.495 169.161 439.36 169.33 439.197 169.469C439.17 169.491 439.143 169.513 439.114 169.534C438.628 168.616 437.463 168.317 436.428 168.237C431.472 167.844 426.63 170.154 421.659 169.98C422.01 168.766 422.514 167.599 422.8 166.37C424.065 160.913 420.91 154.972 422.844 149.715C423.231 148.664 423.876 147.63 424.894 147.169C425.315 146.998 425.756 146.882 426.206 146.821C427.462 146.593 429.962 145.621 431.177 146.011C431.625 146.156 431.802 146.578 432.174 146.834C432.738 147.195 433.487 147.328 433.955 147.804Z" fill="#6366F1"/>
<path d="M365.12 165.837C366.615 165.196 369.443 165.588 371.079 165.541C373.329 165.488 375.705 165.728 377.551 167.019C379.795 168.591 380.827 171.477 380.809 174.222C380.792 176.967 379.872 179.613 378.887 182.175C378.338 183.62 377.76 185.053 377.569 186.574C377.569 186.574 397.18 188.904 398.364 189.86C399.548 190.815 400.077 192.727 399.169 193.909C398.261 195.091 369.931 196.277 366.201 195.486C365.889 195.494 365.586 195.378 365.359 195.162C365.133 194.947 365.001 194.65 364.992 194.337C364.615 192.133 364.311 189.926 364.108 187.702C364 186.555 363.922 185.409 363.843 184.26L362.995 172.066C362.901 171.208 362.913 170.342 363.031 169.487C363.252 168.326 363.937 166.359 365.12 165.837Z" fill="#FBBEBE"/>
<path d="M369.752 146.834C370.123 146.578 370.3 146.156 370.748 146.011C371.963 145.621 374.463 146.593 375.719 146.821C376.17 146.882 376.61 146.998 377.031 147.169C378.049 147.63 378.694 148.664 379.081 149.715C381.015 154.972 377.86 160.913 379.125 166.37C379.411 167.599 379.915 168.766 380.266 169.98C375.295 170.154 370.453 167.844 365.497 168.237C364.462 168.317 363.297 168.616 362.811 169.534C362.782 169.513 362.755 169.491 362.728 169.469C362.565 169.33 362.43 169.161 362.332 168.971C362.234 168.781 362.174 168.573 362.156 168.36C362.138 168.146 362.162 167.931 362.227 167.727C362.291 167.523 362.396 167.334 362.534 167.17C362.692 167.027 362.837 166.87 362.967 166.7C363.099 166.446 363.165 166.163 363.159 165.876C363.525 159.999 364.933 154.235 367.316 148.852C367.461 148.462 367.683 148.105 367.97 147.804C368.438 147.328 369.187 147.195 369.752 146.834Z" fill="#6366F1"/>
<path d="M361.461 226.875L362.323 233.373L387.748 233.134L386.476 223.543L361.461 226.875Z" fill="#FFB6B6"/>
<path d="M354.954 226.053L357.734 247.007L357.998 246.971C360.157 246.684 362.113 245.549 363.437 243.816C364.76 242.084 365.343 239.895 365.056 237.732L365.056 237.731L363.358 224.934L354.954 226.053Z" fill="#374151"/>
<path d="M421.277 200.338C421.277 200.633 421.74 200.338 421.782 200.022C422.106 197.631 423.999 195.661 426.205 194.703C428.41 193.746 430.923 193.696 433.311 193.923C436.923 194.266 440.977 195.652 442.298 199.035C442.611 199.825 445.538 206.867 445.253 208.45C444.483 212.675 441.599 216.289 438.105 218.791C434.611 221.294 430.529 222.789 426.456 224.137C415.689 227.695 404.642 230.339 393.432 232.04C391.616 232.315 389.782 232.569 388.042 233.154C386.486 233.677 385.029 234.46 383.507 235.075C379.969 236.498 376.162 237.007 372.391 237.506C371.749 237.589 371.011 237.648 370.537 237.211C369.923 236.642 370.126 235.648 370.301 234.83C370.941 231.718 370.404 228.479 368.794 225.742C368.163 224.678 367.342 223.588 367.461 222.357C367.603 220.921 369.03 219.905 370.451 219.674C371.872 219.444 373.317 219.784 374.745 219.97C375.234 220.082 375.746 220.031 376.204 219.825C376.416 219.681 376.608 219.51 376.776 219.317C377.759 218.366 379.017 217.752 380.37 217.563C381.723 217.374 383.101 217.618 384.307 218.262C384.834 218.558 385.633 217.899 386.182 217.651L392.383 214.838C399.506 211.609 406.665 208.364 414.202 206.32C414.803 206.202 415.375 205.963 415.883 205.62C416.257 205.324 416.526 204.924 416.871 204.594C417.623 203.882 418.67 203.599 419.571 203.093C420.473 202.588 421.483 201.351 421.277 200.338Z" fill="#374151"/>
<path d="M405.224 196.068C402.783 196.068 400.805 194.085 400.805 191.64C400.805 189.194 402.783 187.211 405.224 187.211C407.665 187.211 409.644 189.194 409.644 191.64C409.644 194.085 407.665 196.068 405.224 196.068Z" fill="#FBBEBE"/>
<path d="M395.438 196.068C392.997 196.068 391.018 194.085 391.018 191.64C391.018 189.194 392.997 187.211 395.438 187.211C397.879 187.211 399.858 189.194 399.858 191.64C399.858 194.085 397.879 196.068 395.438 196.068Z" fill="#FBBEBE"/>
<path d="M368.156 201.618H428.876C429.585 201.617 430.265 201.334 430.766 200.832C431.267 200.33 431.549 199.649 431.55 198.938V162.027C431.549 161.317 431.267 160.636 430.766 160.133C430.265 159.631 429.585 159.348 428.876 159.348H368.156C367.447 159.348 366.767 159.631 366.266 160.133C365.765 160.636 365.483 161.317 365.482 162.027V198.938C365.483 199.649 365.765 200.33 366.266 200.832C366.767 201.334 367.447 201.617 368.156 201.618Z" fill="#6B7280"/>
<path d="M398.663 182.254C397.686 182.254 396.894 181.461 396.894 180.482C396.894 179.503 397.686 178.709 398.663 178.709C399.641 178.709 400.433 179.503 400.433 180.482C400.433 181.461 399.641 182.254 398.663 182.254Z" fill="#F8FAFC"/>
<path d="M245.792 170H29.1612C27.6824 169.998 26.2647 169.409 25.219 168.361C24.1734 167.313 23.5852 165.893 23.5835 164.411V30.5634C23.5847 29.4778 24.0156 28.437 24.7816 27.6694C25.5477 26.9018 26.5863 26.47 27.6697 26.4688H247.213C248.315 26.47 249.372 26.9093 250.151 27.6902C250.93 28.471 251.369 29.5298 251.37 30.6341V164.411C251.368 165.893 250.78 167.313 249.734 168.361C248.689 169.409 247.271 169.998 245.792 170V170Z" fill="currentColor"/>
<path d="M238.788 162.945H36.8939C33.9343 162.945 31.5266 160.685 31.5266 157.909V41.3522C31.5266 39.2928 33.3108 37.6172 35.5039 37.6172H240.112C242.342 37.6172 244.156 39.3204 244.156 41.4138V157.909C244.156 160.685 241.748 162.945 238.788 162.945Z" fill="#F8FAFC"/>
<path d="M251.293 31.2598H23.5054V28.4144C23.5075 26.9277 24.0981 25.5026 25.1476 24.4516C26.197 23.4007 27.6197 22.8098 29.1034 22.8086H245.694C247.178 22.8098 248.601 23.4007 249.65 24.4516C250.7 25.5026 251.29 26.9277 251.293 28.4144V31.2598Z" fill="#4B5563"/>
<path d="M33.679 28.4955C34.4787 28.4955 35.127 27.8459 35.127 27.0446C35.127 26.2433 34.4787 25.5938 33.679 25.5938C32.8792 25.5938 32.231 26.2433 32.231 27.0446C32.231 27.8459 32.8792 28.4955 33.679 28.4955Z" fill="#F8FAFC"/>
<path d="M39.175 28.4955C39.9747 28.4955 40.623 27.8459 40.623 27.0446C40.623 26.2433 39.9747 25.5938 39.175 25.5938C38.3753 25.5938 37.7271 26.2433 37.7271 27.0446C37.7271 27.8459 38.3753 28.4955 39.175 28.4955Z" fill="#F8FAFC"/>
<path d="M44.6713 28.4955C45.471 28.4955 46.1193 27.8459 46.1193 27.0446C46.1193 26.2433 45.471 25.5938 44.6713 25.5938C43.8717 25.5938 43.2234 26.2433 43.2234 27.0446C43.2234 27.8459 43.8717 28.4955 44.6713 28.4955Z" fill="#F8FAFC"/>
<path d="M88.5271 55.9238H52.8466C52.1362 55.9236 51.4328 56.0637 50.7765 56.336C50.1202 56.6083 49.5239 57.0075 49.0216 57.5108C48.5193 58.0141 48.1209 58.6116 47.8492 59.2692C47.5774 59.9268 47.4377 60.6316 47.4379 61.3434V85.6739C47.4377 86.3857 47.5774 87.0905 47.8492 87.7481C48.1209 88.4057 48.5193 89.0032 49.0216 89.5065C49.5239 90.0098 50.1202 90.409 50.7765 90.6813C51.4328 90.9536 52.1362 91.0937 52.8466 91.0935H88.5271C89.9615 91.0933 91.3372 90.5222 92.3514 89.5059C93.3657 88.4896 93.9356 87.1112 93.9358 85.6739V61.3434C93.9356 59.9061 93.3657 58.5277 92.3515 57.5114C91.3372 56.4951 89.9616 55.924 88.5271 55.9238V55.9238Z" fill="#6366F1"/>
<path d="M113.694 61.3434V85.6767C113.694 87.1141 114.264 88.4926 115.278 89.509C116.293 90.5253 117.668 91.0963 119.103 91.0963H154.783C156.217 91.0963 157.593 90.5253 158.607 89.509C159.621 88.4926 160.191 87.1141 160.191 85.6767V61.3434C160.191 59.906 159.621 58.5275 158.607 57.5112C157.593 56.4948 156.217 55.9238 154.783 55.9238H119.103C117.668 55.9238 116.293 56.4948 115.278 57.5112C114.264 58.5275 113.694 59.906 113.694 61.3434Z" fill="#6366F1"/>
<path d="M179.951 61.3434V85.6767C179.951 87.1141 180.521 88.4926 181.535 89.509C182.549 90.5253 183.925 91.0963 185.359 91.0963H221.039C222.474 91.0963 223.849 90.5253 224.864 89.509C225.878 88.4926 226.448 87.1141 226.448 85.6767V61.3434C226.448 59.906 225.878 58.5275 224.864 57.5112C223.849 56.4948 222.474 55.9238 221.039 55.9238H185.359C183.925 55.9238 182.549 56.4948 181.535 57.5112C180.521 58.5275 179.951 59.906 179.951 61.3434Z" fill="#9CA3AF"/>
<path d="M47.4377 115.199V139.532C47.4377 140.97 48.0076 142.348 49.0219 143.364C50.0362 144.381 51.412 144.952 52.8464 144.952H88.5262C89.9606 144.952 91.3363 144.381 92.3507 143.364C93.365 142.348 93.9348 140.97 93.9348 139.532V115.199C93.9348 113.762 93.365 112.383 92.3507 111.367C91.3363 110.35 89.9606 109.779 88.5262 109.779H52.8464C51.412 109.779 50.0362 110.35 49.0219 111.367C48.0076 112.383 47.4377 113.762 47.4377 115.199Z" fill="#9CA3AF"/>
<path d="M113.694 115.199V139.532C113.694 140.97 114.264 142.348 115.278 143.364C116.293 144.381 117.668 144.952 119.103 144.952H154.783C156.217 144.952 157.593 144.381 158.607 143.364C159.621 142.348 160.191 140.97 160.191 139.532V115.199C160.191 113.762 159.621 112.383 158.607 111.367C157.593 110.35 156.217 109.779 154.783 109.779H119.103C117.668 109.779 116.293 110.35 115.278 111.367C114.264 112.383 113.694 113.762 113.694 115.199Z" fill="#9CA3AF"/>
<path d="M179.951 115.199V139.532C179.951 140.97 180.521 142.348 181.535 143.364C182.549 144.381 183.925 144.952 185.359 144.952H221.039C222.474 144.952 223.849 144.381 224.864 143.364C225.878 142.348 226.448 140.97 226.448 139.532V115.199C226.448 113.762 225.878 112.383 224.864 111.367C223.849 110.35 222.474 109.779 221.039 109.779H185.359C183.925 109.779 182.549 110.35 181.535 111.367C180.521 112.383 179.951 113.762 179.951 115.199Z" fill="#6366F1"/>
<path d="M135.936 85.8719C142.63 85.8719 148.057 80.4345 148.057 73.727C148.057 67.0195 142.63 61.582 135.936 61.582C129.242 61.582 123.816 67.0195 123.816 73.727C123.816 80.4345 129.242 85.8719 135.936 85.8719Z" fill="#F8FAFC"/>
<path d="M134.735 78.3597C134.462 78.3602 134.197 78.2719 133.978 78.108L133.965 78.0978L131.116 75.9126C130.85 75.708 130.676 75.4058 130.632 75.0724C130.588 74.739 130.677 74.4017 130.882 74.1348C131.086 73.8678 131.387 73.6931 131.72 73.6489C132.053 73.6048 132.389 73.6949 132.656 73.8995L134.501 75.317L138.861 69.6195C138.962 69.4874 139.088 69.3765 139.232 69.2932C139.376 69.2098 139.535 69.1557 139.699 69.134C139.864 69.1122 140.032 69.1231 140.192 69.1661C140.353 69.2092 140.503 69.2835 140.635 69.3848L140.608 69.4217L140.636 69.3854C140.902 69.5902 141.076 69.8925 141.12 70.2258C141.164 70.5591 141.074 70.8962 140.87 71.1632L135.742 77.8649C135.623 78.0193 135.47 78.1443 135.296 78.2301C135.121 78.3159 134.929 78.3602 134.735 78.3597V78.3597Z" fill="#6366F1"/>
<path d="M203.185 139.706C209.879 139.706 215.306 134.268 215.306 127.561C215.306 120.853 209.879 115.416 203.185 115.416C196.491 115.416 191.065 120.853 191.065 127.561C191.065 134.268 196.491 139.706 203.185 139.706Z" fill="#F8FAFC"/>
<path d="M201.984 132.194C201.711 132.194 201.446 132.106 201.228 131.942L201.214 131.932L198.366 129.747C198.099 129.542 197.925 129.24 197.881 128.906C197.837 128.573 197.927 128.236 198.131 127.969C198.335 127.702 198.637 127.527 198.969 127.483C199.302 127.439 199.639 127.529 199.905 127.733L201.75 129.151L206.11 123.453C206.211 123.321 206.337 123.21 206.481 123.127C206.625 123.044 206.784 122.99 206.949 122.968C207.113 122.946 207.281 122.957 207.441 123C207.602 123.043 207.752 123.117 207.884 123.219L207.857 123.256L207.885 123.219C208.151 123.424 208.325 123.726 208.369 124.06C208.413 124.393 208.323 124.73 208.119 124.997L202.991 131.699C202.872 131.853 202.72 131.978 202.545 132.064C202.37 132.15 202.178 132.194 201.984 132.194V132.194Z" fill="#6366F1"/>
<path d="M203.185 85.4989C209.879 85.4989 215.306 80.0614 215.306 73.3539C215.306 66.6465 209.879 61.209 203.185 61.209C196.491 61.209 191.065 66.6465 191.065 73.3539C191.065 80.0614 196.491 85.4989 203.185 85.4989Z" fill="#F8FAFC"/>
<path d="M201.984 77.9847C201.711 77.9852 201.446 77.8968 201.228 77.7329L201.214 77.7228L198.366 75.5375C198.099 75.333 197.925 75.0308 197.881 74.6974C197.837 74.364 197.927 74.0267 198.131 73.7598C198.335 73.4928 198.637 73.3181 198.969 73.2739C199.302 73.2298 199.639 73.3199 199.905 73.5245L201.75 74.942L206.11 69.2445C206.211 69.1124 206.337 69.0015 206.481 68.9182C206.625 68.8348 206.784 68.7807 206.949 68.759C207.113 68.7372 207.281 68.7481 207.441 68.7911C207.602 68.8342 207.752 68.9085 207.884 69.0098L207.857 69.0467L207.885 69.0104C208.151 69.2152 208.325 69.5175 208.369 69.8508C208.413 70.1841 208.323 70.5212 208.119 70.7882L202.991 77.4898C202.872 77.6443 202.72 77.7692 202.545 77.8551C202.37 77.9409 202.178 77.9852 201.984 77.9847V77.9847Z" fill="#9CA3AF"/>
<path d="M135.936 139.706C142.63 139.706 148.057 134.268 148.057 127.561C148.057 120.853 142.63 115.416 135.936 115.416C129.242 115.416 123.816 120.853 123.816 127.561C123.816 134.268 129.242 139.706 135.936 139.706Z" fill="#F8FAFC"/>
<path d="M134.735 132.194C134.462 132.194 134.197 132.106 133.978 131.942L133.965 131.932L131.116 129.747C130.85 129.542 130.676 129.24 130.632 128.906C130.588 128.573 130.677 128.236 130.882 127.969C131.086 127.702 131.387 127.527 131.72 127.483C132.053 127.439 132.389 127.529 132.656 127.733L134.501 129.151L138.861 123.453C138.962 123.321 139.088 123.21 139.232 123.127C139.376 123.044 139.535 122.99 139.699 122.968C139.864 122.946 140.032 122.957 140.192 123C140.353 123.043 140.503 123.117 140.635 123.219L140.608 123.256L140.636 123.219C140.902 123.424 141.076 123.726 141.12 124.06C141.164 124.393 141.074 124.73 140.87 124.997L135.742 131.699C135.623 131.853 135.47 131.978 135.296 132.064C135.121 132.15 134.929 132.194 134.735 132.194V132.194Z" fill="#9CA3AF"/>
<path d="M69.8141 139.706C76.5081 139.706 81.9347 134.268 81.9347 127.561C81.9347 120.853 76.5081 115.416 69.8141 115.416C63.1201 115.416 57.6935 120.853 57.6935 127.561C57.6935 134.268 63.1201 139.706 69.8141 139.706Z" fill="#F8FAFC"/>
<path d="M68.6128 132.194C68.3401 132.194 68.0746 132.106 67.8564 131.942L67.8429 131.932L64.9945 129.747C64.7281 129.542 64.5536 129.24 64.5096 128.906C64.4656 128.573 64.5555 128.236 64.7596 127.969C64.9638 127.702 65.2654 127.527 65.5981 127.483C65.9308 127.439 66.2674 127.529 66.5338 127.733L68.3788 129.151L72.7388 123.453C72.8399 123.321 72.966 123.21 73.1099 123.127C73.2538 123.044 73.4127 122.99 73.5774 122.968C73.7422 122.946 73.9096 122.957 74.0702 123C74.2307 123.043 74.3812 123.117 74.5131 123.219L74.4859 123.256L74.5138 123.219C74.7798 123.424 74.9538 123.726 74.9977 124.06C75.0416 124.393 74.9518 124.73 74.748 124.997L69.6196 131.699C69.501 131.853 69.3484 131.978 69.1738 132.064C68.9992 132.15 68.8072 132.194 68.6128 132.194V132.194Z" fill="#9CA3AF"/>
<path d="M69.8141 85.4989C76.5081 85.4989 81.9347 80.0614 81.9347 73.3539C81.9347 66.6465 76.5081 61.209 69.8141 61.209C63.1201 61.209 57.6935 66.6465 57.6935 73.3539C57.6935 80.0614 63.1201 85.4989 69.8141 85.4989Z" fill="#F8FAFC"/>
<path d="M68.6128 77.9847C68.3401 77.9852 68.0746 77.8968 67.8564 77.7329L67.8429 77.7228L64.9945 75.5375C64.7281 75.333 64.5536 75.0308 64.5096 74.6974C64.4656 74.364 64.5555 74.0267 64.7596 73.7598C64.9638 73.4928 65.2654 73.3181 65.5981 73.2739C65.9308 73.2298 66.2674 73.3199 66.5338 73.5245L68.3788 74.942L72.7388 69.2445C72.8399 69.1124 72.966 69.0015 73.1099 68.9182C73.2538 68.8348 73.4127 68.7807 73.5774 68.759C73.7422 68.7372 73.9096 68.7481 74.0702 68.7911C74.2307 68.8342 74.3812 68.9085 74.5131 69.0098L74.4859 69.0467L74.5138 69.0104C74.7798 69.2152 74.9538 69.5175 74.9977 69.8508C75.0416 70.1841 74.9518 70.5212 74.748 70.7882L69.6196 77.4898C69.501 77.6443 69.3484 77.7692 69.1738 77.8551C68.9992 77.9409 68.8072 77.9852 68.6128 77.9847V77.9847Z" fill="#6366F1"/>
</svg>
