<svg width="56" height="56" viewBox="0 0 56 56" fill="none" xmlns="http://www.w3.org/2000/svg">
<path d="M36.8863 6.72539H34.1462L36.9964 9.8199V11.2916H31.1245V9.56809H33.9746L31.1245 6.47358V5H36.8882L36.8863 6.72539ZM29.9587 6.72539H27.2148L30.0687 9.8199V11.2916H24.1949V9.56809H27.0451L24.1949 6.47358V5H29.9587V6.72539ZM23.0981 6.79627H20.1416V9.4972H23.0981V11.2935H18.0376V5H23.0981V6.79627Z" fill="currentColor"/>
<path d="M14.0069 47.8849L11 14.166H44.0343L41.0237 47.8793L27.4966 51.6285L14.0069 47.8849Z" fill="#1572B6"/>
<path d="M27.5171 48.7644L38.4477 45.7333L41.0181 16.9238H27.5171V48.7644Z" fill="#33A9DC"/>
<path d="M27.5171 29.1391H32.9899L33.3666 24.9049H27.5171V20.7715H37.8881L37.7893 21.8813L36.7727 33.2782H27.5171V29.1391Z" fill="white"/>
<path d="M27.5396 39.8799H27.521L22.9155 38.6358L22.6208 35.3379H18.4724L19.0525 41.831L27.5247 44.1888H27.5489V39.8799H27.5396Z" fill="#EBEBEB"/>
<path d="M32.6392 33.0976L32.1412 38.6319L27.5283 39.876V44.1849L36.0061 41.8346L36.0676 41.1351L36.7876 33.0957H32.6392V33.0976Z" fill="white"/>
<path d="M27.532 20.7715V24.9068H17.5452L17.4594 23.9779L17.271 21.8813L17.1721 20.7715H27.532ZM27.517 29.1391V33.2745H22.9639L22.8836 32.3455L22.6952 30.249L22.5964 29.1391H27.5152H27.517Z" fill="#EBEBEB"/>
</svg>
