<svg width="24" height="24" viewBox="0 0 24 24" fill="none" xmlns="http://www.w3.org/2000/svg">
<path d="M3.2981 11.6799L7.20648 13.2523L8.73007 18.5413C8.79632 18.8986 9.19378 18.9701 9.45876 18.7557L11.6448 16.8259C11.8435 16.6115 12.1747 16.6115 12.4397 16.8259L16.3481 19.8993C16.6131 20.1137 17.0105 19.9707 17.0768 19.6134L19.9915 4.60405C20.0577 4.24669 19.7265 3.88933 19.3953 4.03227L3.2981 10.7507C2.90063 10.8937 2.90063 11.5369 3.2981 11.6799ZM8.53135 12.4661L16.2156 7.3915C16.3481 7.32002 16.4806 7.53445 16.3481 7.60592L10.0549 13.967C9.85621 14.1814 9.65748 14.4673 9.65748 14.8247L9.45876 16.54C9.45876 16.7545 9.12753 16.8259 9.06129 16.54L8.26636 13.3952C8.06763 13.0379 8.20013 12.609 8.53135 12.4661Z" fill="currentColor"/>
</svg>
