<svg width="56" height="56" viewBox="0 0 56 56" fill="none" xmlns="http://www.w3.org/2000/svg">
<path d="M14.0073 47.4046L11 14.0625H44.0458L41.0352 47.3993L27.5026 51.1078L14.0073 47.4046Z" fill="#E44D26"/>
<path d="M27.5229 48.2734L38.4578 45.2766L41.0307 16.7891H27.5229V48.2734Z" fill="#F16529"/>
<path d="M27.5231 29.1557H22.0489L21.6708 24.9682H27.5231V20.8789H17.1494L17.2485 21.976L18.2653 33.2449H27.5231V29.1557ZM27.5231 39.7759L27.5049 39.7808L22.8976 38.5509L22.603 35.2897H18.4502L19.0299 41.7104L27.5042 44.0358L27.5231 44.0305V39.7759Z" fill="#EBEBEB"/>
<path d="M14.0745 5.00195H16.1768V7.05508H18.0999V5.00195H20.2023V11.2194H18.0999V9.13745H16.1768V11.2194H14.0746L14.0745 5.00195ZM22.9671 7.06384H21.1164V5.00195H26.9214V7.06384H25.0698V11.2194H22.9672L22.9671 7.06384ZM27.8426 5.00195H30.0349L31.3834 7.18663L32.7306 5.00195H34.9236V11.2194H32.8296V8.13761L31.3831 10.3483H31.347L29.8996 8.13761V11.2194H27.8425L27.8426 5.00195ZM35.9697 5.00195H38.0727V9.16432H41.0294V11.2194H35.9697V5.00195Z" fill="currentColor"/>
<path d="M27.5085 29.1557V33.2449H32.6029L32.1226 38.5484L27.5085 39.7793V44.0336L35.9896 41.7104L36.0516 41.0193L37.0239 30.2538L37.1249 29.1557H36.0102H27.5085ZM27.5085 20.8789V24.9682H37.5014L37.5842 24.049L37.7727 21.976L37.8717 20.8789H27.5085Z" fill="white"/>
</svg>
