<svg width="24" height="24" viewBox="0 0 24 24" fill="none" xmlns="http://www.w3.org/2000/svg">
<path opacity="0.25" fill-rule="evenodd" clip-rule="evenodd" d="M8.50049 3.28571C7.85616 3.28571 7.33382 3.79739 7.33382 4.42857V7.85714C7.33382 8.48832 6.81148 9 6.16715 9C5.52283 9 5.00049 8.48832 5.00049 7.85714V4.42857C5.00049 2.53503 6.5675 1 8.50049 1H15.5005C17.4335 1 19.0005 2.53503 19.0005 4.42857V7.85714C19.0005 8.48832 18.4782 9 17.8338 9C17.1895 9 16.6672 8.48832 16.6672 7.85714V4.42857C16.6672 3.79739 16.1448 3.28571 15.5005 3.28571H8.50049Z" fill="currentColor"/>
<path fill-rule="evenodd" clip-rule="evenodd" d="M1 9.7968C1 7.97387 2.47778 6.49609 4.3007 6.49609H19.704C21.527 6.49609 23.0047 7.97387 23.0047 9.7968V19.6989C23.0047 21.5219 21.527 22.9996 19.704 22.9996H4.3007C2.47778 22.9996 1 21.5219 1 19.6989V9.7968ZM14.6118 12.9916C14.4244 12.7924 14.4339 12.4791 14.633 12.2917C14.8321 12.1043 15.1454 12.1138 15.3328 12.3129L17.3133 14.4171C17.4927 14.6077 17.4927 14.9051 17.3133 15.0957L15.3328 17.1999C15.1454 17.3991 14.8321 17.4086 14.633 17.2212C14.4339 17.0338 14.4244 16.7204 14.6118 16.5213L16.2728 14.7564L14.6118 12.9916ZM9.39157 12.9916L7.73051 14.7564L9.39157 16.5213C9.57897 16.7204 9.56948 17.0337 9.37036 17.2212C9.17124 17.4086 8.8579 17.3991 8.6705 17.1999L6.69007 15.0957C6.51065 14.9051 6.51065 14.6077 6.69007 14.4171L8.6705 12.3129C8.8579 12.1138 9.17124 12.1043 9.37036 12.2917C9.56948 12.4791 9.57897 12.7924 9.39157 12.9916ZM13.0275 10.8141C13.2916 10.8849 13.4484 11.1563 13.3776 11.4205L11.5836 18.1158C11.5128 18.3799 11.2413 18.5366 10.9772 18.4659C10.7131 18.3951 10.5563 18.1236 10.6271 17.8595L12.4211 11.1642C12.4919 10.9001 12.7634 10.7433 13.0275 10.8141Z" fill="currentColor"/>
</svg>
