<svg width="470" height="320" viewBox="0 0 470 320" fill="none" xmlns="http://www.w3.org/2000/svg">
<path d="M454.582 268.486C449.948 284.556 436.417 295.805 422.302 305.36C420.331 306.695 418.36 307.999 416.388 309.272C416.374 309.278 416.361 309.29 416.347 309.296C416.252 309.357 416.157 309.418 416.069 309.48C415.662 309.742 415.255 310.004 414.851 310.263L415.073 310.363C415.073 310.363 415.29 310.479 415.052 310.382C414.981 310.352 414.907 310.325 414.836 310.295C406.636 306.99 398.291 303.44 392.007 297.248C385.489 290.817 381.679 280.731 385.209 272.283C385.673 271.176 386.259 270.125 386.956 269.148C387.242 268.739 387.551 268.347 387.872 267.962C389.819 265.587 392.364 263.773 395.245 262.706C398.126 261.64 401.239 261.36 404.264 261.895C407.289 262.43 410.117 263.761 412.457 265.75C414.797 267.74 416.565 270.317 417.578 273.216C418.615 263.565 410.654 255.481 402.992 249.516C395.327 243.554 386.618 237.061 385.136 227.464C384.309 222.124 386.166 216.949 389.55 212.795C389.655 212.669 389.76 212.543 389.867 212.42C393.987 207.582 399.781 204.475 406.091 203.72C417.845 202.499 429.261 208.717 437.8 216.886C451.542 230.028 459.85 250.215 454.582 268.486Z" fill="#16C995"/>
<path d="M432.49 247.468C434.746 250.976 436.478 254.794 437.631 258.801C438.606 262.383 439.04 266.091 438.919 269.801C438.604 277.436 436.46 284.883 432.666 291.517C429.809 296.55 426.326 301.202 422.302 305.361C420.331 306.696 418.36 308 416.388 309.273C416.374 309.279 416.36 309.291 416.347 309.297C416.252 309.358 416.157 309.419 416.069 309.48C415.662 309.743 415.254 310.005 414.851 310.264C414.851 310.264 415.29 310.48 415.052 310.382C414.981 310.353 414.907 310.326 414.836 310.296C415.571 304.274 414.851 298.162 412.737 292.475C410.622 286.788 407.175 281.69 402.683 277.609C398.181 273.589 392.792 270.691 386.956 269.149C387.242 268.74 387.551 268.348 387.872 267.963C390.126 268.595 392.319 269.424 394.427 270.442C401.962 274.059 408.131 280.005 412.022 287.399C415.514 294.113 417.017 301.684 416.354 309.222C416.691 308.917 417.028 308.605 417.355 308.296C423.586 302.489 429.121 295.824 432.866 288.132C436.115 281.618 437.712 274.405 437.516 267.129C437.211 259.194 434.048 251.845 429.469 245.448C424.451 238.622 418.522 232.515 411.848 227.295C405.122 221.91 397.762 217.368 389.932 213.77C389.756 213.688 389.618 213.541 389.546 213.36C389.475 213.178 389.477 212.976 389.55 212.796C389.602 212.634 389.716 212.499 389.867 212.421C389.945 212.387 390.029 212.372 390.114 212.376C390.199 212.379 390.281 212.402 390.356 212.442C391.323 212.887 392.283 213.337 393.235 213.808C401.167 217.727 408.581 222.615 415.307 228.361C421.804 233.898 427.92 240.224 432.49 247.468Z" fill="white"/>
<path d="M266.742 173.203C267.701 172.855 268.572 172.302 269.294 171.581C270.016 170.86 270.571 169.99 270.92 169.032C271.269 168.074 271.404 167.051 271.315 166.035C271.225 165.019 270.914 164.035 270.404 163.153L286.614 144.393L273.835 142.73L260.4 160.8C258.974 161.756 257.947 163.202 257.516 164.863C257.085 166.525 257.278 168.288 258.06 169.817C258.841 171.345 260.157 172.535 261.757 173.159C263.357 173.783 265.131 173.798 266.741 173.203H266.742Z" fill="#FFB8B8"/>
<path d="M358.113 177.167C358.785 176.4 359.282 175.495 359.567 174.516C359.851 173.537 359.918 172.507 359.762 171.499C359.606 170.492 359.23 169.53 358.662 168.683C358.094 167.836 357.347 167.124 356.473 166.597L361.626 142.35L349.629 147.052L346.575 169.357C345.786 170.882 345.584 172.643 346.008 174.307C346.432 175.971 347.451 177.422 348.873 178.385C350.296 179.347 352.022 179.755 353.725 179.531C355.427 179.306 356.989 178.465 358.113 177.167Z" fill="#FFB8B8"/>
<path d="M300.052 303.536L291.544 303.535L287.497 270.732L300.054 270.733L300.052 303.536Z" fill="#FFB8B8"/>
<path d="M302.222 311.781L274.789 311.78V311.433C274.789 310.031 275.065 308.643 275.601 307.348C276.138 306.053 276.924 304.877 277.916 303.886C278.908 302.895 280.085 302.108 281.38 301.572C282.676 301.036 284.064 300.76 285.466 300.76H285.467L302.222 300.76L302.222 311.781Z" fill="#374151"/>
<path d="M341.691 303.536L333.183 303.535L329.135 270.732L341.692 270.733L341.691 303.536Z" fill="#FFB8B8"/>
<path d="M343.86 311.781L316.427 311.78V311.433C316.427 310.031 316.703 308.643 317.24 307.348C317.777 306.053 318.563 304.877 319.555 303.886C320.546 302.895 321.723 302.108 323.019 301.572C324.314 301.036 325.703 300.76 327.105 300.76H327.106L343.861 300.76L343.86 311.781Z" fill="#374151"/>
<path d="M300.938 286.407L288.895 285.925C288.073 285.89 287.298 285.533 286.738 284.932C286.177 284.33 285.876 283.533 285.898 282.711L289.291 171.459L289.513 171.379C310.621 163.747 328.083 164.324 342.898 173.141L343.063 173.24L345.096 281.595C345.104 282.009 345.029 282.422 344.875 282.807C344.722 283.193 344.493 283.544 344.203 283.84C343.912 284.136 343.565 284.371 343.182 284.532C342.8 284.693 342.389 284.775 341.974 284.775H331.818C331.095 284.774 330.394 284.522 329.835 284.063C329.277 283.604 328.894 282.965 328.753 282.256L314.919 211.91C314.871 211.667 314.738 211.449 314.544 211.295C314.35 211.141 314.107 211.062 313.859 211.071C313.612 211.08 313.375 211.177 313.193 211.345C313.011 211.513 312.894 211.74 312.864 211.986L304.163 283.664C304.068 284.42 303.7 285.115 303.129 285.62C302.559 286.125 301.824 286.406 301.062 286.409C301.021 286.409 300.98 286.408 300.938 286.407Z" fill="#374151"/>
<path d="M312.655 73.8953C322.069 73.8953 329.7 66.2674 329.7 56.8578C329.7 47.4483 322.069 39.8203 312.655 39.8203C303.242 39.8203 295.61 47.4483 295.61 56.8578C295.61 66.2674 303.242 73.8953 312.655 73.8953Z" fill="#FFB8B8"/>
<path d="M272.501 159.662C271.91 159.428 271.404 159.02 271.051 158.492L267.757 153.566C267.402 153.032 267.219 152.402 267.234 151.76C267.249 151.119 267.46 150.498 267.84 149.98L281.117 131.967L289.435 92.0727C289.913 90.8406 290.63 89.7148 291.543 88.7597C292.457 87.8047 293.55 87.039 294.761 86.5066C295.971 85.9741 297.274 85.6853 298.596 85.6567C299.917 85.628 301.232 85.8601 302.464 86.3396C303.696 86.8192 304.821 87.5367 305.776 88.4513C306.73 89.3659 307.495 90.4596 308.026 91.6698C308.557 92.88 308.845 94.183 308.872 95.5043C308.899 96.8256 308.665 98.1392 308.184 99.3702L304.253 124.76C303.061 132.466 299.109 139.477 293.133 144.489L275.655 159.149C275.318 159.431 274.927 159.639 274.505 159.759C274.083 159.88 273.641 159.91 273.206 159.848C272.965 159.814 272.728 159.751 272.501 159.662Z" fill="#6366F1"/>
<path d="M357.385 161.468C356.787 161.684 356.137 161.712 355.523 161.549L349.795 160.026C349.175 159.86 348.621 159.507 348.208 159.016C347.795 158.525 347.543 157.919 347.486 157.28L345.546 134.99L325.419 99.5505C324.964 98.3099 324.758 96.9918 324.813 95.6716C324.868 94.3514 325.183 93.0549 325.739 91.8563C326.296 90.6577 327.083 89.5805 328.056 88.6862C329.029 87.7919 330.169 87.0981 331.411 86.6445C332.652 86.1908 333.971 85.9862 335.292 86.0423C336.613 86.0984 337.909 86.4141 339.108 86.9714C340.306 87.5287 341.383 88.3167 342.277 89.2903C343.171 90.2639 343.864 91.404 344.317 92.6455L358.148 114.3C362.347 120.872 364.015 128.744 362.842 136.453L359.413 159.001C359.347 159.435 359.19 159.849 358.953 160.218C358.716 160.587 358.404 160.902 358.037 161.143C357.834 161.277 357.615 161.386 357.385 161.468Z" fill="#6366F1"/>
<path d="M294.012 87.114C296.939 83.9048 300.551 81.3936 304.579 79.7656C308.607 78.1376 312.949 77.4345 317.286 77.708C317.571 77.7256 317.855 77.7455 318.137 77.7676H318.138C322.248 78.0924 326.241 79.2906 329.85 81.282C333.46 83.2733 336.602 86.012 339.068 89.315C341.574 92.664 343.337 96.5094 344.237 100.594C345.138 104.679 345.156 108.908 344.29 113C340.985 128.639 341.821 144.868 346.716 160.085L351.289 174.277C351.435 174.731 351.476 175.214 351.406 175.686C351.337 176.159 351.16 176.61 350.889 177.003C350.618 177.397 350.26 177.723 349.843 177.956C349.426 178.19 348.961 178.324 348.484 178.35L325.107 179.606L319.125 169.277V179.928L290.713 181.454C290.656 181.458 290.6 181.459 290.544 181.459C290.113 181.459 289.687 181.37 289.292 181.197C288.897 181.024 288.542 180.771 288.25 180.454C287.958 180.137 287.734 179.763 287.593 179.356C287.453 178.949 287.398 178.517 287.433 178.087L290.644 138.282L286.616 111.248C285.964 106.928 286.29 102.518 287.57 98.3408C288.85 94.1639 291.051 90.3274 294.012 87.114Z" fill="#6366F1"/>
<path d="M324.501 73.1236C322.923 74.0312 316.685 74.633 316.241 72.8681L316.232 72.8294C315.922 71.5363 316.179 70.186 316.268 68.8594C316.357 67.5328 316.227 66.0754 315.323 65.1001C313.638 63.2818 310.64 64.2457 308.204 63.786C306.777 63.4675 305.515 62.6402 304.654 61.4588C303.793 60.2774 303.392 58.8228 303.526 57.3674C303.561 57.0916 303.616 56.8156 303.677 56.5397C303.829 55.8407 303.817 55.1159 303.642 54.4223C303.467 53.7286 303.134 53.0849 302.668 52.5417C302.202 51.9986 301.617 51.5707 300.958 51.2917C300.299 51.0127 299.584 50.8903 298.87 50.9339C296.407 51.0746 293.749 51.8203 291.712 49.9973C290.137 48.5876 289.752 44.918 290.445 42.9209C291.608 39.5646 299.059 37.8076 302.313 36.8417C306.337 35.6796 310.569 35.4283 314.702 36.1062C318.835 36.7841 322.765 38.3741 326.207 40.7607C328.262 42.2085 330.181 44.0278 331.057 46.3835C331.932 48.7392 331.51 51.7111 329.535 53.2662C331.066 54.8864 332.144 56.8804 332.661 59.0482C333.178 61.2161 333.116 63.4817 332.482 65.6182C331.506 68.7602 326.85 71.7725 324.501 73.1236Z" fill="#374151"/>
<path d="M469.306 312.001H164.651C164.467 312.001 164.291 311.928 164.161 311.797C164.03 311.667 163.957 311.491 163.957 311.307C163.957 311.123 164.03 310.947 164.161 310.816C164.291 310.686 164.467 310.613 164.651 310.613H469.306C469.49 310.613 469.667 310.686 469.797 310.816C469.927 310.947 470 311.123 470 311.307C470 311.491 469.927 311.667 469.797 311.797C469.667 311.928 469.49 312.001 469.306 312.001Z" fill="currentColor"/>
<path d="M211.647 250.298C211.188 250.275 210.725 250.262 210.259 250.262C203.265 250.262 196.558 253.039 191.612 257.982C186.667 262.926 183.888 269.631 183.888 276.622H211.647V250.298Z" fill="#6366F1"/>
<path d="M217.199 312C210.024 311.992 203.144 309.139 198.07 304.068C192.996 298.996 190.142 292.119 190.134 284.947C190.134 284.763 190.207 284.586 190.338 284.456C190.468 284.326 190.644 284.253 190.828 284.253H217.893V258.624C217.893 258.529 217.912 258.436 217.95 258.35C217.987 258.263 218.041 258.185 218.109 258.121C218.177 258.055 218.258 258.004 218.346 257.972C218.435 257.939 218.529 257.925 218.623 257.931C225.668 258.302 232.29 261.408 237.077 266.587C241.865 271.766 244.441 278.609 244.255 285.659C244.069 292.708 241.137 299.406 236.084 304.327C231.03 309.247 224.254 312 217.199 312V312ZM191.532 285.641C191.666 290.597 193.233 295.408 196.044 299.493C198.856 303.578 202.791 306.761 207.373 308.659C211.956 310.556 216.99 311.086 221.868 310.185C226.745 309.283 231.257 306.989 234.858 303.579C238.459 300.169 240.995 295.79 242.159 290.971C243.323 286.151 243.066 281.098 241.419 276.421C239.771 271.744 236.804 267.645 232.875 264.618C228.947 261.591 224.225 259.766 219.281 259.364V284.947C219.281 285.131 219.208 285.307 219.078 285.437C218.948 285.567 218.771 285.641 218.587 285.641H191.532Z" fill="currentColor"/>
<path d="M163.262 223.59H46.055C45.9143 223.59 45.7795 223.534 45.68 223.435C45.5805 223.335 45.5247 223.2 45.5247 223.06C45.5247 222.919 45.5805 222.784 45.68 222.685C45.7795 222.585 45.9143 222.529 46.055 222.529H163.262C163.403 222.529 163.538 222.585 163.637 222.685C163.736 222.784 163.792 222.919 163.792 223.06C163.792 223.2 163.736 223.335 163.637 223.435C163.538 223.534 163.403 223.59 163.262 223.59Z" fill="#E5E7EB"/>
<path d="M104.924 223.59C104.783 223.59 104.648 223.534 104.549 223.434C104.449 223.335 104.394 223.2 104.394 223.059V189.644C104.394 189.503 104.449 189.368 104.549 189.269C104.648 189.169 104.783 189.113 104.924 189.113C105.065 189.113 105.199 189.169 105.299 189.269C105.398 189.368 105.454 189.503 105.454 189.644V223.059C105.454 223.2 105.398 223.335 105.299 223.434C105.199 223.534 105.065 223.59 104.924 223.59Z" fill="#374151"/>
<path d="M138.336 223.591C138.195 223.591 138.06 223.535 137.961 223.436C137.862 223.337 137.806 223.202 137.806 223.061V156.23C137.806 156.089 137.862 155.954 137.961 155.855C138.06 155.755 138.195 155.699 138.336 155.699C138.477 155.699 138.612 155.755 138.711 155.855C138.81 155.954 138.866 156.089 138.866 156.23V223.061C138.866 223.202 138.81 223.337 138.711 223.436C138.612 223.535 138.477 223.591 138.336 223.591Z" fill="#374151"/>
<path d="M28.0233 162.064C31.2452 162.064 33.8571 159.451 33.8571 156.229C33.8571 153.007 31.2452 150.395 28.0233 150.395C24.8013 150.395 22.1895 153.007 22.1895 156.229C22.1895 159.451 24.8013 162.064 28.0233 162.064Z" fill="#E5E7EB"/>
<path d="M28.0233 195.479C31.2452 195.479 33.8571 192.867 33.8571 189.645C33.8571 186.423 31.2452 183.811 28.0233 183.811C24.8013 183.811 22.1895 186.423 22.1895 189.645C22.1895 192.867 24.8013 195.479 28.0233 195.479Z" fill="#E5E7EB"/>
<path d="M28.0233 228.896C31.2452 228.896 33.8571 226.283 33.8571 223.061C33.8571 219.839 31.2452 217.227 28.0233 217.227C24.8013 217.227 22.1895 219.839 22.1895 223.061C22.1895 226.283 24.8013 228.896 28.0233 228.896Z" fill="#E5E7EB"/>
<path d="M163.262 156.76H46.055C45.9143 156.76 45.7795 156.704 45.68 156.605C45.5805 156.505 45.5247 156.37 45.5247 156.23C45.5247 156.089 45.5805 155.954 45.68 155.855C45.7795 155.755 45.9143 155.699 46.055 155.699H163.262C163.403 155.699 163.538 155.755 163.637 155.855C163.736 155.954 163.792 156.089 163.792 156.23C163.792 156.37 163.736 156.505 163.637 156.605C163.538 156.704 163.403 156.76 163.262 156.76Z" fill="#E5E7EB"/>
<path d="M163.262 190.174H46.055C45.9143 190.174 45.7795 190.118 45.68 190.019C45.5805 189.919 45.5247 189.784 45.5247 189.644C45.5247 189.503 45.5805 189.368 45.68 189.269C45.7795 189.169 45.9143 189.113 46.055 189.113H163.262C163.403 189.113 163.538 189.169 163.637 189.269C163.736 189.368 163.792 189.503 163.792 189.644C163.792 189.784 163.736 189.919 163.637 190.019C163.538 190.118 163.403 190.174 163.262 190.174Z" fill="#E5E7EB"/>
<path d="M137.592 223.59H70.9815C70.8409 223.59 70.706 223.534 70.6065 223.435C70.5071 223.335 70.4512 223.2 70.4512 223.06C70.4512 222.919 70.5071 222.784 70.6065 222.685C70.706 222.585 70.8409 222.529 70.9815 222.529H137.592C137.733 222.529 137.868 222.585 137.967 222.685C138.067 222.784 138.123 222.919 138.123 223.06C138.123 223.2 138.067 223.335 137.967 223.435C137.868 223.534 137.733 223.59 137.592 223.59Z" fill="#374151"/>
<path d="M71.2467 228.896C74.4686 228.896 77.0805 226.283 77.0805 223.061C77.0805 219.839 74.4686 217.227 71.2467 217.227C68.0247 217.227 65.4128 219.839 65.4128 223.061C65.4128 226.283 68.0247 228.896 71.2467 228.896Z" fill="#6366F1"/>
<path d="M104.924 195.479C108.146 195.479 110.758 192.867 110.758 189.645C110.758 186.423 108.146 183.811 104.924 183.811C101.702 183.811 99.0901 186.423 99.0901 189.645C99.0901 192.867 101.702 195.479 104.924 195.479Z" fill="#6366F1"/>
<path d="M138.336 162.064C141.558 162.064 144.169 159.451 144.169 156.229C144.169 153.007 141.558 150.395 138.336 150.395C135.114 150.395 132.502 153.007 132.502 156.229C132.502 159.451 135.114 162.064 138.336 162.064Z" fill="#6366F1"/>
<path d="M138.336 195.479C141.558 195.479 144.169 192.867 144.169 189.645C144.169 186.423 141.558 183.811 138.336 183.811C135.114 183.811 132.502 186.423 132.502 189.645C132.502 192.867 135.114 195.479 138.336 195.479Z" fill="#6366F1"/>
<path d="M104.924 228.896C108.146 228.896 110.758 226.283 110.758 223.061C110.758 219.839 108.146 217.227 104.924 217.227C101.702 217.227 99.0901 219.839 99.0901 223.061C99.0901 226.283 101.702 228.896 104.924 228.896Z" fill="#6366F1"/>
<path d="M138.336 228.896C141.558 228.896 144.169 226.283 144.169 223.061C144.169 219.839 141.558 217.227 138.336 217.227C135.114 217.227 132.502 219.839 132.502 223.061C132.502 226.283 135.114 228.896 138.336 228.896Z" fill="#6366F1"/>
</svg>
