<svg width="570" height="408" viewBox="0 0 570 408" fill="none" xmlns="http://www.w3.org/2000/svg">
<path opacity="0.15" d="M140.681 76.2605C138.029 79.4592 137.008 83.9566 135.866 88.1847C126.672 122.26 104.016 149.668 78.215 169.245C67.2887 177.537 53.9864 188.658 56.3769 203.527C57.664 211.511 63.3111 217.389 67.5064 223.893C76.3085 237.51 79.1635 256.019 74.9681 272.321C70.1969 290.869 56.8608 308.176 60.9884 326.93C63.5337 338.474 72.176 346.69 80.4845 353.751C93.4464 364.76 106.821 375.073 120.609 384.69C129.851 391.136 139.684 397.408 150.456 398.226C159.94 398.947 169.231 395.364 178.236 391.828C186.104 388.735 194.171 385.517 200.524 379.322C204.671 375.277 207.976 370.058 212.583 366.748C223.403 358.975 237.3 363.901 249.707 367.229C278.983 375.041 310.315 372.189 338.173 359.177C380.906 339.215 413.477 297.295 455.275 274.803C473.247 265.13 492.797 259.127 509.438 246.669C518.813 239.575 526.87 230.909 533.245 221.059C545.827 201.766 552.63 177.167 550.665 153.088C548.701 129.008 537.692 105.804 520.403 92.2108C501.894 77.6602 478.517 74.9425 457.458 66.2073C435.721 57.1739 416.375 41.6565 394.847 31.9833C377.415 24.1686 358.445 20.3331 339.327 20.7584C320.21 21.1838 301.431 25.8591 284.369 34.4413C260.924 46.2261 237.17 73.7207 211.059 75.8083C192.458 77.2514 155.207 58.742 140.681 76.2605Z" fill="#6366F1"/>
<path d="M159.603 299.897C159.899 298.813 160.152 297.718 160.363 296.612C161.784 289.182 161.101 281.156 157.3 274.609C153.498 268.06 146.281 263.283 138.69 263.485C131.377 263.683 124.902 268.336 120.704 274.415C120.97 265.428 118.174 256.033 111.36 250.207C105.311 245.037 96.7895 243.324 88.8998 244.453C83.0755 245.285 77.5604 247.53 72.4622 250.506C70.6553 251.558 68.9031 252.702 67.2056 253.908C62.9562 256.927 58.7142 260.842 58.0522 266.001C57.4693 270.549 59.9006 275.037 63.1957 278.238C66.4926 281.442 70.6081 283.643 74.486 286.116C86.1889 293.6 95.9436 303.742 102.95 315.708C96.0105 309.013 88.9036 302.199 80.1727 298.083C71.44 293.965 60.6343 292.956 52.3505 297.906C47.0768 301.058 43.4215 306.386 41.7485 312.308C40.8738 315.384 40.5501 318.59 40.7922 321.778C41.5184 331.055 46.7505 339.629 53.8876 345.633C61.0229 351.635 69.9291 355.256 79.0334 357.343C87.7361 359.338 96.6782 360.011 105.59 360.617L106.82 360.702L105.703 363.212C124.563 351.949 140.348 336.235 151.666 317.457C152.36 316.302 153.039 315.131 153.692 313.948C153.818 313.719 153.945 313.489 154.069 313.258L159.499 300.273L159.511 300.232C159.543 300.12 159.575 300.01 159.603 299.897Z" fill="#16C995"/>
<path d="M112.332 321.859C116.778 321.469 120.886 321.014 125.194 319.799C129.371 318.622 133.39 316.652 136.363 313.434C139.561 309.973 141.287 305.479 142.505 301.005C143.184 298.51 143.742 295.981 144.268 293.451C144.84 290.705 145.347 287.948 145.791 285.178C146.675 279.665 147.306 274.12 147.684 268.542C147.729 267.865 147.771 267.188 147.809 266.51C147.833 266.092 147.18 266.094 147.157 266.51C146.846 272.008 146.287 277.485 145.481 282.94C144.685 288.3 143.666 293.637 142.374 298.901C141.279 303.36 139.862 307.889 137.054 311.601C134.421 315.082 130.618 317.356 126.512 318.717C122.334 320.101 117.928 320.653 113.562 321.064C113.026 321.114 112.868 321.162 112.332 321.209C111.916 321.246 111.913 321.896 112.332 321.859L112.332 321.859Z" fill="white"/>
<path d="M42.1253 312.787C47.7353 313.097 53.2883 314.072 58.6668 315.691C64.0476 317.306 69.2183 319.548 74.072 322.37C78.7618 325.098 83.1156 328.363 87.0448 332.098C90.8581 335.725 94.2566 339.762 97.1784 344.133C100.113 348.516 102.546 353.213 104.43 358.135C104.66 358.738 104.881 359.344 105.094 359.952C105.231 360.345 105.862 360.176 105.723 359.779C103.96 354.753 101.637 349.939 98.7956 345.429C95.9551 340.918 92.6214 336.735 88.8556 332.956C85.0295 329.119 80.7714 325.734 76.1657 322.869C66.4953 316.869 55.534 313.24 44.1818 312.278C43.497 312.221 42.8115 312.174 42.1253 312.137C41.7056 312.114 41.7069 312.765 42.1253 312.787L42.1253 312.787Z" fill="white"/>
<path d="M72.6385 251.268C76.2255 252.405 79.6254 254.06 82.7295 256.18C85.9014 258.362 88.7942 260.92 91.3439 263.8C94.0307 266.829 96.4194 270.108 98.4772 273.592C100.66 277.27 102.556 281.11 104.149 285.077C105.789 289.15 107.168 293.322 108.279 297.569C109.408 301.866 110.29 306.224 110.92 310.621C111.547 314.971 111.927 319.354 112.057 323.747C112.188 327.948 112.063 332.153 111.684 336.338C111.336 340.244 110.702 344.118 109.786 347.931C108.972 351.374 107.825 354.731 106.361 357.955C106.022 358.686 105.663 359.408 105.282 360.119C105.085 360.488 105.648 360.817 105.846 360.447C107.463 357.368 108.755 354.13 109.7 350.785C110.76 347.062 111.528 343.262 111.998 339.42C112.519 335.251 112.773 331.054 112.757 326.853C112.748 322.44 112.484 318.032 111.968 313.649C111.451 309.211 110.683 304.806 109.668 300.455C108.656 296.096 107.372 291.804 105.824 287.605C104.332 283.539 102.546 279.587 100.479 275.78C98.51 272.146 96.2159 268.697 93.6242 265.475C91.1629 262.407 88.3529 259.633 85.2505 257.21C82.2589 254.88 78.9531 252.98 75.4303 251.568C74.5694 251.226 73.6967 250.918 72.812 250.642C72.4104 250.516 72.2386 251.143 72.6385 251.268H72.6385Z" fill="white"/>
<path d="M247.086 242.028L159.62 260.417C157.092 260.945 154.458 260.452 152.294 259.045C150.131 257.639 148.615 255.434 148.079 252.914L133.07 181.891C132.54 179.37 133.035 176.743 134.445 174.585C135.855 172.427 138.066 170.915 140.593 170.381L228.059 151.992C230.586 151.464 233.221 151.957 235.384 153.363C237.548 154.77 239.064 156.975 239.599 159.495L254.608 230.517C255.138 233.038 254.644 235.666 253.233 237.824C251.823 239.982 249.612 241.494 247.086 242.028V242.028ZM140.829 171.499C138.6 171.97 136.649 173.304 135.405 175.209C134.16 177.113 133.724 179.431 134.192 181.656L149.201 252.678C149.673 254.901 151.011 256.847 152.92 258.088C154.829 259.329 157.153 259.764 159.384 259.298L246.85 240.91C249.079 240.438 251.029 239.104 252.274 237.2C253.518 235.296 253.954 232.977 253.487 230.753L238.478 159.731C238.005 157.507 236.668 155.562 234.759 154.321C232.85 153.079 230.525 152.644 228.295 153.111L140.829 171.499Z" fill="currentColor"/>
<path d="M222.624 175.409L178.481 184.69C178.095 184.779 177.689 184.719 177.346 184.521C177.002 184.324 176.747 184.003 176.631 183.625C176.578 183.428 176.566 183.222 176.595 183.02C176.625 182.818 176.695 182.624 176.802 182.45C176.91 182.276 177.051 182.125 177.219 182.008C177.386 181.89 177.576 181.807 177.776 181.765L222.711 172.318C224.465 173.305 223.911 175.139 222.624 175.41L222.624 175.409Z" fill="#D1D5DB"/>
<path d="M224.256 183.134L180.114 192.415C179.727 192.504 179.321 192.444 178.978 192.246C178.634 192.048 178.379 191.728 178.263 191.35C178.21 191.152 178.198 190.946 178.228 190.744C178.257 190.542 178.328 190.348 178.435 190.174C178.542 190 178.684 189.85 178.851 189.732C179.018 189.614 179.208 189.532 179.408 189.49L224.343 180.043C226.098 181.029 225.543 182.864 224.256 183.134L224.256 183.134Z" fill="#D1D5DB"/>
<path d="M171.5 198.818L158.028 201.65C157.588 201.742 157.13 201.656 156.753 201.411C156.376 201.167 156.113 200.783 156.02 200.344L152.668 184.487C152.576 184.048 152.662 183.591 152.908 183.215C153.153 182.84 153.538 182.576 153.978 182.483L167.45 179.651C167.89 179.559 168.348 179.645 168.725 179.89C169.101 180.135 169.365 180.519 169.459 180.957L172.81 196.814C172.902 197.253 172.816 197.71 172.57 198.086C172.325 198.462 171.94 198.725 171.5 198.818V198.818Z" fill="#D1D5DB"/>
<path d="M227.47 198.972L160.1 213.136C159.713 213.225 159.307 213.165 158.964 212.967C158.62 212.77 158.365 212.449 158.249 212.071C158.196 211.874 158.184 211.668 158.214 211.466C158.243 211.264 158.314 211.07 158.421 210.895C158.528 210.721 158.67 210.571 158.837 210.453C159.004 210.336 159.194 210.253 159.394 210.211L227.557 195.881C229.312 196.867 228.757 198.701 227.47 198.972Z" fill="#D1D5DB"/>
<path d="M229.102 206.699L161.732 220.862C161.346 220.952 160.94 220.892 160.596 220.694C160.253 220.496 159.997 220.176 159.882 219.798C159.829 219.6 159.817 219.394 159.846 219.192C159.876 218.99 159.946 218.796 160.053 218.622C160.16 218.448 160.302 218.298 160.469 218.18C160.637 218.062 160.826 217.98 161.027 217.938L229.189 203.607C230.944 204.594 230.389 206.428 229.102 206.699Z" fill="#D1D5DB"/>
<path d="M230.734 214.419L163.363 228.583C162.977 228.672 162.571 228.612 162.228 228.415C161.884 228.217 161.629 227.897 161.513 227.518C161.46 227.321 161.448 227.115 161.477 226.913C161.507 226.711 161.577 226.517 161.685 226.343C161.792 226.169 161.933 226.018 162.101 225.901C162.268 225.783 162.458 225.701 162.658 225.658L230.821 211.328C232.575 212.314 232.021 214.149 230.734 214.419H230.734Z" fill="#D1D5DB"/>
<path d="M232.366 222.142L164.996 236.306C164.61 236.395 164.204 236.335 163.86 236.137C163.517 235.94 163.261 235.619 163.146 235.241C163.093 235.044 163.081 234.838 163.11 234.636C163.14 234.433 163.21 234.239 163.317 234.065C163.425 233.891 163.566 233.741 163.734 233.623C163.901 233.506 164.091 233.423 164.291 233.381L232.454 219.051C234.208 220.037 233.654 221.871 232.366 222.142Z" fill="#D1D5DB"/>
<path d="M233.998 229.863L166.627 244.026C166.241 244.116 165.835 244.056 165.492 243.858C165.148 243.66 164.893 243.34 164.777 242.962C164.724 242.764 164.712 242.558 164.742 242.356C164.771 242.154 164.842 241.96 164.949 241.786C165.056 241.612 165.197 241.462 165.365 241.344C165.532 241.226 165.722 241.144 165.922 241.102L234.085 226.771C235.839 227.758 235.285 229.592 233.998 229.863Z" fill="#D1D5DB"/>
<path d="M244.744 194.506C244.591 194.783 244.46 195.071 244.353 195.369L216.772 202.195L211.974 197.245L203.537 203.49L211.177 213.078C211.794 213.853 212.646 214.407 213.606 214.657C214.566 214.907 215.581 214.84 216.499 214.466L246.427 202.268C247.41 202.99 248.591 203.397 249.812 203.433C251.033 203.47 252.236 203.135 253.261 202.473C254.287 201.811 255.086 200.853 255.552 199.727C256.018 198.601 256.129 197.36 255.871 196.169C255.613 194.978 254.998 193.894 254.107 193.061C253.216 192.227 252.092 191.684 250.884 191.504C249.676 191.323 248.441 191.514 247.345 192.05C246.248 192.586 245.341 193.443 244.744 194.506L244.744 194.506Z" fill="#FFB8B8"/>
<path d="M150.602 255.253C151.462 254.988 152.253 254.539 152.92 253.936C153.587 253.333 154.113 252.592 154.461 251.764C154.81 250.936 154.972 250.043 154.937 249.146C154.902 248.249 154.67 247.371 154.257 246.573L173.237 193.955L160.056 191.625L145.544 244.079C144.246 244.859 143.28 246.087 142.83 247.53C142.379 248.972 142.474 250.53 143.097 251.907C143.721 253.284 144.829 254.386 146.213 255.002C147.596 255.619 149.158 255.708 150.602 255.253Z" fill="#FFB8B8"/>
<path d="M170.827 203.296L157.813 198.314C157.442 198.172 157.107 197.953 156.829 197.67C156.552 197.387 156.339 197.048 156.205 196.676C156.07 196.304 156.018 195.907 156.051 195.513C156.085 195.119 156.203 194.736 156.397 194.392L163.225 182.318C163.963 180.433 165.42 178.917 167.277 178.102C169.135 177.287 171.24 177.24 173.132 177.971C175.024 178.701 176.548 180.15 177.371 182C178.194 183.85 178.248 185.949 177.521 187.839L174.51 201.325C174.423 201.711 174.254 202.074 174.015 202.389C173.775 202.705 173.47 202.965 173.121 203.152C172.771 203.339 172.385 203.448 171.99 203.473C171.594 203.498 171.197 203.438 170.827 203.296V203.296Z" fill="#6366F1"/>
<path d="M200.202 354.042H207.226L210.568 327.016L200.2 327.016L200.202 354.042Z" fill="#FFB8B8"/>
<path d="M198.409 351.754L212.244 351.754H212.244C213.402 351.754 214.549 351.981 215.618 352.423C216.688 352.865 217.66 353.513 218.479 354.329C219.297 355.146 219.947 356.115 220.39 357.182C220.833 358.249 221.061 359.393 221.061 360.547V360.833L198.41 360.834L198.409 351.754Z" fill="#374151"/>
<path d="M160.665 354.042H167.689L171.031 327.016L160.664 327.016L160.665 354.042Z" fill="#FFB8B8"/>
<path d="M158.873 351.754L172.707 351.754H172.708C173.865 351.754 175.012 351.981 176.081 352.423C177.151 352.865 178.123 353.513 178.942 354.329C179.76 355.146 180.41 356.115 180.853 357.182C181.296 358.249 181.524 359.393 181.524 360.547V360.833L158.873 360.834L158.873 351.754Z" fill="#374151"/>
<path d="M168.029 343.165H159.139C158.79 343.164 158.445 343.094 158.124 342.957C157.804 342.82 157.514 342.619 157.273 342.367C157.032 342.116 156.845 341.818 156.723 341.492C156.602 341.165 156.547 340.818 156.564 340.47L160.786 249.981L161.052 249.974L203.981 248.857L212.381 339.399C212.414 339.738 212.378 340.081 212.276 340.406C212.175 340.732 212.009 341.034 211.79 341.295C211.57 341.556 211.3 341.771 210.997 341.928C210.693 342.084 210.361 342.178 210.02 342.206L200.035 343.002C199.408 343.052 198.784 342.871 198.281 342.494C197.778 342.117 197.43 341.57 197.303 340.955L184.531 276.501C184.496 276.305 184.392 276.129 184.238 276.003C184.083 275.877 183.889 275.811 183.689 275.816H183.686C183.486 275.811 183.291 275.879 183.137 276.006C182.982 276.133 182.879 276.311 182.846 276.508L170.559 341.089C170.443 341.674 170.127 342.2 169.666 342.578C169.205 342.956 168.626 343.163 168.029 343.165Z" fill="#374151"/>
<path d="M184.313 169.275C192.086 169.275 198.387 162.991 198.387 155.238C198.387 147.486 192.086 141.201 184.313 141.201C176.541 141.201 170.24 147.486 170.24 155.238C170.24 162.991 176.541 169.275 184.313 169.275Z" fill="#FFB8B8"/>
<path d="M179.595 260.584C172.887 260.584 165.997 258.825 160.286 253.626C159.982 253.351 159.747 253.009 159.601 252.626C159.454 252.244 159.401 251.833 159.444 251.426C160.055 245.947 163.02 217.66 161.35 198.764C161.024 195.235 161.525 191.678 162.814 188.375C164.102 185.071 166.142 182.112 168.774 179.73C171.359 177.353 174.463 175.609 177.84 174.633C181.217 173.658 184.776 173.479 188.234 174.11H188.234C188.41 174.141 188.585 174.174 188.76 174.207C200.027 176.382 207.856 186.783 206.97 198.4C205.677 215.352 204.519 238.28 206.338 251.247C206.414 251.778 206.321 252.318 206.073 252.794C205.824 253.269 205.433 253.655 204.954 253.897C200.815 255.983 190.443 260.584 179.595 260.584Z" fill="#6366F1"/>
<path d="M197.959 204.306C197.628 204.086 197.349 203.799 197.141 203.462C196.932 203.126 196.799 202.748 196.75 202.356L195.035 188.645C194.491 186.695 194.744 184.61 195.739 182.846C196.734 181.082 198.39 179.783 200.343 179.235C202.296 178.687 204.388 178.933 206.159 179.921C207.931 180.908 209.237 182.556 209.792 184.503L215.44 197.168C215.601 197.53 215.682 197.922 215.678 198.317C215.674 198.713 215.584 199.103 215.415 199.461C215.246 199.819 215.001 200.136 214.698 200.391C214.395 200.646 214.04 200.833 213.658 200.939L200.229 204.666C199.846 204.773 199.446 204.796 199.054 204.733C198.662 204.671 198.289 204.525 197.959 204.306Z" fill="#6366F1"/>
<path d="M178.51 168.757C179.242 169.079 180.741 163.214 180.07 162.041C179.071 160.296 179.13 160.308 178.467 159.154C177.804 158 177.656 156.42 178.514 155.404C179.373 154.389 181.359 154.523 181.751 155.797C181.499 153.378 183.878 151.434 186.234 150.887C188.591 150.341 191.077 150.68 193.446 150.194C196.196 149.63 199.057 147.311 197.96 144.27C197.771 143.764 197.49 143.298 197.129 142.897C195.861 141.464 194.088 140.852 192.355 140.26C188.748 139.029 185.042 137.782 181.236 137.918C178.1 138.083 175.079 139.164 172.544 141.029C170.009 142.893 168.07 145.46 166.963 148.416C166.7 149.155 166.497 149.915 166.355 150.687C165.049 157.752 169.128 164.72 175.754 167.411L178.51 168.757Z" fill="#374151"/>
<path d="M374.334 149.909H284.946C282.364 149.906 279.888 148.881 278.062 147.06C276.235 145.239 275.208 142.769 275.205 140.193V67.6103C275.208 65.0344 276.235 62.5649 278.062 60.7434C279.888 58.922 282.364 57.8974 284.946 57.8945H374.334C376.917 57.8974 379.393 58.922 381.219 60.7434C383.045 62.5649 384.072 65.0344 384.075 67.6103V140.193C384.072 142.769 383.045 145.239 381.219 147.06C379.393 148.881 376.917 149.906 374.334 149.909V149.909ZM284.946 59.0376C282.668 59.0401 280.483 59.9442 278.872 61.5513C277.26 63.1585 276.354 65.3375 276.351 67.6103V140.193C276.354 142.466 277.26 144.645 278.872 146.252C280.483 147.859 282.668 148.763 284.946 148.766H374.334C376.613 148.763 378.798 147.859 380.409 146.252C382.02 144.645 382.927 142.466 382.929 140.193V67.6103C382.927 65.3375 382.02 63.1585 380.409 61.5513C378.798 59.9442 376.613 59.0401 374.334 59.0376H284.946Z" fill="currentColor"/>
<path d="M364.174 79.6923H319.061C318.665 79.7003 318.28 79.5579 317.985 79.2938C317.689 79.0298 317.506 78.6637 317.471 78.2698C317.46 78.0658 317.49 77.8618 317.561 77.6701C317.632 77.4784 317.741 77.3031 317.882 77.1548C318.023 77.0066 318.192 76.8885 318.38 76.8079C318.568 76.7272 318.771 76.6856 318.976 76.6855H364.898C366.411 78.0115 365.489 79.6923 364.173 79.6923L364.174 79.6923Z" fill="#D1D5DB"/>
<path d="M364.174 87.5849H319.061C318.665 87.5929 318.28 87.4505 317.985 87.1864C317.689 86.9223 317.506 86.5563 317.471 86.1623C317.46 85.9584 317.49 85.7544 317.561 85.5627C317.632 85.371 317.741 85.1957 317.882 85.0474C318.023 84.8992 318.192 84.7811 318.38 84.7004C318.568 84.6197 318.771 84.5781 318.976 84.5781H364.898C366.411 85.904 365.489 87.5849 364.173 87.5849L364.174 87.5849Z" fill="#D1D5DB"/>
<path d="M309.309 92.0779H295.541C295.091 92.0774 294.66 91.8991 294.342 91.582C294.024 91.265 293.846 90.8351 293.845 90.3867V74.1814C293.846 73.733 294.024 73.3031 294.342 72.9861C294.66 72.669 295.091 72.4907 295.541 72.4902H309.309C309.758 72.4908 310.189 72.6692 310.507 72.9862C310.825 73.3032 311.004 73.733 311.004 74.1814V90.3867C311.004 90.8351 310.825 91.265 310.507 91.582C310.189 91.8991 309.758 92.0774 309.309 92.0779V92.0779Z" fill="currentColor"/>
<path d="M364.043 103.745H295.192C294.796 103.753 294.411 103.611 294.116 103.347C293.821 103.082 293.637 102.716 293.602 102.322C293.591 102.119 293.622 101.915 293.692 101.723C293.763 101.531 293.872 101.356 294.013 101.208C294.154 101.059 294.323 100.941 294.511 100.861C294.7 100.78 294.902 100.738 295.107 100.738H364.767C366.28 102.064 365.358 103.745 364.043 103.745V103.745Z" fill="#D1D5DB"/>
<path d="M364.043 111.64H295.192C294.796 111.648 294.411 111.505 294.116 111.241C293.821 110.977 293.637 110.611 293.602 110.217C293.591 110.013 293.622 109.809 293.692 109.617C293.763 109.426 293.872 109.25 294.013 109.102C294.154 108.954 294.323 108.836 294.511 108.755C294.7 108.674 294.902 108.633 295.107 108.633H364.767C366.28 109.959 365.358 111.64 364.043 111.64V111.64Z" fill="#D1D5DB"/>
<path d="M364.043 119.53H295.192C294.796 119.538 294.411 119.396 294.116 119.132C293.821 118.868 293.637 118.502 293.602 118.108C293.591 117.904 293.622 117.7 293.692 117.508C293.763 117.316 293.872 117.141 294.013 116.993C294.154 116.845 294.323 116.726 294.511 116.646C294.7 116.565 294.902 116.523 295.107 116.523H364.767C366.28 117.849 365.358 119.53 364.043 119.53V119.53Z" fill="#D1D5DB"/>
<path d="M364.043 127.425H295.192C294.796 127.433 294.411 127.29 294.116 127.026C293.821 126.762 293.637 126.396 293.602 126.002C293.591 125.798 293.622 125.594 293.692 125.403C293.763 125.211 293.872 125.036 294.013 124.887C294.154 124.739 294.323 124.621 294.511 124.54C294.7 124.46 294.902 124.418 295.107 124.418H364.767C366.28 125.744 365.358 127.425 364.043 127.425V127.425Z" fill="#D1D5DB"/>
<path d="M364.043 135.313H295.192C294.796 135.321 294.411 135.179 294.116 134.915C293.821 134.651 293.637 134.285 293.602 133.891C293.591 133.687 293.622 133.483 293.692 133.291C293.763 133.1 293.872 132.924 294.013 132.776C294.154 132.628 294.323 132.51 294.511 132.429C294.7 132.348 294.902 132.307 295.107 132.307H364.767C366.28 133.633 365.358 135.313 364.043 135.313Z" fill="#D1D5DB"/>
<path d="M354.852 50.4668C355.612 50.4677 356.34 50.769 356.877 51.3047C357.414 51.8404 357.717 52.5668 357.717 53.3244V62.4687C357.717 63.2263 357.414 63.9526 356.877 64.4883C356.34 65.024 355.612 65.3254 354.852 65.3262H304.428C303.669 65.3254 302.941 65.024 302.404 64.4883C301.866 63.9526 301.564 63.2263 301.563 62.4687V53.3244C301.564 52.5668 301.866 51.8404 302.404 51.3047C302.941 50.769 303.669 50.4677 304.428 50.4668" fill="#6366F1"/>
<path d="M503.259 239.637H413.871C411.289 239.635 408.813 238.61 406.986 236.789C405.16 234.967 404.133 232.498 404.13 229.922V157.339C404.133 154.763 405.16 152.293 406.986 150.472C408.813 148.651 411.289 147.626 413.871 147.623H503.259C505.842 147.626 508.318 148.651 510.144 150.472C511.97 152.293 512.997 154.763 513 157.339V229.922C512.997 232.498 511.97 234.967 510.144 236.789C508.318 238.61 505.842 239.635 503.259 239.637ZM413.871 148.766C411.592 148.769 409.408 149.673 407.796 151.28C406.185 152.887 405.279 155.066 405.276 157.339V229.922C405.279 232.194 406.185 234.373 407.796 235.981C409.408 237.588 411.592 238.492 413.871 238.494H503.259C505.538 238.492 507.722 237.588 509.334 235.981C510.945 234.373 511.851 232.194 511.854 229.922V157.339C511.851 155.066 510.945 152.887 509.334 151.28C507.722 149.673 505.538 148.769 503.259 148.766H413.871Z" fill="currentColor"/>
<path d="M493.099 169.421H447.986C447.589 169.429 447.205 169.286 446.909 169.022C446.614 168.758 446.431 168.392 446.395 167.998C446.384 167.794 446.415 167.59 446.486 167.399C446.557 167.207 446.666 167.032 446.807 166.883C446.947 166.735 447.117 166.617 447.305 166.536C447.493 166.456 447.696 166.414 447.901 166.414H493.823C495.336 167.74 494.414 169.421 493.098 169.421H493.099Z" fill="currentColor"/>
<path d="M493.099 177.313H447.986C447.589 177.321 447.205 177.179 446.909 176.915C446.614 176.651 446.431 176.285 446.395 175.891C446.384 175.687 446.415 175.483 446.486 175.291C446.557 175.1 446.666 174.924 446.807 174.776C446.947 174.628 447.117 174.51 447.305 174.429C447.493 174.348 447.696 174.307 447.901 174.307H493.823C495.336 175.633 494.414 177.313 493.098 177.313H493.099Z" fill="currentColor"/>
<path d="M438.234 181.806H424.466C424.016 181.806 423.585 181.628 423.267 181.311C422.949 180.994 422.77 180.564 422.77 180.115V163.91C422.77 163.462 422.949 163.032 423.267 162.715C423.585 162.398 424.016 162.219 424.466 162.219H438.234C438.683 162.219 439.114 162.398 439.432 162.715C439.75 163.032 439.929 163.462 439.929 163.91V180.115C439.929 180.564 439.75 180.994 439.432 181.311C439.114 181.628 438.683 181.806 438.234 181.806Z" fill="#D1D5DB"/>
<path d="M492.668 225.813H478.9C478.451 225.813 478.02 225.635 477.702 225.318C477.384 225.001 477.205 224.571 477.205 224.122V214.775C477.205 214.327 477.384 213.897 477.702 213.58C478.02 213.263 478.451 213.084 478.9 213.084H492.668C493.118 213.085 493.549 213.263 493.867 213.58C494.184 213.897 494.363 214.327 494.364 214.775V224.122C494.363 224.571 494.185 225.001 493.867 225.318C493.549 225.635 493.118 225.813 492.668 225.813V225.813Z" fill="currentColor"/>
<path d="M492.968 193.474H424.117C423.721 193.482 423.336 193.339 423.041 193.075C422.745 192.811 422.562 192.445 422.527 192.051C422.516 191.847 422.546 191.643 422.617 191.451C422.688 191.26 422.797 191.084 422.938 190.936C423.078 190.788 423.248 190.67 423.436 190.589C423.624 190.508 423.827 190.467 424.032 190.467H493.692C495.205 191.793 494.283 193.474 492.968 193.474V193.474Z" fill="#D1D5DB"/>
<path d="M492.968 201.368H424.117C423.721 201.376 423.336 201.234 423.041 200.97C422.745 200.706 422.562 200.34 422.527 199.946C422.516 199.742 422.546 199.538 422.617 199.346C422.688 199.154 422.797 198.979 422.938 198.831C423.078 198.682 423.248 198.564 423.436 198.484C423.624 198.403 423.827 198.361 424.032 198.361H493.692C495.205 199.687 494.283 201.368 492.968 201.368V201.368Z" fill="#D1D5DB"/>
<path d="M492.968 209.259H424.117C423.721 209.267 423.336 209.124 423.041 208.86C422.745 208.596 422.562 208.23 422.527 207.836C422.516 207.632 422.546 207.428 422.617 207.237C422.688 207.045 422.797 206.87 422.938 206.721C423.078 206.573 423.248 206.455 423.436 206.374C423.624 206.294 423.827 206.252 424.032 206.252H493.692C495.205 207.578 494.283 209.259 492.968 209.259V209.259Z" fill="#D1D5DB"/>
<path d="M456.869 217.151H424.117C423.721 217.159 423.336 217.017 423.041 216.753C422.745 216.489 422.562 216.123 422.527 215.729C422.516 215.525 422.546 215.321 422.617 215.129C422.688 214.937 422.797 214.762 422.938 214.614C423.078 214.466 423.248 214.348 423.436 214.267C423.624 214.186 423.827 214.145 424.032 214.145H457.593C459.106 215.47 458.184 217.151 456.869 217.151V217.151Z" fill="#D1D5DB"/>
<path d="M456.869 225.042H424.117C423.721 225.05 423.336 224.908 423.041 224.643C422.745 224.379 422.562 224.013 422.527 223.619C422.516 223.415 422.546 223.211 422.617 223.02C422.688 222.828 422.797 222.653 422.938 222.504C423.078 222.356 423.248 222.238 423.436 222.157C423.624 222.077 423.827 222.035 424.032 222.035H457.593C459.106 223.361 458.184 225.042 456.869 225.042Z" fill="#D1D5DB"/>
<path d="M483.777 155.055H433.353C432.594 155.054 431.865 154.753 431.328 154.217C430.791 153.681 430.489 152.955 430.488 152.197V143.053C430.489 142.295 430.791 141.569 431.328 141.033C431.865 140.498 432.594 140.196 433.353 140.195H483.777C484.537 140.196 485.265 140.498 485.802 141.033C486.339 141.569 486.641 142.295 486.642 143.053V152.197C486.641 152.955 486.339 153.681 485.802 154.217C485.265 154.753 484.537 155.054 483.777 155.055Z" fill="#6366F1"/>
<path d="M309.362 361.372H91.0493C90.8973 361.372 90.7516 361.311 90.6441 361.204C90.5367 361.097 90.4763 360.952 90.4763 360.8C90.4763 360.648 90.5367 360.503 90.6441 360.396C90.7516 360.289 90.8973 360.229 91.0493 360.229H309.362C309.514 360.229 309.66 360.289 309.767 360.396C309.875 360.503 309.935 360.648 309.935 360.8C309.935 360.952 309.875 361.097 309.767 361.204C309.66 361.311 309.514 361.372 309.362 361.372Z" fill="currentColor"/>
<path d="M71.5627 13.7005C73.6092 13.7005 75.2682 12.0457 75.2682 10.0045C75.2682 7.96332 73.6092 6.30859 71.5627 6.30859C69.5162 6.30859 67.8572 7.96332 67.8572 10.0045C67.8572 12.0457 69.5162 13.7005 71.5627 13.7005Z" fill="#D1D5DB"/>
<path d="M71.5627 28.431C73.6092 28.431 75.2682 26.7762 75.2682 24.735C75.2682 22.6938 73.6092 21.0391 71.5627 21.0391C69.5162 21.0391 67.8572 22.6938 67.8572 24.735C67.8572 26.7762 69.5162 28.431 71.5627 28.431Z" fill="#D1D5DB"/>
<path d="M71.5627 43.1595C73.6092 43.1595 75.2682 41.5047 75.2682 39.4635C75.2682 37.4223 73.6092 35.7676 71.5627 35.7676C69.5162 35.7676 67.8572 37.4223 67.8572 39.4635C67.8572 41.5047 69.5162 43.1595 71.5627 43.1595Z" fill="#D1D5DB"/>
<path d="M71.5627 57.8899C73.6092 57.8899 75.2682 56.2352 75.2682 54.194C75.2682 52.1528 73.6092 50.498 71.5627 50.498C69.5162 50.498 67.8572 52.1528 67.8572 54.194C67.8572 56.2352 69.5162 57.8899 71.5627 57.8899Z" fill="#D1D5DB"/>
<path d="M87.0336 13.7005C89.0801 13.7005 90.7392 12.0457 90.7392 10.0045C90.7392 7.96332 89.0801 6.30859 87.0336 6.30859C84.9871 6.30859 83.3281 7.96332 83.3281 10.0045C83.3281 12.0457 84.9871 13.7005 87.0336 13.7005Z" fill="#D1D5DB"/>
<path d="M87.0336 28.431C89.0801 28.431 90.7392 26.7762 90.7392 24.735C90.7392 22.6938 89.0801 21.0391 87.0336 21.0391C84.9871 21.0391 83.3281 22.6938 83.3281 24.735C83.3281 26.7762 84.9871 28.431 87.0336 28.431Z" fill="#D1D5DB"/>
<path d="M87.0336 43.1595C89.0801 43.1595 90.7392 41.5047 90.7392 39.4635C90.7392 37.4223 89.0801 35.7676 87.0336 35.7676C84.9871 35.7676 83.3281 37.4223 83.3281 39.4635C83.3281 41.5047 84.9871 43.1595 87.0336 43.1595Z" fill="#D1D5DB"/>
<path d="M87.0336 57.8899C89.0801 57.8899 90.7392 56.2352 90.7392 54.194C90.7392 52.1528 89.0801 50.498 87.0336 50.498C84.9871 50.498 83.3281 52.1528 83.3281 54.194C83.3281 56.2352 84.9871 57.8899 87.0336 57.8899Z" fill="#D1D5DB"/>
<path d="M102.505 13.7005C104.551 13.7005 106.21 12.0457 106.21 10.0045C106.21 7.96332 104.551 6.30859 102.505 6.30859C100.458 6.30859 98.7993 7.96332 98.7993 10.0045C98.7993 12.0457 100.458 13.7005 102.505 13.7005Z" fill="#D1D5DB"/>
<path d="M102.505 28.431C104.551 28.431 106.21 26.7762 106.21 24.735C106.21 22.6938 104.551 21.0391 102.505 21.0391C100.458 21.0391 98.7993 22.6938 98.7993 24.735C98.7993 26.7762 100.458 28.431 102.505 28.431Z" fill="#D1D5DB"/>
<path d="M102.505 43.1595C104.551 43.1595 106.21 41.5047 106.21 39.4635C106.21 37.4223 104.551 35.7676 102.505 35.7676C100.458 35.7676 98.7993 37.4223 98.7993 39.4635C98.7993 41.5047 100.458 43.1595 102.505 43.1595Z" fill="#D1D5DB"/>
<path d="M102.505 57.8899C104.551 57.8899 106.21 56.2352 106.21 54.194C106.21 52.1528 104.551 50.498 102.505 50.498C100.458 50.498 98.7993 52.1528 98.7993 54.194C98.7993 56.2352 100.458 57.8899 102.505 57.8899Z" fill="#D1D5DB"/>
<path d="M117.976 13.7005C120.022 13.7005 121.681 12.0457 121.681 10.0045C121.681 7.96332 120.022 6.30859 117.976 6.30859C115.929 6.30859 114.27 7.96332 114.27 10.0045C114.27 12.0457 115.929 13.7005 117.976 13.7005Z" fill="#D1D5DB"/>
<path d="M117.976 28.431C120.022 28.431 121.681 26.7762 121.681 24.735C121.681 22.6938 120.022 21.0391 117.976 21.0391C115.929 21.0391 114.27 22.6938 114.27 24.735C114.27 26.7762 115.929 28.431 117.976 28.431Z" fill="#D1D5DB"/>
<path d="M117.976 43.1595C120.022 43.1595 121.681 41.5047 121.681 39.4635C121.681 37.4223 120.022 35.7676 117.976 35.7676C115.929 35.7676 114.27 37.4223 114.27 39.4635C114.27 41.5047 115.929 43.1595 117.976 43.1595Z" fill="#D1D5DB"/>
<path d="M117.976 57.8899C120.022 57.8899 121.681 56.2352 121.681 54.194C121.681 52.1528 120.022 50.498 117.976 50.498C115.929 50.498 114.27 52.1528 114.27 54.194C114.27 56.2352 115.929 57.8899 117.976 57.8899Z" fill="#D1D5DB"/>
<path d="M133.447 13.7005C135.493 13.7005 137.152 12.0457 137.152 10.0045C137.152 7.96332 135.493 6.30859 133.447 6.30859C131.4 6.30859 129.741 7.96332 129.741 10.0045C129.741 12.0457 131.4 13.7005 133.447 13.7005Z" fill="#D1D5DB"/>
<path d="M133.447 28.431C135.493 28.431 137.152 26.7762 137.152 24.735C137.152 22.6938 135.493 21.0391 133.447 21.0391C131.4 21.0391 129.741 22.6938 129.741 24.735C129.741 26.7762 131.4 28.431 133.447 28.431Z" fill="#D1D5DB"/>
<path d="M133.447 43.1595C135.493 43.1595 137.152 41.5047 137.152 39.4635C137.152 37.4223 135.493 35.7676 133.447 35.7676C131.4 35.7676 129.741 37.4223 129.741 39.4635C129.741 41.5047 131.4 43.1595 133.447 43.1595Z" fill="#D1D5DB"/>
<path d="M133.447 57.8899C135.493 57.8899 137.152 56.2352 137.152 54.194C137.152 52.1528 135.493 50.498 133.447 50.498C131.4 50.498 129.741 52.1528 129.741 54.194C129.741 56.2352 131.4 57.8899 133.447 57.8899Z" fill="#D1D5DB"/>
<path d="M148.918 13.7005C150.964 13.7005 152.623 12.0457 152.623 10.0045C152.623 7.96332 150.964 6.30859 148.918 6.30859C146.871 6.30859 145.212 7.96332 145.212 10.0045C145.212 12.0457 146.871 13.7005 148.918 13.7005Z" fill="#D1D5DB"/>
<path d="M148.918 28.431C150.964 28.431 152.623 26.7762 152.623 24.735C152.623 22.6938 150.964 21.0391 148.918 21.0391C146.871 21.0391 145.212 22.6938 145.212 24.735C145.212 26.7762 146.871 28.431 148.918 28.431Z" fill="#D1D5DB"/>
<path d="M148.918 43.1595C150.964 43.1595 152.623 41.5047 152.623 39.4635C152.623 37.4223 150.964 35.7676 148.918 35.7676C146.871 35.7676 145.212 37.4223 145.212 39.4635C145.212 41.5047 146.871 43.1595 148.918 43.1595Z" fill="#D1D5DB"/>
<path d="M148.918 57.8899C150.964 57.8899 152.623 56.2352 152.623 54.194C152.623 52.1528 150.964 50.498 148.918 50.498C146.871 50.498 145.212 52.1528 145.212 54.194C145.212 56.2352 146.871 57.8899 148.918 57.8899Z" fill="#D1D5DB"/>
<path d="M462.42 290.361C464.466 290.361 466.125 288.706 466.125 286.665C466.125 284.623 464.466 282.969 462.42 282.969C460.373 282.969 458.714 284.623 458.714 286.665C458.714 288.706 460.373 290.361 462.42 290.361Z" fill="#D1D5DB"/>
<path d="M508.833 290.361C510.879 290.361 512.538 288.706 512.538 286.665C512.538 284.623 510.879 282.969 508.833 282.969C506.786 282.969 505.127 284.623 505.127 286.665C505.127 288.706 506.786 290.361 508.833 290.361Z" fill="#D1D5DB"/>
<path d="M508.833 319.82C510.879 319.82 512.538 318.165 512.538 316.124C512.538 314.082 510.879 312.428 508.833 312.428C506.786 312.428 505.127 314.082 505.127 316.124C505.127 318.165 506.786 319.82 508.833 319.82Z" fill="#D1D5DB"/>
<path d="M462.42 305.091C464.466 305.091 466.125 303.436 466.125 301.395C466.125 299.354 464.466 297.699 462.42 297.699C460.373 297.699 458.714 299.354 458.714 301.395C458.714 303.436 460.373 305.091 462.42 305.091Z" fill="#D1D5DB"/>
<path d="M462.42 319.82C464.466 319.82 466.125 318.165 466.125 316.124C466.125 314.082 464.466 312.428 462.42 312.428C460.373 312.428 458.714 314.082 458.714 316.124C458.714 318.165 460.373 319.82 462.42 319.82Z" fill="#D1D5DB"/>
<path d="M477.891 290.361C479.937 290.361 481.596 288.706 481.596 286.665C481.596 284.623 479.937 282.969 477.891 282.969C475.844 282.969 474.185 284.623 474.185 286.665C474.185 288.706 475.844 290.361 477.891 290.361Z" fill="#D1D5DB"/>
<path d="M477.891 305.091C479.937 305.091 481.596 303.436 481.596 301.395C481.596 299.354 479.937 297.699 477.891 297.699C475.844 297.699 474.185 299.354 474.185 301.395C474.185 303.436 475.844 305.091 477.891 305.091Z" fill="#D1D5DB"/>
<path d="M477.891 319.82C479.937 319.82 481.596 318.165 481.596 316.124C481.596 314.082 479.937 312.428 477.891 312.428C475.844 312.428 474.185 314.082 474.185 316.124C474.185 318.165 475.844 319.82 477.891 319.82Z" fill="#D1D5DB"/>
<path d="M493.362 290.361C495.408 290.361 497.067 288.706 497.067 286.665C497.067 284.623 495.408 282.969 493.362 282.969C491.315 282.969 489.656 284.623 489.656 286.665C489.656 288.706 491.315 290.361 493.362 290.361Z" fill="#D1D5DB"/>
<path d="M493.362 305.091C495.408 305.091 497.067 303.436 497.067 301.395C497.067 299.354 495.408 297.699 493.362 297.699C491.315 297.699 489.656 299.354 489.656 301.395C489.656 303.436 491.315 305.091 493.362 305.091Z" fill="#D1D5DB"/>
<path d="M493.362 319.82C495.408 319.82 497.067 318.165 497.067 316.124C497.067 314.082 495.408 312.428 493.362 312.428C491.315 312.428 489.656 314.082 489.656 316.124C489.656 318.165 491.315 319.82 493.362 319.82Z" fill="#D1D5DB"/>
<path d="M508.833 305.091C510.879 305.091 512.538 303.436 512.538 301.395C512.538 299.354 510.879 297.699 508.833 297.699C506.786 297.699 505.127 299.354 505.127 301.395C505.127 303.436 506.786 305.091 508.833 305.091Z" fill="#D1D5DB"/>
</svg>
