<svg width="48" height="48" viewBox="0 0 48 48" fill="none" xmlns="http://www.w3.org/2000/svg">
<path d="M34.5436 17.3707C33.7866 16.5664 33.8249 15.3006 34.6293 14.5436C35.4336 13.7866 36.6994 13.8249 37.4564 14.6293L45.4564 23.1293C46.1812 23.8994 46.1812 25.1006 45.4564 25.8707L37.4564 34.3707C36.6994 35.1751 35.4336 35.2134 34.6293 34.4564C33.8249 33.6994 33.7866 32.4336 34.5436 31.6293L41.2535 24.5L34.5436 17.3707ZM13.4564 17.3707L6.7465 24.5L13.4564 31.6293C14.2134 32.4336 14.1751 33.6994 13.3707 34.4564C12.5664 35.2134 11.3006 35.1751 10.5436 34.3707L2.5436 25.8707C1.8188 25.1006 1.8188 23.8994 2.5436 23.1293L10.5436 14.6293C11.3006 13.8249 12.5664 13.7866 13.3707 14.5436C14.1751 15.3006 14.2134 16.5664 13.4564 17.3707Z" fill="currentColor"/>
<path opacity="0.3" d="M29.5555 10.9945C29.8414 9.92754 29.2083 8.83087 28.1413 8.54498C27.0744 8.2591 25.9777 8.89226 25.6918 9.9592L18.4449 37.0051C18.159 38.0721 18.7922 39.1687 19.8591 39.4546C20.926 39.7405 22.0227 39.1073 22.3086 38.0404L29.5555 10.9945Z" fill="currentColor"/>
</svg>
