<svg width="24" height="24" viewBox="0 0 24 24" fill="none" xmlns="http://www.w3.org/2000/svg">
<path d="M19.7927 7.5948C18.988 6.18126 17.8962 5.06221 16.5174 4.23731C15.1384 3.41237 13.6329 3 11.9999 3C10.3672 3 8.86115 3.41249 7.48241 4.23731C6.10345 5.06216 5.01185 6.18126 4.20704 7.5948C3.40236 9.00825 3 10.5518 3 12.2253C3 14.2356 3.57216 16.0433 4.71678 17.6489C5.86127 19.2546 7.33976 20.3657 9.15223 20.9823C9.3632 21.0225 9.51935 20.9942 9.62091 20.8983C9.72246 20.8023 9.77323 20.682 9.77323 20.5381C9.77323 20.514 9.77121 20.2979 9.76731 19.8894C9.76326 19.4809 9.76138 19.1246 9.76138 18.8205L9.49183 18.8682C9.32 18.9005 9.10318 18.9142 8.84142 18.9104C8.57982 18.9066 8.30824 18.8785 8.02707 18.8263C7.74574 18.7745 7.48406 18.6544 7.24189 18.4662C6.99978 18.278 6.82788 18.0316 6.72633 17.7275L6.60918 17.4511C6.53103 17.267 6.4081 17.0626 6.2401 16.8385C6.0721 16.6143 5.90219 16.4622 5.73034 16.3821L5.64829 16.3219C5.59362 16.2819 5.54289 16.2336 5.49598 16.1776C5.4491 16.1216 5.41401 16.0656 5.39057 16.0094C5.36709 15.9533 5.38655 15.9072 5.44915 15.871C5.51173 15.8349 5.62486 15.8174 5.789 15.8174L6.02328 15.8533C6.1795 15.8853 6.37278 15.9813 6.60333 16.1415C6.83381 16.3017 7.02318 16.5098 7.17168 16.766C7.35146 17.0944 7.56806 17.3447 7.82209 17.5169C8.07589 17.689 8.33179 17.775 8.58957 17.775C8.84735 17.775 9.06995 17.755 9.25753 17.7152C9.44488 17.6751 9.62068 17.6149 9.78486 17.5349C9.85513 16.9981 10.0465 16.5857 10.359 16.2975C9.91371 16.2495 9.51343 16.1773 9.15785 16.0812C8.80242 15.9851 8.43522 15.829 8.05639 15.6125C7.67734 15.3964 7.36286 15.128 7.11296 14.8079C6.86298 14.4875 6.65786 14.0669 6.4978 13.5465C6.33775 13.0259 6.25765 12.4253 6.25765 11.7446C6.25765 10.7754 6.56628 9.95074 7.18346 9.26996C6.89441 8.54136 6.92163 7.72449 7.26544 6.8196C7.49201 6.74741 7.82802 6.80161 8.27329 6.98167C8.71857 7.16188 9.04468 7.31626 9.25175 7.44426C9.4589 7.57219 9.6248 7.68067 9.74983 7.76855C10.4766 7.56043 11.2265 7.45633 11.9999 7.45633C12.7732 7.45633 13.5233 7.56043 14.25 7.76855L14.6954 7.4804C14.9999 7.28812 15.3594 7.11191 15.7733 6.95176C16.1873 6.79162 16.5039 6.74757 16.7228 6.81968C17.0742 7.72465 17.1055 8.54143 16.8163 9.27011C17.4335 9.95089 17.7423 10.7758 17.7423 11.7448C17.7423 12.4255 17.6619 13.0279 17.502 13.5525C17.3419 14.0772 17.1351 14.4973 16.8812 14.8139C16.6271 15.1303 16.3107 15.3965 15.9318 15.6126C15.5529 15.8289 15.1856 15.985 14.8301 16.0812C14.4746 16.1773 14.0744 16.2497 13.6291 16.2977C14.0351 16.6579 14.2382 17.2265 14.2382 18.0033V20.5377C14.2382 20.6817 14.2871 20.8019 14.3849 20.898C14.4825 20.9939 14.6367 21.0221 14.8477 20.9819C16.6604 20.3654 18.1389 19.2543 19.2833 17.6485C20.4277 16.0429 21 14.2352 21 12.225C20.9996 10.5516 20.597 9.00825 19.7927 7.5948Z" fill="currentColor"/>
</svg>
