<svg width="24" height="24" viewBox="0 0 24 24" fill="none" xmlns="http://www.w3.org/2000/svg">
<path fill-rule="evenodd" clip-rule="evenodd" d="M5 3H6C6.55228 3 7 3.44772 7 4V20C7 20.5523 6.55228 21 6 21H5C4.44772 21 4 20.5523 4 20V4C4 3.44772 4.44772 3 5 3ZM10 3H11C11.5523 3 12 3.44772 12 4V20C12 20.5523 11.5523 21 11 21H10C9.44772 21 9 20.5523 9 20V4C9 3.44772 9.44772 3 10 3Z" fill="currentColor"/>
<path opacity="0.3" d="M15.3683 3.27269L14.4228 3.59826C13.9006 3.77807 13.6231 4.34715 13.8029 4.86935L19.012 19.9976C19.1918 20.5198 19.7608 20.7974 20.283 20.6176L21.2286 20.292C21.7508 20.1122 22.0283 19.5431 21.8485 19.0209L16.6394 3.89264C16.4596 3.37045 15.8905 3.09289 15.3683 3.27269Z" fill="currentColor"/>
</svg>
