<svg width="24" height="24" viewBox="0 0 24 24" fill="none" xmlns="http://www.w3.org/2000/svg">
<path d="M21.8142 17.7671C21.8142 17.6849 21.7346 17.6849 21.7346 17.6027C21.4163 16.9452 20.7002 16.1233 19.7453 15.2192C19.2678 14.8082 19.0291 14.4795 18.8699 14.3151C18.6312 13.9863 18.6312 13.7397 18.7108 13.411C18.7904 13.1644 19.1087 12.7534 19.6657 12.0137C19.984 11.6027 20.1431 11.3562 20.3819 11.1096C21.5755 9.46575 22.1325 8.39725 21.9734 7.9041L21.8938 7.82192C21.8142 7.73973 21.7346 7.65754 21.5755 7.65754C21.4163 7.57535 21.1776 7.57535 20.9389 7.65754H17.915C17.8355 7.65754 17.8355 7.65754 17.6763 7.65754C17.5967 7.65754 17.5172 7.65754 17.5172 7.65754H17.4376H17.358L17.2784 7.73972C17.1989 7.82191 17.1989 7.82191 17.1989 7.9041C16.8806 8.80821 16.4827 9.54794 16.0848 10.3699C15.8461 10.7808 15.6074 11.1918 15.3686 11.5206C15.1299 11.8493 14.9707 12.0959 14.8116 12.2603C14.6524 12.4247 14.4933 12.5068 14.4137 12.6712C14.3341 12.7534 14.175 12.8356 14.175 12.7534C14.0954 12.7534 14.0158 12.7534 14.0158 12.6712C13.9363 12.589 13.8567 12.5068 13.7771 12.4247C13.6976 12.3425 13.6975 12.1781 13.618 12.0137C13.618 11.8493 13.618 11.6849 13.618 11.6027C13.618 11.5205 13.618 11.274 13.618 11.1096C13.618 10.863 13.618 10.6986 13.618 10.6164C13.618 10.3699 13.618 10.0411 13.618 9.71233C13.618 9.38357 13.618 9.13698 13.618 8.9726C13.618 8.80822 13.618 8.56164 13.618 8.39726C13.618 8.15068 13.618 7.98629 13.618 7.9041C13.618 7.82191 13.5384 7.65753 13.5384 7.57534C13.4588 7.49315 13.3792 7.41095 13.2997 7.32876C13.2201 7.24657 13.061 7.24657 12.9814 7.16438C12.5835 7.08219 12.1061 7 11.549 7C10.2758 7 9.4005 7.08219 9.0822 7.24658C8.92305 7.32877 8.7639 7.41096 8.68432 7.57534C8.52517 7.73972 8.52517 7.82192 8.60474 7.82192C9.00262 7.90411 9.32092 8.06849 9.48007 8.31506L9.55965 8.47946C9.63923 8.56165 9.63922 8.72602 9.71879 8.9726C9.79837 9.21917 9.79837 9.46575 9.79837 9.79452C9.79837 10.2877 9.79837 10.7808 9.79837 11.1096C9.79837 11.5206 9.71879 11.7671 9.71879 12.0137C9.71879 12.2603 9.63923 12.4247 9.55965 12.5069C9.48008 12.6712 9.48007 12.7534 9.4005 12.7534C9.4005 12.7534 9.40049 12.8356 9.32091 12.8356C9.24134 12.8356 9.16177 12.9178 9.00262 12.9178C8.92304 12.9178 8.7639 12.8356 8.68432 12.7534C8.52517 12.6712 8.36602 12.5069 8.28645 12.3425C8.1273 12.1781 7.96814 11.9315 7.80899 11.6027C7.64984 11.274 7.41111 10.9452 7.25196 10.4521L7.09282 10.1233C7.01324 9.95891 6.85409 9.63014 6.69494 9.21918C6.53579 8.80822 6.37664 8.47946 6.21749 8.0685C6.13791 7.90411 6.05835 7.82191 5.97877 7.73972H5.89919C5.89919 7.73972 5.81961 7.65754 5.74003 7.65754C5.66046 7.65754 5.58089 7.57534 5.50132 7.57534H2.6366C2.3183 7.57534 2.15916 7.65753 2.07958 7.73972L2 7.82192C2 7.82192 2 7.90411 2 7.9863C2 8.06849 2 8.15068 2.07958 8.31506C2.47746 9.30136 2.9549 10.2877 3.43236 11.274C3.90981 12.1781 4.38726 13 4.70556 13.5753C5.10344 14.1507 5.42174 14.726 5.81961 15.2192C6.21749 15.7123 6.45621 16.0411 6.53578 16.2055C6.69493 16.3699 6.7745 16.4521 6.85408 16.5342L7.09282 16.7808C7.25197 16.9452 7.49069 17.1918 7.80899 17.4384C8.12729 17.6849 8.52516 17.9315 8.92304 18.1781C9.32091 18.4247 9.79838 18.5891 10.2758 18.7534C10.8329 18.9178 11.3103 19 11.7878 18.9178H12.9814C13.2201 18.9178 13.3793 18.8356 13.5384 18.6712L13.618 18.589C13.618 18.5068 13.6975 18.5069 13.6975 18.4247C13.6975 18.3425 13.6975 18.2603 13.6975 18.0959C13.6975 17.7671 13.6976 17.5206 13.7771 17.274C13.8567 17.0274 13.8567 16.863 13.9363 16.6986C14.0159 16.5343 14.0954 16.4521 14.175 16.3699C14.2546 16.2877 14.3342 16.2055 14.3342 16.2055H14.4137C14.5729 16.1233 14.8116 16.2055 14.9708 16.3699C15.2095 16.5342 15.4482 16.7808 15.6073 17.0274C15.7665 17.274 16.0052 17.5206 16.3235 17.8493C16.6418 18.1781 16.8806 18.4247 17.0397 18.5069L17.2784 18.6712C17.4376 18.7534 17.5967 18.8356 17.8355 18.9178C18.0742 19 18.2333 19 18.3925 19L21.0981 18.9178C21.3368 18.9178 21.5755 18.8356 21.7346 18.7534C21.8938 18.6712 21.9734 18.589 21.9734 18.4247C21.9734 18.3425 21.9734 18.1781 21.9734 18.0959C21.8142 17.9315 21.8142 17.8493 21.8142 17.7671Z" fill="currentColor"/>
</svg>
