<svg width="56" height="56" viewBox="0 0 56 56" fill="none" xmlns="http://www.w3.org/2000/svg">
  <path d="M18.1347 16.8887L22.1216 30.4413L26.1085 16.8887H36.9132V18.2356L32.8446 25.2452C34.274 25.7041 35.3551 26.5382 36.0881 27.7474C36.8211 28.9566 37.1887 30.3776 37.1887 32.0077C37.1887 34.024 36.6529 35.7191 35.5808 37.0937C34.5086 38.4684 33.1201 39.155 31.416 39.155C30.1327 39.155 29.0142 38.7466 28.0625 37.9319C27.1107 37.1172 26.404 36.0125 25.9458 34.6192L28.1995 33.6848C28.5297 34.5279 28.9651 35.1923 29.5056 35.6782C30.0258 36.1564 30.7095 36.417 31.416 36.4064C32.1857 36.4064 32.8363 35.9759 33.3679 35.1148C33.8995 34.2538 34.1653 33.2183 34.1653 32.0084C34.1653 30.6704 33.8815 29.6342 33.3139 28.9019C32.6536 28.0409 31.6181 27.6103 30.2061 27.6103H29.1056V26.2911L32.954 19.638H28.3096L28.0452 20.0879L22.395 39.1557H22.1202L17.9963 25.3559L13.8724 39.1557H13.5976L7.00122 16.8887H9.88756L13.8744 30.4413L16.5677 21.3082L15.2484 16.8887H18.1347Z" fill="#005A9C"/>
  <path d="M48.3756 16.764L48.8435 19.6068L47.1823 22.7734C47.1823 22.7734 46.5469 21.4306 45.4913 20.6866C44.6019 20.0601 44.0225 19.9238 43.1172 20.1107C41.9543 20.3508 40.6344 21.7421 40.0578 23.4573C39.3691 25.5096 39.3622 26.5028 39.3379 27.4151C39.2992 28.8776 39.5297 29.7422 39.5297 29.7422C39.5297 29.7422 38.526 27.883 38.5343 25.16C38.5413 23.2164 38.8458 21.4542 39.7456 19.7147C40.5368 18.192 41.7128 17.2679 42.7565 17.1537C43.8363 17.043 44.6946 17.569 45.3473 18.1255C46.0395 18.7166 46.7317 20.0082 46.7317 20.0082L48.3624 16.7578L48.3756 16.764ZM48.5791 32.8486C48.5791 32.8486 47.8474 34.1637 47.392 34.66C46.9365 35.1563 46.1205 36.0443 45.1134 36.4943C44.1063 36.9442 43.5781 37.0217 42.5828 36.9262C41.5875 36.8306 40.6634 36.2548 40.3402 36.0146C40.0169 35.7744 39.1884 35.0663 38.7205 34.4074C38.2526 33.7484 37.521 32.4278 37.521 32.4278L38.1841 34.3105C38.3308 34.633 38.7821 35.6214 39.43 36.4811C40.0266 37.284 41.1881 38.6642 42.9504 38.9757C44.7126 39.2871 45.9246 38.496 46.2243 38.3043C46.524 38.1125 47.156 37.5844 47.556 37.1553C47.9734 36.7088 48.3686 36.1392 48.5943 35.7972C48.7535 35.5481 49.0144 35.0414 49.0144 35.0414L48.5991 32.8472L48.5791 32.8486Z" fill="currentColor"/>
</svg>
