<svg width="24" height="24" viewBox="0 0 24 24" fill="none" xmlns="http://www.w3.org/2000/svg">
<path d="M11.519 7.35937C9.0904 7.35937 7.15513 9.44866 7.15513 11.9799C7.15513 14.5513 9.0904 16.6004 11.519 16.6004C13.9096 16.6004 15.8828 14.5513 15.8828 11.9799C15.8828 9.44866 13.9096 7.35937 11.519 7.35937ZM11.519 14.9933C9.96317 14.9933 8.67299 13.6674 8.67299 11.9799C8.67299 10.3326 9.92522 9.0067 11.519 9.0067C13.0748 9.0067 14.327 10.3326 14.327 11.9799C14.327 13.6674 13.0748 14.9933 11.519 14.9933ZM17.0592 7.19866C17.0592 6.59598 16.6038 6.11384 16.0346 6.11384C15.4654 6.11384 15.01 6.59598 15.01 7.19866C15.01 7.80134 15.4654 8.28348 16.0346 8.28348C16.6038 8.28348 17.0592 7.80134 17.0592 7.19866ZM19.9431 8.28348C19.8672 6.83705 19.5636 5.55134 18.577 4.5067C17.5904 3.46205 16.3761 3.14062 15.01 3.06027C13.606 2.97991 9.39397 2.97991 7.98996 3.06027C6.62388 3.14062 5.44754 3.46205 4.42299 4.5067C3.43638 5.55134 3.13281 6.83705 3.05692 8.28348C2.98103 9.77009 2.98103 14.2299 3.05692 15.7165C3.13281 17.1629 3.43638 18.4085 4.42299 19.4933C5.44754 20.5379 6.62388 20.8594 7.98996 20.9397C9.39397 21.0201 13.606 21.0201 15.01 20.9397C16.3761 20.8594 17.5904 20.5379 18.577 19.4933C19.5636 18.4085 19.8672 17.1629 19.9431 15.7165C20.019 14.2299 20.019 9.77009 19.9431 8.28348ZM18.1217 17.2835C17.856 18.0871 17.2489 18.6897 16.5279 19.0112C15.3895 19.4933 12.7333 19.3728 11.519 19.3728C10.2667 19.3728 7.61049 19.4933 6.51004 19.0112C5.75112 18.6897 5.18192 18.0871 4.87835 17.2835C4.42299 16.1183 4.53683 13.3058 4.53683 11.9799C4.53683 10.6942 4.42299 7.8817 4.87835 6.67634C5.18192 5.91295 5.75112 5.31027 6.51004 4.98884C7.61049 4.5067 10.2667 4.62723 11.519 4.62723C12.7333 4.62723 15.3895 4.5067 16.5279 4.98884C17.2489 5.27009 17.8181 5.91295 18.1217 6.67634C18.577 7.8817 18.4632 10.6942 18.4632 11.9799C18.4632 13.3058 18.577 16.1183 18.1217 17.2835Z" fill="currentColor"/>
</svg>
