<svg width="24" height="24" viewBox="0 0 24 24" fill="none" xmlns="http://www.w3.org/2000/svg">
<path opacity="0.5" d="M13.8604 11.904C14.1379 11.6266 14.0797 11.1185 13.7304 10.7692C13.3811 10.4199 12.873 10.3617 12.5955 10.6391L6.56671 16.6679C6.28924 16.9454 6.34747 17.4535 6.69677 17.8028C7.04607 18.1521 7.55417 18.2103 7.83164 17.9328L13.8604 11.904Z" fill="currentColor"/>
<path d="M8.11084 8.9043C7.55855 8.9043 7.11084 8.45658 7.11084 7.9043C7.11084 7.35201 7.55855 6.9043 8.11084 6.9043H16.5961C17.1315 6.9043 17.5719 7.32597 17.5952 7.86086V15.9926C17.5952 16.5557 16.9999 17.001 16.4999 17.001C15.9999 17.001 15.6626 16.5444 15.6387 15.9926V8.9043H8.11084Z" fill="currentColor"/>
</svg>
