<svg width="24" height="24" viewBox="0 0 24 24" fill="none" xmlns="http://www.w3.org/2000/svg">
<path fill-rule="evenodd" clip-rule="evenodd" d="M3 10H20C20.5523 10 21 10.4477 21 11V13C21 13.5523 20.5523 14 20 14H3C2.44772 14 2 13.5523 2 13V11C2 10.4477 2.44772 10 3 10ZM3 16H20C20.5523 16 21 16.4477 21 17V19C21 19.5523 20.5523 20 20 20H3C2.44772 20 2 19.5523 2 19V17C2 16.4477 2.44772 16 3 16Z" fill="currentColor"/>
<path opacity="0.3" fill-rule="evenodd" clip-rule="evenodd" d="M3 4H20C20.5523 4 21 4.44772 21 5V7C21 7.55228 20.5523 8 20 8H3C2.44772 8 2 7.55228 2 7V5C2 4.44772 2.44772 4 3 4Z" fill="currentColor"/>
</svg>
