<svg width="24" height="25" viewBox="0 0 24 25" fill="none" xmlns="http://www.w3.org/2000/svg">
<path d="M12 16.5C9.79086 16.5 8 14.7091 8 12.5C8 10.2909 9.79086 8.5 12 8.5C14.2091 8.5 16 10.2909 16 12.5C16 14.7091 14.2091 16.5 12 16.5Z" fill="currentColor"/>
<path opacity="0.5" d="M19.5 11H21C21.8284 11 22.5 11.6716 22.5 12.5C22.5 13.3284 21.8284 14 21 14H19.5C18.6716 14 18 13.3284 18 12.5C18 11.6716 18.6716 11 19.5 11ZM16.0607 6.37132L17.1213 5.31066C17.7071 4.72487 18.6569 4.72487 19.2426 5.31066C19.8284 5.89645 19.8284 6.84619 19.2426 7.43198L18.182 8.49264C17.5962 9.07843 16.6464 9.07843 16.0607 8.49264C15.4749 7.90685 15.4749 6.95711 16.0607 6.37132ZM16.0607 18.682C15.4749 18.0962 15.4749 17.1464 16.0607 16.5607C16.6464 15.9749 17.5962 15.9749 18.182 16.5607L19.2426 17.6213C19.8284 18.2071 19.8284 19.1569 19.2426 19.7426C18.6569 20.3284 17.7071 20.3284 17.1213 19.7426L16.0607 18.682ZM3 11H4.5C5.32843 11 6 11.6716 6 12.5C6 13.3284 5.32843 14 4.5 14H3C2.17157 14 1.5 13.3284 1.5 12.5C1.5 11.6716 2.17157 11 3 11ZM12 2C12.8284 2 13.5 2.67157 13.5 3.5V5C13.5 5.82843 12.8284 6.5 12 6.5C11.1716 6.5 10.5 5.82843 10.5 5V3.5C10.5 2.67157 11.1716 2 12 2ZM12 18.5C12.8284 18.5 13.5 19.1716 13.5 20V21.5C13.5 22.3284 12.8284 23 12 23C11.1716 23 10.5 22.3284 10.5 21.5V20C10.5 19.1716 11.1716 18.5 12 18.5ZM4.81066 5.31066C5.39645 4.72487 6.34619 4.72487 6.93198 5.31066L7.99264 6.37132C8.57843 6.95711 8.57843 7.90685 7.99264 8.49264C7.40685 9.07843 6.45711 9.07843 5.87132 8.49264L4.81066 7.43198C4.22487 6.84619 4.22487 5.89645 4.81066 5.31066ZM4.81066 19.7426C4.22487 19.1569 4.22487 18.2071 4.81066 17.6213L5.87132 16.5607C6.45711 15.9749 7.40685 15.9749 7.99264 16.5607C8.57843 17.1464 8.57843 18.0962 7.99264 18.682L6.93198 19.7426C6.34619 20.3284 5.39645 20.3284 4.81066 19.7426Z" fill="currentColor"/>
</svg>
