<svg width="255" height="165" viewBox="0 0 255 165" fill="none" xmlns="http://www.w3.org/2000/svg">
<path d="M25.6769 122.18C25.9871 135.886 27.5141 149.948 30.757 163.898C30.8278 164.212 30.902 164.52 30.9761 164.834H49.9347C49.9144 164.553 49.8942 164.24 49.874 163.898C48.6098 143.731 41.3217 20.9902 50.0358 0C49.2739 1.70279 24.2072 58.1007 25.6769 122.18Z" fill="#16C995"/>
<path d="M27.0994 163.898C27.2578 164.211 27.423 164.525 27.5915 164.834H41.8138C41.7059 164.567 41.5812 164.254 41.4363 163.898C39.0867 158.013 32.1323 140.419 25.6768 122.18C18.7393 102.579 12.3748 82.2343 12.9108 74.8711C12.7457 76.5318 7.94535 127.157 27.0994 163.898Z" fill="#16C995"/>
<path d="M199.013 46.2475L197.82 55.4296L197.098 61.0028L196.559 65.1402L180.741 81.2182L176.106 84.1991C175.679 84.4739 175.198 84.655 174.696 84.7305C174.194 84.8061 173.681 84.7743 173.192 84.6374C172.702 84.5004 172.248 84.2613 171.858 83.936C171.468 83.6106 171.151 83.2063 170.929 82.7496C170.706 82.293 170.583 81.7945 170.568 81.2869C170.552 80.7793 170.644 80.2741 170.838 79.8047C171.032 79.3354 171.323 78.9124 171.693 78.5637C172.062 78.215 172.501 77.9486 172.981 77.7819L178.065 76.0173L188.777 62.1094L189.265 59.3909L195.655 37.8861C196.307 36.7961 196.746 40.7707 197.65 39.8801C197.919 40.1792 199.738 36.5701 199.977 36.8891C202.211 39.8568 199.502 42.4789 199.013 46.2475Z" fill="#FFB6B6"/>
<path d="M201.769 158.095H196.837V110.15L208.044 109.926L201.769 158.095Z" fill="#FFB6B6"/>
<path d="M225.527 158.095H230.458V110.15L219.251 109.926L225.527 158.095Z" fill="#FFB6B6"/>
<path d="M207.82 28.5988C212.4 28.5988 216.113 24.8874 216.113 20.3092C216.113 15.7309 212.4 12.0195 207.82 12.0195C203.24 12.0195 199.527 15.7309 199.527 20.3092C199.527 24.8874 203.24 28.5988 207.82 28.5988Z" fill="#FFB6B6"/>
<path d="M221.941 32.1833L220.596 40.2488L204.906 41.145V31.4291C208.143 30.0381 207.415 28.006 204.906 25.686L214.993 22.7734C215.37 26.112 215.964 29.2171 218.744 29.9707C219.964 30.2816 221.043 30.9967 221.805 31.9992L221.941 32.1833Z" fill="#FFB6B6"/>
<path d="M232.475 111.271L216.225 111.831L214.208 99.2845L211.406 111.271L194.82 111.719L196.165 89.7626L227.32 82.3691C231.006 91.5468 232.761 101.385 232.475 111.271Z" fill="#475569"/>
<path d="M199.455 164.764L188.963 164.668C188.46 164.792 187.936 164.8 187.43 164.692C186.924 164.584 186.45 164.362 186.042 164.043C185.635 163.724 185.305 163.317 185.079 162.852C184.852 162.387 184.734 161.876 184.734 161.359C184.734 160.717 184.915 160.088 185.257 159.544C185.599 159.001 186.087 158.565 186.666 158.287L189.059 157.136L196.837 151.822L202.441 153.391L203.514 158.218C203.826 159.623 203.577 161.094 202.818 162.317C202.06 163.541 200.852 164.419 199.455 164.764Z" fill="#475569"/>
<path d="M227.696 164.706L217.204 164.61C216.702 164.734 216.178 164.742 215.672 164.634C215.166 164.525 214.691 164.303 214.283 163.984C213.876 163.665 213.546 163.258 213.32 162.793C213.093 162.328 212.975 161.817 212.975 161.3C212.975 160.658 213.157 160.029 213.498 159.486C213.84 158.942 214.329 158.506 214.907 158.228L217.301 157.077L225.079 151.764L230.682 153.332L231.755 158.159C232.068 159.564 231.818 161.036 231.059 162.259C230.301 163.482 229.094 164.36 227.696 164.706Z" fill="#475569"/>
<path d="M204.234 17.2414C201.222 19.3329 197.278 16.4367 198.359 12.933C199.253 10.0344 201.508 7.2032 206.924 7.31368C217.906 7.53772 219.325 18.5276 215.702 22.8906C215.702 22.8906 215.217 16.0514 214.096 17.1716C212.975 18.2918 211.182 17.6197 211.182 17.6197C211.182 17.6197 212.079 13.3629 207.82 15.1552C206.554 15.721 205.352 16.4204 204.234 17.2414Z" fill="#475569"/>
<path d="M228.217 84.162C219.235 91.4407 208.614 94.0702 195.941 90.8833C199.161 74.6684 198.541 57.4304 195.941 39.6645C195.941 38.4961 196.269 37.3513 196.889 36.3604C197.508 35.3696 198.393 34.5726 199.444 34.0604L205.131 31.2876C210.178 38.4539 214.823 36.6259 219.251 29.9434L225.525 32.2379C226.379 32.5502 227.116 33.118 227.635 33.8641C228.155 34.6101 228.431 35.4981 228.427 36.4069C227.571 54.4331 227.045 71.5757 228.217 84.162Z" fill="#766DF4"/>
<path d="M200.872 63.7743L198.075 63.1994L197.098 62.9967L189.265 61.3849L185.631 60.6371L191.779 42.7048C192.542 40.4825 193.81 38.4669 195.482 36.816C196.783 35.5332 198.305 34.4953 199.974 33.752V33.8018L200.872 63.7743Z" fill="#766DF4"/>
<path d="M230.234 81.9202L227.617 89.3552C227.424 89.9041 227.359 90.4901 227.429 91.0679C227.498 91.6456 227.7 92.1997 228.018 92.6871C228.336 93.1746 228.762 93.5824 229.263 93.879C229.764 94.1756 230.326 94.3531 230.906 94.3977C231.406 94.4361 231.907 94.3754 232.383 94.2191C232.859 94.0628 233.299 93.8141 233.678 93.4871C234.057 93.1602 234.367 92.7615 234.591 92.3141C234.816 91.8667 234.949 91.3794 234.984 90.8802L235.613 81.9202L234.941 57.2754L227.993 57.9475L230.234 81.9202Z" fill="#FFB6B6"/>
<path d="M239.199 56.8273L224.406 61.0841L224.182 31.7344C226.537 31.8651 228.791 32.728 230.631 34.2024C232.471 35.6768 233.804 37.6889 234.443 39.9576L239.199 56.8273Z" fill="#766DF4"/>
<path d="M52.0015 45.6367C51.6048 45.6372 51.2245 45.7948 50.944 46.0752C50.6636 46.3556 50.5058 46.7357 50.5054 47.1322V78.3709C50.5058 78.7673 50.6636 79.1475 50.944 79.4278C51.2245 79.7082 51.6048 79.8659 52.0015 79.8663H173.351C173.748 79.8659 174.128 79.7082 174.408 79.4278C174.689 79.1475 174.847 78.7673 174.847 78.3709V47.1322C174.847 46.7357 174.689 46.3556 174.408 46.0752C174.128 45.7948 173.748 45.6372 173.351 45.6367H52.0015Z" fill="#766DF4"/>
<path d="M173.351 164.942H52.0013C51.3402 164.942 50.7064 164.679 50.2389 164.212C49.7715 163.744 49.5085 163.111 49.5078 162.45V47.4651C49.5085 46.8043 49.7715 46.1707 50.2389 45.7035C50.7064 45.2362 51.3402 44.9734 52.0013 44.9727H173.351C174.012 44.9734 174.646 45.2362 175.113 45.7035C175.581 46.1707 175.843 46.8043 175.844 47.4651V162.45C175.843 163.111 175.581 163.744 175.113 164.212C174.646 164.679 174.012 164.942 173.351 164.942ZM52.0013 45.9696C51.6046 45.9701 51.2244 46.1278 50.9439 46.4081C50.6634 46.6885 50.5056 47.0686 50.5052 47.4651V162.45C50.5056 162.846 50.6634 163.227 50.9439 163.507C51.2244 163.787 51.6046 163.945 52.0013 163.945H173.351C173.747 163.945 174.128 163.787 174.408 163.507C174.689 163.227 174.846 162.846 174.847 162.45V47.4651C174.846 47.0686 174.689 46.6885 174.408 46.4081C174.128 46.1278 173.747 45.9701 173.351 45.9696H52.0013Z" fill="currentColor"/>
<path d="M91.019 92.7268C90.5004 92.7354 90.0059 92.9473 89.6421 93.317C89.2783 93.6866 89.0745 94.1843 89.0745 94.7028C89.0745 95.2214 89.2783 95.7191 89.6421 96.0887C90.0059 96.4584 90.5004 96.6703 91.019 96.6789H158.87C159.394 96.6869 159.9 96.4867 160.276 96.1222C160.653 95.7578 160.869 95.259 160.877 94.7353C160.886 94.2116 160.686 93.7059 160.322 93.3293C159.958 92.9527 159.459 92.736 158.935 92.7268C158.914 92.7265 158.892 92.7265 158.87 92.7268H91.019Z" fill="#E5E7EB"/>
<path d="M91.019 103.03C90.5004 103.038 90.0059 103.25 89.6421 103.62C89.2783 103.989 89.0745 104.487 89.0745 105.006C89.0745 105.524 89.2783 106.022 89.6421 106.391C90.0059 106.761 90.5004 106.973 91.019 106.982H158.87C159.394 106.99 159.9 106.789 160.276 106.425C160.653 106.061 160.869 105.562 160.877 105.038C160.886 104.514 160.686 104.009 160.322 103.632C159.958 103.255 159.459 103.039 158.935 103.03C158.914 103.029 158.892 103.029 158.87 103.03H91.019Z" fill="#E5E7EB"/>
<path d="M91.019 113.33C90.5004 113.339 90.0059 113.551 89.6421 113.92C89.2783 114.29 89.0745 114.788 89.0745 115.306C89.0745 115.825 89.2783 116.323 89.6421 116.692C90.0059 117.062 90.5004 117.274 91.019 117.282H158.87C159.394 117.29 159.9 117.09 160.276 116.726C160.653 116.361 160.869 115.862 160.877 115.339C160.886 114.815 160.686 114.309 160.322 113.933C159.958 113.556 159.459 113.34 158.935 113.33C158.914 113.33 158.892 113.33 158.87 113.33H91.019Z" fill="#E5E7EB"/>
<path d="M91.019 123.633C90.5004 123.642 90.0059 123.854 89.6421 124.223C89.2783 124.593 89.0745 125.091 89.0745 125.609C89.0745 126.128 89.2783 126.625 89.6421 126.995C90.0059 127.365 90.5004 127.577 91.019 127.585H158.87C159.394 127.593 159.9 127.393 160.276 127.029C160.653 126.664 160.869 126.165 160.877 125.642C160.886 125.118 160.686 124.612 160.322 124.236C159.958 123.859 159.459 123.642 158.935 123.633C158.914 123.633 158.892 123.633 158.87 123.633H91.019Z" fill="#E5E7EB"/>
<path d="M91.019 133.936C90.5004 133.944 90.0059 134.156 89.6421 134.526C89.2783 134.896 89.0745 135.393 89.0745 135.912C89.0745 136.43 89.2783 136.928 89.6421 137.298C90.0059 137.667 90.5004 137.879 91.019 137.888H158.87C159.394 137.896 159.9 137.696 160.276 137.331C160.653 136.967 160.869 136.468 160.877 135.944C160.886 135.421 160.686 134.915 160.322 134.538C159.958 134.162 159.459 133.945 158.935 133.936C158.914 133.935 158.892 133.935 158.87 133.936H91.019Z" fill="#E5E7EB"/>
<path d="M91.019 144.237C90.5004 144.245 90.0059 144.457 89.6421 144.827C89.2783 145.196 89.0745 145.694 89.0745 146.213C89.0745 146.731 89.2783 147.229 89.6421 147.599C90.0059 147.968 90.5004 148.18 91.019 148.189H158.87C159.394 148.197 159.9 147.996 160.276 147.632C160.653 147.268 160.869 146.769 160.877 146.245C160.886 145.721 160.686 145.216 160.322 144.839C159.958 144.462 159.459 144.246 158.935 144.237C158.914 144.236 158.892 144.236 158.87 144.237H91.019Z" fill="#E5E7EB"/>
<path d="M75.7446 62.7513C75.7446 64.3288 75.2767 65.8708 74.3999 67.1824C73.5232 68.494 72.277 69.5163 70.819 70.12C69.361 70.7237 67.7567 70.8816 66.2089 70.5739C64.6611 70.2661 63.2393 69.5065 62.1234 68.391C61.0075 67.2756 60.2476 65.8545 59.9397 64.3073C59.6318 62.7601 59.7898 61.1565 60.3938 59.6991C60.9977 58.2417 62.0204 56.996 63.3325 56.1196C64.6447 55.2432 66.1874 54.7755 67.7655 54.7755C68.8146 54.771 69.8542 54.9742 70.8243 55.3735C71.7944 55.7727 72.6758 56.36 73.4176 57.1015C74.1594 57.843 74.747 58.7241 75.1464 59.6938C75.5458 60.6635 75.7491 61.7026 75.7446 62.7513Z" fill="white"/>
<path d="M82.0752 56.4554C81.5566 56.464 81.0622 56.676 80.6986 57.0456C80.3349 57.4153 80.1311 57.9129 80.1311 58.4314C80.1311 58.9498 80.3349 59.4475 80.6986 59.8171C81.0622 60.1867 81.5566 60.3987 82.0752 60.4074H131.641C132.164 60.4143 132.669 60.2137 133.044 59.8493C133.42 59.485 133.635 58.9867 133.644 58.4637C133.653 57.9407 133.453 57.4356 133.09 57.0591C132.727 56.6827 132.229 56.4656 131.706 56.4554C131.684 56.455 131.662 56.455 131.641 56.4554H82.0752Z" fill="white"/>
<path d="M82.0752 65.096C81.5566 65.1046 81.0622 65.3166 80.6986 65.6863C80.3349 66.0559 80.1311 66.5536 80.1311 67.072C80.1311 67.5904 80.3349 68.0881 80.6986 68.4577C81.0622 68.8273 81.5566 69.0393 82.0752 69.048H163.557C164.081 69.055 164.585 68.8543 164.961 68.49C165.336 68.1256 165.552 67.6273 165.561 67.1043C165.569 66.5813 165.37 66.0762 165.007 65.6998C164.643 65.3233 164.146 65.1062 163.622 65.096C163.601 65.0956 163.579 65.0956 163.557 65.096H82.0752Z" fill="white"/>
<path d="M78.2953 98.3698C77.572 98.3698 76.8649 98.1554 76.2635 97.7537C75.6621 97.352 75.1934 96.7811 74.9166 96.1131C74.6398 95.4451 74.5673 94.7101 74.7085 94.001C74.8496 93.2919 75.1979 92.6405 75.7093 92.1293C76.2208 91.618 76.8724 91.2699 77.5818 91.1288C78.2912 90.9878 79.0266 91.0602 79.6948 91.3369C80.3631 91.6135 80.9342 92.0821 81.3361 92.6832C81.7379 93.2844 81.9524 93.9912 81.9524 94.7142C81.9513 95.6834 81.5657 96.6125 80.8801 97.2979C80.1945 97.9832 79.2649 98.3687 78.2953 98.3698ZM78.2953 91.7232C77.7035 91.7232 77.125 91.8987 76.6329 92.2273C76.1409 92.556 75.7574 93.0231 75.5309 93.5696C75.3044 94.1161 75.2452 94.7175 75.3606 95.2977C75.4761 95.8779 75.761 96.4108 76.1795 96.8291C76.598 97.2474 77.1311 97.5322 77.7116 97.6476C78.292 97.763 78.8936 97.7038 79.4404 97.4774C79.9871 97.2511 80.4544 96.8677 80.7832 96.3759C81.112 95.884 81.2875 95.3057 81.2875 94.7142C81.2866 93.9212 80.9711 93.161 80.4101 92.6003C79.8492 92.0395 79.0886 91.7241 78.2953 91.7232Z" fill="#E5E7EB"/>
<path d="M78.2953 108.671C77.572 108.671 76.8649 108.456 76.2635 108.054C75.6621 107.653 75.1934 107.082 74.9166 106.414C74.6398 105.746 74.5673 105.011 74.7085 104.302C74.8496 103.593 75.1979 102.941 75.7093 102.43C76.2208 101.919 76.8724 101.571 77.5818 101.43C78.2912 101.289 79.0266 101.361 79.6948 101.638C80.3631 101.914 80.9342 102.383 81.3361 102.984C81.7379 103.585 81.9524 104.292 81.9524 105.015C81.9513 105.984 81.5657 106.913 80.8801 107.599C80.1945 108.284 79.2649 108.669 78.2953 108.671ZM78.2953 102.024C77.7035 102.024 77.125 102.199 76.6329 102.528C76.1409 102.857 75.7574 103.324 75.5309 103.87C75.3044 104.417 75.2452 105.018 75.3606 105.598C75.4761 106.179 75.761 106.712 76.1795 107.13C76.598 107.548 77.1311 107.833 77.7116 107.948C78.292 108.064 78.8936 108.005 79.4404 107.778C79.9871 107.552 80.4544 107.168 80.7832 106.677C81.112 106.185 81.2875 105.607 81.2875 105.015C81.2866 104.222 80.9711 103.462 80.4101 102.901C79.8492 102.34 79.0886 102.025 78.2953 102.024Z" fill="#E5E7EB"/>
<path d="M78.2953 118.962C77.572 118.962 76.8649 118.747 76.2635 118.345C75.6621 117.944 75.1934 117.373 74.9166 116.705C74.6398 116.037 74.5673 115.302 74.7085 114.593C74.8496 113.884 75.1979 113.232 75.7093 112.721C76.2208 112.21 76.8724 111.862 77.5818 111.721C78.2912 111.58 79.0266 111.652 79.6948 111.929C80.3631 112.205 80.9342 112.674 81.3361 113.275C81.7379 113.876 81.9524 114.583 81.9524 115.306C81.9513 116.275 81.5657 117.204 80.8801 117.89C80.1945 118.575 79.2649 118.96 78.2953 118.962ZM78.2953 112.315C77.7035 112.315 77.125 112.49 76.6329 112.819C76.1409 113.148 75.7574 113.615 75.5309 114.161C75.3044 114.708 75.2452 115.309 75.3606 115.889C75.4761 116.47 75.761 117.003 76.1795 117.421C76.598 117.839 77.1311 118.124 77.7116 118.239C78.292 118.355 78.8936 118.296 79.4404 118.069C79.9871 117.843 80.4544 117.46 80.7832 116.968C81.112 116.476 81.2875 115.898 81.2875 115.306C81.2866 114.513 80.9711 113.753 80.4101 113.192C79.8492 112.631 79.0886 112.316 78.2953 112.315Z" fill="#E5E7EB"/>
<path d="M78.2953 129.264C77.572 129.264 76.8649 129.05 76.2635 128.648C75.6621 128.247 75.1934 127.676 74.9166 127.008C74.6398 126.34 74.5673 125.605 74.7085 124.896C74.8496 124.186 75.1979 123.535 75.7093 123.024C76.2208 122.513 76.8724 122.164 77.5818 122.023C78.2912 121.882 79.0266 121.955 79.6948 122.231C80.3631 122.508 80.9342 122.977 81.3361 123.578C81.7379 124.179 81.9524 124.886 81.9524 125.609C81.9513 126.578 81.5657 127.507 80.8801 128.192C80.1945 128.878 79.2649 129.263 78.2953 129.264ZM78.2953 122.618C77.7035 122.618 77.125 122.793 76.6329 123.122C76.1409 123.45 75.7574 123.918 75.5309 124.464C75.3044 125.011 75.2452 125.612 75.3606 126.192C75.4761 126.772 75.761 127.305 76.1795 127.724C76.598 128.142 77.1311 128.427 77.7116 128.542C78.292 128.658 78.8936 128.598 79.4404 128.372C79.9871 128.146 80.4544 127.762 80.7832 127.27C81.112 126.779 81.2875 126.2 81.2875 125.609C81.2866 124.816 80.9711 124.055 80.4101 123.495C79.8492 122.934 79.0886 122.619 78.2953 122.618Z" fill="#E5E7EB"/>
<path d="M78.2953 139.567C77.572 139.567 76.8649 139.353 76.2635 138.951C75.6621 138.549 75.1934 137.978 74.9166 137.31C74.6398 136.642 74.5673 135.907 74.7085 135.198C74.8496 134.489 75.1979 133.838 75.7093 133.327C76.2208 132.815 76.8724 132.467 77.5818 132.326C78.2912 132.185 79.0266 132.257 79.6948 132.534C80.3631 132.811 80.9342 133.279 81.3361 133.881C81.7379 134.482 81.9524 135.188 81.9524 135.911C81.9513 136.881 81.5657 137.81 80.8801 138.495C80.1945 139.18 79.2649 139.566 78.2953 139.567ZM78.2953 132.921C77.7035 132.921 77.125 133.096 76.6329 133.425C76.1409 133.753 75.7574 134.22 75.5309 134.767C75.3044 135.313 75.2452 135.915 75.3606 136.495C75.4761 137.075 75.761 137.608 76.1795 138.026C76.598 138.445 77.1311 138.73 77.7116 138.845C78.292 138.96 78.8936 138.901 79.4404 138.675C79.9871 138.448 80.4544 138.065 80.7832 137.573C81.112 137.081 81.2875 136.503 81.2875 135.911C81.2866 135.118 80.9711 134.358 80.4101 133.798C79.8492 133.237 79.0886 132.921 78.2953 132.921Z" fill="#E5E7EB"/>
<path d="M78.2953 149.87C77.572 149.87 76.8649 149.655 76.2635 149.254C75.6621 148.852 75.1934 148.281 74.9166 147.613C74.6398 146.945 74.5673 146.21 74.7085 145.501C74.8496 144.792 75.1979 144.141 75.7093 143.629C76.2208 143.118 76.8724 142.77 77.5818 142.629C78.2912 142.488 79.0266 142.56 79.6948 142.837C80.3631 143.114 80.9342 143.582 81.3361 144.183C81.7379 144.784 81.9524 145.491 81.9524 146.214C81.9513 147.183 81.5657 148.113 80.8801 148.798C80.1945 149.483 79.2649 149.869 78.2953 149.87ZM78.2953 143.223C77.7035 143.223 77.125 143.399 76.6329 143.727C76.1409 144.056 75.7574 144.523 75.5309 145.07C75.3044 145.616 75.2452 146.217 75.3606 146.798C75.4761 147.378 75.761 147.911 76.1795 148.329C76.598 148.747 77.1311 149.032 77.7116 149.148C78.292 149.263 78.8936 149.204 79.4404 148.977C79.9871 148.751 80.4544 148.368 80.7832 147.876C81.112 147.384 81.2875 146.806 81.2875 146.214C81.2866 145.421 80.9711 144.661 80.4101 144.1C79.8492 143.54 79.0886 143.224 78.2953 143.223Z" fill="#E5E7EB"/>
<path d="M78.2954 96.374C79.2135 96.374 79.9577 95.6301 79.9577 94.7124C79.9577 93.7947 79.2135 93.0508 78.2954 93.0508C77.3773 93.0508 76.6331 93.7947 76.6331 94.7124C76.6331 95.6301 77.3773 96.374 78.2954 96.374Z" fill="#766DF4"/>
<path d="M78.2954 116.98C79.2135 116.98 79.9577 116.236 79.9577 115.318C79.9577 114.4 79.2135 113.656 78.2954 113.656C77.3773 113.656 76.6331 114.4 76.6331 115.318C76.6331 116.236 77.3773 116.98 78.2954 116.98Z" fill="#766DF4"/>
<path d="M78.2954 127.282C79.2135 127.282 79.9577 126.538 79.9577 125.621C79.9577 124.703 79.2135 123.959 78.2954 123.959C77.3773 123.959 76.6331 124.703 76.6331 125.621C76.6331 126.538 77.3773 127.282 78.2954 127.282Z" fill="#766DF4"/>
<path d="M255 164.336H0V165.001H255V164.336Z" fill="currentColor"/>
</svg>
