<svg width="48" height="48" viewBox="0 0 48 48" fill="none" xmlns="http://www.w3.org/2000/svg">
<path d="M4 20C4 16.6863 6.6863 14 10 14H38C41.3138 14 44 16.6863 44 20V38C44 41.3138 41.3138 44 38 44H10C6.6863 44 4 41.3138 4 38V20Z" fill="#F9FAFB"/>
<path opacity="0.25" fill-rule="evenodd" clip-rule="evenodd" d="M18 8C16.8954 8 16 8.89544 16 10V16C16 17.1046 15.1046 18 14 18C12.8954 18 12 17.1046 12 16V10C12 6.6863 14.6863 4 18 4H30C33.3138 4 36 6.6863 36 10V16C36 17.1046 35.1046 18 34 18C32.8954 18 32 17.1046 32 16V10C32 8.89544 31.1046 8 30 8H18Z" fill="#F9FAFB"/>
<path d="M28.7446 25.8176C28.4039 25.4557 28.4212 24.8861 28.7832 24.5454C29.1451 24.2047 29.7147 24.222 30.0554 24.584L33.6554 28.409C33.9815 28.7555 33.9815 29.2961 33.6554 29.6426L30.0554 33.4676C29.7147 33.8296 29.1451 33.8468 28.7832 33.5062C28.4212 33.1655 28.4039 32.5959 28.7446 32.234L31.7641 29.0258L28.7446 25.8176ZM19.2554 25.8176L16.2359 29.0258L19.2554 32.234C19.596 32.5959 19.5788 33.1655 19.2168 33.5062C18.8548 33.8468 18.2853 33.8296 17.9446 33.4676L14.3446 29.6426C14.0184 29.2961 14.0184 28.7555 14.3446 28.409L17.9446 24.584C18.2853 24.222 18.8548 24.2047 19.2168 24.5454C19.5788 24.8861 19.596 25.4557 19.2554 25.8176Z" fill="#6366F1"/>
<path opacity="0.3" d="M26.4997 22.9485C26.6284 22.4684 26.3435 21.9749 25.8634 21.8462C25.3832 21.7176 24.8897 22.0025 24.7611 22.4826L21.5 34.6533C21.3713 35.1334 21.6562 35.6269 22.1364 35.7555C22.6165 35.8842 23.11 35.5993 23.2386 35.1192L26.4997 22.9485Z" fill="#6366F1"/>
</svg>
