<svg width="147" height="106" viewBox="0 0 147 106" fill="none" xmlns="http://www.w3.org/2000/svg">
<path d="M5.09558 8.20249C7.3575 8.20249 9.19115 6.3663 9.19115 4.10125C9.19115 1.83619 7.3575 0 5.09558 0C2.83365 0 1 1.83619 1 4.10125C1 6.3663 2.83365 8.20249 5.09558 8.20249Z" fill="#6366F1"/>
<path d="M5.09558 24.5482C7.3575 24.5482 9.19115 22.712 9.19115 20.4469C9.19115 18.1819 7.3575 16.3457 5.09558 16.3457C2.83365 16.3457 1 18.1819 1 20.4469C1 22.712 2.83365 24.5482 5.09558 24.5482Z" fill="#6366F1"/>
<path d="M5.09558 40.8939C7.3575 40.8939 9.19115 39.0577 9.19115 36.7927C9.19115 34.5276 7.3575 32.6914 5.09558 32.6914C2.83365 32.6914 1 34.5276 1 36.7927C1 39.0577 2.83365 40.8939 5.09558 40.8939Z" fill="#6366F1"/>
<path d="M5.09558 57.2376C7.3575 57.2376 9.19115 55.4015 9.19115 53.1364C9.19115 50.8713 7.3575 49.0352 5.09558 49.0352C2.83365 49.0352 1 50.8713 1 53.1364C1 55.4015 2.83365 57.2376 5.09558 57.2376Z" fill="#6366F1"/>
<path d="M4.09558 73.2025C6.3575 73.2025 8.19115 71.3663 8.19115 69.1012C8.19115 66.8362 6.3575 65 4.09558 65C1.83365 65 0 66.8362 0 69.1012C0 71.3663 1.83365 73.2025 4.09558 73.2025Z" fill="#6366F1"/>
<path d="M4.09558 89.2025C6.3575 89.2025 8.19115 87.3663 8.19115 85.1012C8.19115 82.8362 6.3575 81 4.09558 81C1.83365 81 0 82.8362 0 85.1012C0 87.3663 1.83365 89.2025 4.09558 89.2025Z" fill="#6366F1"/>
<path d="M4.09558 105.202C6.3575 105.202 8.19115 103.366 8.19115 101.101C8.19115 98.8362 6.3575 97 4.09558 97C1.83365 97 0 98.8362 0 101.101C0 103.366 1.83365 105.202 4.09558 105.202Z" fill="#6366F1"/>
<path d="M22.1952 8.20249C24.4571 8.20249 26.2908 6.3663 26.2908 4.10125C26.2908 1.83619 24.4571 0 22.1952 0C19.9333 0 18.0996 1.83619 18.0996 4.10125C18.0996 6.3663 19.9333 8.20249 22.1952 8.20249Z" fill="#6366F1"/>
<path d="M22.1952 24.5482C24.4571 24.5482 26.2908 22.712 26.2908 20.4469C26.2908 18.1819 24.4571 16.3457 22.1952 16.3457C19.9333 16.3457 18.0996 18.1819 18.0996 20.4469C18.0996 22.712 19.9333 24.5482 22.1952 24.5482Z" fill="#6366F1"/>
<path d="M22.1952 40.8939C24.4571 40.8939 26.2908 39.0577 26.2908 36.7927C26.2908 34.5276 24.4571 32.6914 22.1952 32.6914C19.9333 32.6914 18.0996 34.5276 18.0996 36.7927C18.0996 39.0577 19.9333 40.8939 22.1952 40.8939Z" fill="#6366F1"/>
<path d="M22.1952 57.2376C24.4571 57.2376 26.2908 55.4015 26.2908 53.1364C26.2908 50.8713 24.4571 49.0352 22.1952 49.0352C19.9333 49.0352 18.0996 50.8713 18.0996 53.1364C18.0996 55.4015 19.9333 57.2376 22.1952 57.2376Z" fill="#6366F1"/>
<path d="M21.1952 73.2025C23.4571 73.2025 25.2908 71.3663 25.2908 69.1012C25.2908 66.8362 23.4571 65 21.1952 65C18.9333 65 17.0996 66.8362 17.0996 69.1012C17.0996 71.3663 18.9333 73.2025 21.1952 73.2025Z" fill="#6366F1"/>
<path d="M21.1952 89.2025C23.4571 89.2025 25.2908 87.3663 25.2908 85.1012C25.2908 82.8362 23.4571 81 21.1952 81C18.9333 81 17.0996 82.8362 17.0996 85.1012C17.0996 87.3663 18.9333 89.2025 21.1952 89.2025Z" fill="#6366F1"/>
<path d="M21.1952 105.202C23.4571 105.202 25.2908 103.366 25.2908 101.101C25.2908 98.8362 23.4571 97 21.1952 97C18.9333 97 17.0996 98.8362 17.0996 101.101C17.0996 103.366 18.9333 105.202 21.1952 105.202Z" fill="#6366F1"/>
<path d="M39.2948 8.20249C41.5567 8.20249 43.3904 6.3663 43.3904 4.10125C43.3904 1.83619 41.5567 0 39.2948 0C37.0329 0 35.1992 1.83619 35.1992 4.10125C35.1992 6.3663 37.0329 8.20249 39.2948 8.20249Z" fill="#6366F1"/>
<path d="M39.2948 24.5482C41.5567 24.5482 43.3904 22.712 43.3904 20.4469C43.3904 18.1819 41.5567 16.3457 39.2948 16.3457C37.0329 16.3457 35.1992 18.1819 35.1992 20.4469C35.1992 22.712 37.0329 24.5482 39.2948 24.5482Z" fill="#6366F1"/>
<path d="M39.2948 40.8939C41.5567 40.8939 43.3904 39.0577 43.3904 36.7927C43.3904 34.5276 41.5567 32.6914 39.2948 32.6914C37.0329 32.6914 35.1992 34.5276 35.1992 36.7927C35.1992 39.0577 37.0329 40.8939 39.2948 40.8939Z" fill="#6366F1"/>
<path d="M39.2948 57.2376C41.5567 57.2376 43.3904 55.4015 43.3904 53.1364C43.3904 50.8713 41.5567 49.0352 39.2948 49.0352C37.0329 49.0352 35.1992 50.8713 35.1992 53.1364C35.1992 55.4015 37.0329 57.2376 39.2948 57.2376Z" fill="#6366F1"/>
<path d="M38.2948 73.2025C40.5567 73.2025 42.3904 71.3663 42.3904 69.1012C42.3904 66.8362 40.5567 65 38.2948 65C36.0329 65 34.1992 66.8362 34.1992 69.1012C34.1992 71.3663 36.0329 73.2025 38.2948 73.2025Z" fill="#6366F1"/>
<path d="M38.2948 89.2025C40.5567 89.2025 42.3904 87.3663 42.3904 85.1012C42.3904 82.8362 40.5567 81 38.2948 81C36.0329 81 34.1992 82.8362 34.1992 85.1012C34.1992 87.3663 36.0329 89.2025 38.2948 89.2025Z" fill="#6366F1"/>
<path d="M38.2948 105.202C40.5567 105.202 42.3904 103.366 42.3904 101.101C42.3904 98.8362 40.5567 97 38.2948 97C36.0329 97 34.1992 98.8362 34.1992 101.101C34.1992 103.366 36.0329 105.202 38.2948 105.202Z" fill="#6366F1"/>
<path d="M56.3942 8.20249C58.6561 8.20249 60.4897 6.3663 60.4897 4.10125C60.4897 1.83619 58.6561 0 56.3942 0C54.1322 0 52.2986 1.83619 52.2986 4.10125C52.2986 6.3663 54.1322 8.20249 56.3942 8.20249Z" fill="#6366F1"/>
<path d="M56.3942 24.5482C58.6561 24.5482 60.4897 22.712 60.4897 20.4469C60.4897 18.1819 58.6561 16.3457 56.3942 16.3457C54.1322 16.3457 52.2986 18.1819 52.2986 20.4469C52.2986 22.712 54.1322 24.5482 56.3942 24.5482Z" fill="#6366F1"/>
<path d="M56.3942 40.8939C58.6561 40.8939 60.4897 39.0577 60.4897 36.7927C60.4897 34.5276 58.6561 32.6914 56.3942 32.6914C54.1322 32.6914 52.2986 34.5276 52.2986 36.7927C52.2986 39.0577 54.1322 40.8939 56.3942 40.8939Z" fill="#6366F1"/>
<path d="M56.3942 57.2376C58.6561 57.2376 60.4897 55.4015 60.4897 53.1364C60.4897 50.8713 58.6561 49.0352 56.3942 49.0352C54.1322 49.0352 52.2986 50.8713 52.2986 53.1364C52.2986 55.4015 54.1322 57.2376 56.3942 57.2376Z" fill="#6366F1"/>
<path d="M55.3942 73.2025C57.6561 73.2025 59.4897 71.3663 59.4897 69.1012C59.4897 66.8362 57.6561 65 55.3942 65C53.1322 65 51.2986 66.8362 51.2986 69.1012C51.2986 71.3663 53.1322 73.2025 55.3942 73.2025Z" fill="#6366F1"/>
<path d="M55.3942 89.2025C57.6561 89.2025 59.4897 87.3663 59.4897 85.1012C59.4897 82.8362 57.6561 81 55.3942 81C53.1322 81 51.2986 82.8362 51.2986 85.1012C51.2986 87.3663 53.1322 89.2025 55.3942 89.2025Z" fill="#6366F1"/>
<path d="M55.3942 105.202C57.6561 105.202 59.4897 103.366 59.4897 101.101C59.4897 98.8362 57.6561 97 55.3942 97C53.1322 97 51.2986 98.8362 51.2986 101.101C51.2986 103.366 53.1322 105.202 55.3942 105.202Z" fill="#6366F1"/>
<path d="M73.4938 8.20249C75.7557 8.20249 77.5894 6.3663 77.5894 4.10125C77.5894 1.83619 75.7557 0 73.4938 0C71.2318 0 69.3982 1.83619 69.3982 4.10125C69.3982 6.3663 71.2318 8.20249 73.4938 8.20249Z" fill="#6366F1"/>
<path d="M73.4938 24.5482C75.7557 24.5482 77.5894 22.712 77.5894 20.4469C77.5894 18.1819 75.7557 16.3457 73.4938 16.3457C71.2318 16.3457 69.3982 18.1819 69.3982 20.4469C69.3982 22.712 71.2318 24.5482 73.4938 24.5482Z" fill="#6366F1"/>
<path d="M73.4938 40.8939C75.7557 40.8939 77.5894 39.0577 77.5894 36.7927C77.5894 34.5276 75.7557 32.6914 73.4938 32.6914C71.2318 32.6914 69.3982 34.5276 69.3982 36.7927C69.3982 39.0577 71.2318 40.8939 73.4938 40.8939Z" fill="#6366F1"/>
<path d="M73.4938 57.2376C75.7557 57.2376 77.5894 55.4015 77.5894 53.1364C77.5894 50.8713 75.7557 49.0352 73.4938 49.0352C71.2318 49.0352 69.3982 50.8713 69.3982 53.1364C69.3982 55.4015 71.2318 57.2376 73.4938 57.2376Z" fill="#6366F1"/>
<path d="M72.4938 73.2025C74.7557 73.2025 76.5894 71.3663 76.5894 69.1012C76.5894 66.8362 74.7557 65 72.4938 65C70.2318 65 68.3982 66.8362 68.3982 69.1012C68.3982 71.3663 70.2318 73.2025 72.4938 73.2025Z" fill="#6366F1"/>
<path d="M72.4938 89.2025C74.7557 89.2025 76.5894 87.3663 76.5894 85.1012C76.5894 82.8362 74.7557 81 72.4938 81C70.2318 81 68.3982 82.8362 68.3982 85.1012C68.3982 87.3663 70.2318 89.2025 72.4938 89.2025Z" fill="#6366F1"/>
<path d="M72.4938 105.202C74.7557 105.202 76.5894 103.366 76.5894 101.101C76.5894 98.8362 74.7557 97 72.4938 97C70.2318 97 68.3982 98.8362 68.3982 101.101C68.3982 103.366 70.2318 105.202 72.4938 105.202Z" fill="#6366F1"/>
<path d="M90.5931 8.20249C92.855 8.20249 94.6887 6.3663 94.6887 4.10125C94.6887 1.83619 92.855 0 90.5931 0C88.3312 0 86.4976 1.83619 86.4976 4.10125C86.4976 6.3663 88.3312 8.20249 90.5931 8.20249Z" fill="#6366F1"/>
<path d="M108.096 8.20249C110.357 8.20249 112.191 6.3663 112.191 4.10125C112.191 1.83619 110.357 0 108.096 0C105.834 0 104 1.83619 104 4.10125C104 6.3663 105.834 8.20249 108.096 8.20249Z" fill="#6366F1"/>
<path d="M125.096 8.20249C127.357 8.20249 129.191 6.3663 129.191 4.10125C129.191 1.83619 127.357 0 125.096 0C122.834 0 121 1.83619 121 4.10125C121 6.3663 122.834 8.20249 125.096 8.20249Z" fill="#6366F1"/>
<path d="M142.096 8.20249C144.357 8.20249 146.191 6.3663 146.191 4.10125C146.191 1.83619 144.357 0 142.096 0C139.834 0 138 1.83619 138 4.10125C138 6.3663 139.834 8.20249 142.096 8.20249Z" fill="#6366F1"/>
<path d="M90.5931 24.5482C92.855 24.5482 94.6887 22.712 94.6887 20.4469C94.6887 18.1819 92.855 16.3457 90.5931 16.3457C88.3312 16.3457 86.4976 18.1819 86.4976 20.4469C86.4976 22.712 88.3312 24.5482 90.5931 24.5482Z" fill="#6366F1"/>
<path d="M108.096 24.5482C110.357 24.5482 112.191 22.712 112.191 20.4469C112.191 18.1819 110.357 16.3457 108.096 16.3457C105.834 16.3457 104 18.1819 104 20.4469C104 22.712 105.834 24.5482 108.096 24.5482Z" fill="#6366F1"/>
<path d="M125.096 24.5482C127.357 24.5482 129.191 22.712 129.191 20.4469C129.191 18.1819 127.357 16.3457 125.096 16.3457C122.834 16.3457 121 18.1819 121 20.4469C121 22.712 122.834 24.5482 125.096 24.5482Z" fill="#6366F1"/>
<path d="M142.096 24.5482C144.357 24.5482 146.191 22.712 146.191 20.4469C146.191 18.1819 144.357 16.3457 142.096 16.3457C139.834 16.3457 138 18.1819 138 20.4469C138 22.712 139.834 24.5482 142.096 24.5482Z" fill="#6366F1"/>
<path d="M90.5931 40.8939C92.855 40.8939 94.6887 39.0577 94.6887 36.7927C94.6887 34.5276 92.855 32.6914 90.5931 32.6914C88.3312 32.6914 86.4976 34.5276 86.4976 36.7927C86.4976 39.0577 88.3312 40.8939 90.5931 40.8939Z" fill="#6366F1"/>
<path d="M108.096 40.8939C110.357 40.8939 112.191 39.0577 112.191 36.7927C112.191 34.5276 110.357 32.6914 108.096 32.6914C105.834 32.6914 104 34.5276 104 36.7927C104 39.0577 105.834 40.8939 108.096 40.8939Z" fill="#6366F1"/>
<path d="M125.096 40.8939C127.357 40.8939 129.191 39.0577 129.191 36.7927C129.191 34.5276 127.357 32.6914 125.096 32.6914C122.834 32.6914 121 34.5276 121 36.7927C121 39.0577 122.834 40.8939 125.096 40.8939Z" fill="#6366F1"/>
<path d="M142.096 40.8939C144.357 40.8939 146.191 39.0577 146.191 36.7927C146.191 34.5276 144.357 32.6914 142.096 32.6914C139.834 32.6914 138 34.5276 138 36.7927C138 39.0577 139.834 40.8939 142.096 40.8939Z" fill="#6366F1"/>
<path d="M90.5931 57.2376C92.855 57.2376 94.6887 55.4015 94.6887 53.1364C94.6887 50.8713 92.855 49.0352 90.5931 49.0352C88.3312 49.0352 86.4976 50.8713 86.4976 53.1364C86.4976 55.4015 88.3312 57.2376 90.5931 57.2376Z" fill="#6366F1"/>
<path d="M89.5931 73.2025C91.855 73.2025 93.6887 71.3663 93.6887 69.1012C93.6887 66.8362 91.855 65 89.5931 65C87.3312 65 85.4976 66.8362 85.4976 69.1012C85.4976 71.3663 87.3312 73.2025 89.5931 73.2025Z" fill="#6366F1"/>
<path d="M89.5931 89.2025C91.855 89.2025 93.6887 87.3663 93.6887 85.1012C93.6887 82.8362 91.855 81 89.5931 81C87.3312 81 85.4976 82.8362 85.4976 85.1012C85.4976 87.3663 87.3312 89.2025 89.5931 89.2025Z" fill="#6366F1"/>
<path d="M89.5931 105.202C91.855 105.202 93.6887 103.366 93.6887 101.101C93.6887 98.8362 91.855 97 89.5931 97C87.3312 97 85.4976 98.8362 85.4976 101.101C85.4976 103.366 87.3312 105.202 89.5931 105.202Z" fill="#6366F1"/>
<path d="M108.096 57.2376C110.357 57.2376 112.191 55.4015 112.191 53.1364C112.191 50.8713 110.357 49.0352 108.096 49.0352C105.834 49.0352 104 50.8713 104 53.1364C104 55.4015 105.834 57.2376 108.096 57.2376Z" fill="#6366F1"/>
<path d="M107.096 73.2025C109.357 73.2025 111.191 71.3663 111.191 69.1012C111.191 66.8362 109.357 65 107.096 65C104.834 65 103 66.8362 103 69.1012C103 71.3663 104.834 73.2025 107.096 73.2025Z" fill="#6366F1"/>
<path d="M107.096 89.2025C109.357 89.2025 111.191 87.3663 111.191 85.1012C111.191 82.8362 109.357 81 107.096 81C104.834 81 103 82.8362 103 85.1012C103 87.3663 104.834 89.2025 107.096 89.2025Z" fill="#6366F1"/>
<path d="M107.096 105.202C109.357 105.202 111.191 103.366 111.191 101.101C111.191 98.8362 109.357 97 107.096 97C104.834 97 103 98.8362 103 101.101C103 103.366 104.834 105.202 107.096 105.202Z" fill="#6366F1"/>
<path d="M125.096 57.2376C127.357 57.2376 129.191 55.4015 129.191 53.1364C129.191 50.8713 127.357 49.0352 125.096 49.0352C122.834 49.0352 121 50.8713 121 53.1364C121 55.4015 122.834 57.2376 125.096 57.2376Z" fill="#6366F1"/>
<path d="M124.096 73.2025C126.357 73.2025 128.191 71.3663 128.191 69.1012C128.191 66.8362 126.357 65 124.096 65C121.834 65 120 66.8362 120 69.1012C120 71.3663 121.834 73.2025 124.096 73.2025Z" fill="#6366F1"/>
<path d="M124.096 89.2025C126.357 89.2025 128.191 87.3663 128.191 85.1012C128.191 82.8362 126.357 81 124.096 81C121.834 81 120 82.8362 120 85.1012C120 87.3663 121.834 89.2025 124.096 89.2025Z" fill="#6366F1"/>
<path d="M124.096 105.202C126.357 105.202 128.191 103.366 128.191 101.101C128.191 98.8362 126.357 97 124.096 97C121.834 97 120 98.8362 120 101.101C120 103.366 121.834 105.202 124.096 105.202Z" fill="#6366F1"/>
<path d="M142.096 57.2376C144.357 57.2376 146.191 55.4015 146.191 53.1364C146.191 50.8713 144.357 49.0352 142.096 49.0352C139.834 49.0352 138 50.8713 138 53.1364C138 55.4015 139.834 57.2376 142.096 57.2376Z" fill="#6366F1"/>
<path d="M141.096 73.2025C143.357 73.2025 145.191 71.3663 145.191 69.1012C145.191 66.8362 143.357 65 141.096 65C138.834 65 137 66.8362 137 69.1012C137 71.3663 138.834 73.2025 141.096 73.2025Z" fill="#6366F1"/>
<path d="M141.096 89.2025C143.357 89.2025 145.191 87.3663 145.191 85.1012C145.191 82.8362 143.357 81 141.096 81C138.834 81 137 82.8362 137 85.1012C137 87.3663 138.834 89.2025 141.096 89.2025Z" fill="#6366F1"/>
<path d="M141.096 105.202C143.357 105.202 145.191 103.366 145.191 101.101C145.191 98.8362 143.357 97 141.096 97C138.834 97 137 98.8362 137 101.101C137 103.366 138.834 105.202 141.096 105.202Z" fill="#6366F1"/>
</svg>
