<?xml version="1.0" standalone="no"?>
<!DOCTYPE svg PUBLIC "-//W3C//DTD SVG 20010904//EN"
 "http://www.w3.org/TR/2001/REC-SVG-20010904/DTD/svg10.dtd">
<svg version="1.0" xmlns="http://www.w3.org/2000/svg"
 width="700.000000pt" height="700.000000pt" viewBox="0 0 700.000000 700.000000"
 preserveAspectRatio="xMidYMid meet">
<metadata>
Created by potrace 1.14, written by Peter Selinger 2001-2017
</metadata>
<g transform="translate(0.000000,700.000000) scale(0.100000,-0.100000)"
fill="#000000" stroke="none">
<path d="M999 6996 c-2 -2 -24 -6 -49 -9 -305 -39 -618 -248 -787 -527 -50
-83 -107 -217 -127 -300 -8 -36 -19 -78 -23 -95 -4 -16 -9 -1162 -10 -2545 -2
-2443 -2 -2518 17 -2606 31 -149 90 -300 151 -385 10 -15 19 -30 19 -34 0 -13
75 -101 150 -175 133 -131 308 -232 490 -281 48 -13 55 -15 140 -29 32 -5
1087 -9 2530 -9 2138 0 2487 2 2560 14 482 84 846 450 926 930 20 122 18 5004
-2 5120 -67 382 -329 710 -679 850 -98 40 -160 56 -275 75 -52 8 -5022 14
-5031 6z m3027 -1709 c39 -20 89 -72 108 -111 18 -38 25 -110 16 -151 -7 -30
-108 -408 -155 -580 -74 -273 -136 -506 -140 -522 -2 -10 -52 -196 -111 -413
-58 -217 -121 -451 -139 -520 -19 -69 -56 -210 -84 -315 -28 -104 -53 -199
-56 -210 -3 -11 -18 -69 -35 -130 -17 -60 -43 -159 -59 -220 -76 -283 -81
-298 -116 -340 -84 -103 -242 -113 -334 -23 -64 62 -90 149 -69 226 5 19 11
43 13 53 2 10 13 52 25 94 12 42 23 84 25 93 2 9 40 152 85 317 45 165 83 308
85 318 2 10 7 27 10 37 3 10 8 27 10 37 2 10 14 52 25 93 11 41 23 83 25 92 7
33 77 293 90 338 7 25 27 97 44 160 16 63 73 275 126 471 53 196 97 365 100
375 20 98 191 706 205 735 22 43 74 88 122 106 42 16 145 10 184 -10z m-1860
-632 c99 -28 164 -116 164 -221 0 -97 -7 -106 -270 -384 -76 -80 -160 -170
-188 -200 -28 -30 -85 -91 -127 -135 -146 -152 -250 -266 -250 -274 0 -5 65
-77 144 -160 80 -84 152 -161 162 -172 15 -17 67 -73 359 -382 139 -148 155
-168 166 -220 32 -148 -74 -285 -224 -288 -91 -2 -132 27 -319 227 -104 111
-316 337 -380 404 -39 41 -88 93 -108 115 -21 22 -95 101 -165 175 -158 166
-169 180 -185 234 -28 92 0 175 92 271 32 34 99 104 148 156 50 53 147 156
216 230 70 74 143 152 164 174 366 394 404 431 458 447 66 19 85 20 143 3z
m2838 -16 c28 -13 83 -63 143 -127 118 -127 142 -152 293 -312 65 -69 142
-150 170 -180 28 -30 105 -111 169 -180 65 -69 146 -154 180 -190 33 -36 70
-84 82 -108 39 -79 28 -183 -27 -247 -14 -17 -82 -90 -152 -164 -70 -74 -138
-147 -152 -161 -14 -15 -59 -63 -100 -106 -96 -102 -344 -366 -435 -463 -38
-41 -86 -90 -105 -109 -151 -149 -394 -56 -401 154 -3 71 26 128 112 218 41
44 89 95 108 115 19 20 66 70 105 111 39 41 109 116 156 166 47 49 143 152
215 228 71 75 133 143 137 150 4 7 -12 32 -40 62 -26 27 -110 117 -187 199
-77 82 -156 166 -175 186 -19 20 -87 92 -151 160 -64 68 -144 153 -178 189
-93 99 -117 164 -96 261 31 141 196 215 329 148z"/>
</g>
</svg>
