<svg width="80" height="86" viewBox="0 0 80 86" fill="none" xmlns="http://www.w3.org/2000/svg">
<path d="M30.8779 2.45636C36.5226 -0.818788 43.4774 -0.818788 49.1221 2.45636L70.3779 14.789C76.0227 18.0642 79.5 24.117 79.5 30.6673V55.3327C79.5 61.883 76.0227 67.9358 70.3779 71.211L49.1221 83.5436C43.4774 86.8188 36.5226 86.8188 30.8779 83.5436L9.62212 71.211C3.97734 67.9358 0.5 61.883 0.5 55.3327V30.6673C0.5 24.117 3.97734 18.0642 9.62212 14.789L30.8779 2.45636Z" fill="#16C995" fill-opacity="0.2"/>
<g clip-path="url(#clip0)">
<path opacity="0.3" d="M32.625 53.8337V48.4587C32.625 47.4691 33.4645 46.667 34.5 46.667C35.5355 46.667 36.375 47.4691 36.375 48.4587V53.8337H41.0625C41.5803 53.8337 42 54.2347 42 54.7295C42 55.2242 41.5803 55.6253 41.0625 55.6253H27.9375C27.4197 55.6253 27 55.2242 27 54.7295C27 54.2347 27.4197 53.8337 27.9375 53.8337H32.625Z" fill="#16C995"/>
<path d="M17.625 26.958H51.375C52.4105 26.958 53.25 27.7602 53.25 28.7497V46.6663C53.25 47.6559 52.4105 48.458 51.375 48.458H17.625C16.5895 48.458 15.75 47.6559 15.75 46.6663V28.7497C15.75 27.7602 16.5895 26.958 17.625 26.958ZM20.4375 32.333C19.9197 32.333 19.5 32.7341 19.5 33.2288C19.5 33.7236 19.9197 34.1247 20.4375 34.1247H37.3125C37.8303 34.1247 38.25 33.7236 38.25 33.2288C38.25 32.7341 37.8303 32.333 37.3125 32.333H20.4375ZM20.4375 35.9163C19.9197 35.9163 19.5 36.3174 19.5 36.8122C19.5 37.3069 19.9197 37.708 20.4375 37.708H26.0625C26.5803 37.708 27 37.3069 27 36.8122C27 36.3174 26.5803 35.9163 26.0625 35.9163H20.4375Z" fill="#16C995"/>
<path opacity="0.3" d="M57.3333 38.9795C56.7868 38.9795 56.3438 39.4225 56.3438 39.9691V53.0316C56.3438 53.5781 56.7868 54.0212 57.3333 54.0212H63.6667C64.2132 54.0212 64.6563 53.5781 64.6563 53.0316V39.9691C64.6563 39.4225 64.2132 38.9795 63.6667 38.9795H57.3333Z" fill="#16C995"/>
<path d="M57.3333 38.9795C56.7868 38.9795 56.3438 39.4225 56.3438 39.9691V53.0316C56.3438 53.5781 56.7868 54.0212 57.3333 54.0212H63.6667C64.2132 54.0212 64.6563 53.5781 64.6563 53.0316V39.9691C64.6563 39.4225 64.2132 38.9795 63.6667 38.9795H57.3333ZM57.3333 37.792H63.6667C64.869 37.792 65.8438 38.7667 65.8438 39.9691V53.0316C65.8438 54.2339 64.869 55.2087 63.6667 55.2087H57.3333C56.131 55.2087 55.1562 54.2339 55.1562 53.0316V39.9691C55.1562 38.7667 56.131 37.792 57.3333 37.792ZM58.5208 38.3857H62.4792C62.6978 38.3857 62.875 38.563 62.875 38.7816V39.5732C62.875 39.7919 62.6978 39.9691 62.4792 39.9691H58.5208C58.3022 39.9691 58.125 39.7919 58.125 39.5732V38.7816C58.125 38.563 58.3022 38.3857 58.5208 38.3857Z" fill="#16C995"/>
</g>
<defs>
<clipPath id="clip0">
<rect width="56" height="56" fill="white" transform="translate(12 15)"/>
</clipPath>
</defs>
</svg>
