<svg width="80" height="86" viewBox="0 0 80 86" fill="none" xmlns="http://www.w3.org/2000/svg">
<path d="M30.8779 2.45636C36.5226 -0.818788 43.4774 -0.818788 49.1221 2.45636L70.3779 14.789C76.0227 18.0642 79.5 24.117 79.5 30.6673V55.3327C79.5 61.883 76.0227 67.9358 70.3779 71.211L49.1221 83.5436C43.4774 86.8188 36.5226 86.8188 30.8779 83.5436L9.62212 71.211C3.97734 67.9358 0.5 61.883 0.5 55.3327V30.6673C0.5 24.117 3.97734 18.0642 9.62212 14.789L30.8779 2.45636Z" fill="#06B6D4" fill-opacity="0.2"/>
<path fill-rule="evenodd" clip-rule="evenodd" d="M44.4771 23.6906C42.602 20.051 37.3982 20.051 35.5231 23.6906C34.3964 25.8776 31.8545 26.9305 29.5114 26.1807C25.6119 24.9331 21.9323 28.6127 23.18 32.5121C23.9297 34.8553 22.8769 37.3971 20.6899 38.5239C17.0503 40.3989 17.0503 45.6027 20.6899 47.4778C22.8769 48.6046 23.9297 51.1465 23.18 53.4894C21.9323 57.3889 25.6119 61.0685 29.5114 59.8209C31.8545 59.0712 34.3964 60.124 35.5231 62.311C37.3982 65.9506 42.602 65.9506 44.4771 62.311C45.6038 60.124 48.1458 59.0712 50.4887 59.8209C54.3881 61.0685 58.0678 57.3889 56.8202 53.4894C56.0705 51.1465 57.1233 48.6046 59.3103 47.4778C62.9498 45.6027 62.9498 40.3989 59.3103 38.5239C57.1233 37.3971 56.0705 34.8553 56.8202 32.5121C58.0678 28.6127 54.3881 24.9331 50.4887 26.1807C48.1455 26.9305 45.6038 25.8776 44.4771 23.6906ZM48.4408 36.3337C47.8798 35.8568 47.1413 35.8832 46.6646 36.4443L38.5313 46.4314L33.5502 42.0037C32.9999 41.5146 32.1571 41.5641 31.6679 42.1145C31.1786 42.665 31.2282 43.5075 31.7786 43.9968L37.7786 49.3301C38.3377 49.8271 39.1959 49.7672 39.6803 49.1971L48.4431 38.1115C48.92 37.5504 49.0019 36.8106 48.4408 36.3337Z" fill="#06B6D4"/>
</svg>
