<svg width="80" height="86" viewBox="0 0 80 86" fill="none" xmlns="http://www.w3.org/2000/svg">
<path d="M30.8779 2.45636C36.5226 -0.818788 43.4774 -0.818788 49.1221 2.45636L70.3779 14.789C76.0227 18.0642 79.5 24.117 79.5 30.6673V55.3327C79.5 61.883 76.0227 67.9358 70.3779 71.211L49.1221 83.5436C43.4774 86.8188 36.5226 86.8188 30.8779 83.5436L9.62212 71.211C3.97734 67.9358 0.5 61.883 0.5 55.3327V30.6673C0.5 24.117 3.97734 18.0642 9.62212 14.789L30.8779 2.45636Z" fill="#FACC15" fill-opacity="0.2"/>
<path opacity="0.3" d="M58.6668 24.334H21.3334C18.7561 24.334 16.6667 26.4233 16.6667 29.0007V57.0006C16.6667 59.578 18.7561 61.6673 21.3334 61.6673H58.6668C61.2441 61.6673 63.3334 59.578 63.3334 57.0006V29.0007C63.3334 26.4233 61.2441 24.334 58.6668 24.334Z" fill="#FACC15"/>
<path opacity="0.3" fill-rule="evenodd" clip-rule="evenodd" d="M21.3333 61.666L36.4999 40.666L51.6666 61.666H21.3333Z" fill="#FACC15"/>
<path fill-rule="evenodd" clip-rule="evenodd" d="M37.6667 61.666L48.1667 47.666L58.6667 61.666H37.6667Z" fill="#FACC15"/>
<path opacity="0.3" d="M55.1667 38.334C57.0997 38.334 58.6667 36.767 58.6667 34.834C58.6667 32.901 57.0997 31.334 55.1667 31.334C53.2338 31.334 51.6667 32.901 51.6667 34.834C51.6667 36.767 53.2338 38.334 55.1667 38.334Z" fill="#FACC15"/>
</svg>
