<svg width="56" height="56" viewBox="0 0 56 56" fill="none" xmlns="http://www.w3.org/2000/svg">
<path d="M6 6H49V49H6V6Z" fill="#F0DB4F"/>
<path d="M45.4804 38.7456C45.1657 36.7836 43.8863 35.1364 40.0972 33.5995C38.7811 32.9946 37.3137 32.5613 36.8763 31.5639C36.721 30.9835 36.7006 30.6565 36.7987 30.305C37.0807 29.1646 38.4418 28.809 39.5209 29.136C40.2158 29.369 40.8738 29.9045 41.2703 30.7587C43.126 29.557 43.1219 29.5652 44.4177 28.7395C43.9435 28.0038 43.6901 27.6645 43.3795 27.3498C42.2636 26.1031 40.743 25.4614 38.311 25.5104C37.89 25.5636 37.465 25.6207 37.0439 25.6739C35.83 25.9805 34.6732 26.6181 33.9947 27.4724C31.9591 29.7818 32.5395 33.8243 35.0165 35.488C37.4567 37.3191 41.0414 37.7361 41.4992 39.4487C41.9448 41.5456 39.9583 42.2241 37.984 41.9829C36.5289 41.6805 35.7196 40.9406 34.8449 39.5959C33.2344 40.5278 33.2344 40.5278 31.579 41.4802C31.9714 42.3386 32.3842 42.7269 33.0423 43.4708C36.157 46.6304 43.9517 46.4751 45.3496 41.6927C45.4068 41.5292 45.7829 40.4338 45.4804 38.7456V38.7456ZM29.3758 25.7638H25.3538C25.3538 29.2382 25.3375 32.688 25.3375 36.1623C25.3375 38.3737 25.4519 40.4011 25.0922 41.0223C24.5036 42.2445 22.979 42.0933 22.2842 41.8562C21.577 41.5087 21.2173 41.0141 20.8004 40.3152C20.686 40.1149 20.6001 39.9596 20.5715 39.9473C19.4802 40.6136 18.3929 41.2839 17.3015 41.9502C17.8452 43.0661 18.6463 44.0348 19.6722 44.6642C21.205 45.5839 23.2651 45.866 25.4192 45.3714C26.8212 44.9626 28.0311 44.1166 28.6646 42.829C29.5802 41.1409 29.384 39.0971 29.3758 36.8368C29.3963 33.1499 29.3758 29.463 29.3758 25.7638Z" fill="#323330"/>
</svg>
