<svg width="56" height="56" viewBox="0 0 56 56" fill="none" xmlns="http://www.w3.org/2000/svg">
<g clip-path="url(#clip0)">
<path d="M49 28.0054C49 25.2148 45.5157 22.5702 40.1737 20.9302C41.4064 15.4693 40.8585 11.1246 38.4444 9.73356C37.8879 9.40728 37.2373 9.25273 36.5267 9.25273V11.1675C36.9205 11.1675 37.2373 11.2448 37.5026 11.3907C38.6669 12.0605 39.172 14.6106 38.7782 17.8906C38.6841 18.6977 38.53 19.5478 38.3416 20.415C36.6637 20.0029 34.8316 19.6852 32.9054 19.4791C31.7497 17.8906 30.5512 16.4481 29.3441 15.1859C32.1349 12.5842 34.7546 11.1589 36.5353 11.1589V9.24414C34.181 9.24414 31.0991 10.9271 27.9829 13.8464C24.8667 10.9442 21.7848 9.27849 19.4305 9.27849V11.1932C21.2026 11.1932 23.8308 12.61 26.6217 15.1945C25.4232 16.4567 24.2246 17.8906 23.086 19.4791C21.1512 19.6852 19.3192 20.0029 17.6413 20.4236C17.4444 19.565 17.2988 18.7321 17.1961 17.9336C16.7937 14.6536 17.2903 12.1034 18.446 11.4251C18.7028 11.2705 19.0367 11.2018 19.4305 11.2018V9.28707C18.7114 9.28707 18.0607 9.44163 17.4957 9.76791C15.0901 11.1589 14.5508 15.495 15.7921 20.9388C10.4672 22.5874 7 25.2234 7 28.0054C7 30.796 10.4843 33.4406 15.8263 35.0806C14.5936 40.5415 15.1415 44.8862 17.5556 46.2772C18.1121 46.6035 18.7627 46.7581 19.4819 46.7581C21.8361 46.7581 24.9181 45.0751 28.0342 42.1557C31.1504 45.0579 34.2324 46.7237 36.5866 46.7237C37.3057 46.7237 37.9564 46.5691 38.5214 46.2429C40.927 44.8519 41.4664 40.5157 40.225 35.072C45.5328 33.432 49 30.7874 49 28.0054V28.0054ZM37.8536 22.2783C37.5369 23.3859 37.1431 24.5279 36.6979 25.6699C36.3469 24.983 35.9788 24.2961 35.5764 23.6092C35.1826 22.9222 34.7631 22.2525 34.3437 21.5999C35.5593 21.7803 36.7322 22.0035 37.8536 22.2783ZM33.9327 31.4228C33.265 32.5819 32.5801 33.681 31.8695 34.7028C30.594 34.8144 29.3013 34.8745 28 34.8745C26.7073 34.8745 25.4146 34.8144 24.1476 34.7114C23.437 33.6896 22.7436 32.5991 22.0758 31.4485C21.4252 30.3237 20.8345 29.1817 20.2951 28.0311C20.8259 26.8806 21.4252 25.73 22.0673 24.6052C22.735 23.446 23.4199 22.347 24.1305 21.3252C25.406 21.2136 26.6987 21.1535 28 21.1535C29.2927 21.1535 30.5854 21.2136 31.8524 21.3166C32.563 22.3384 33.2564 23.4288 33.9242 24.5794C34.5748 25.7042 35.1655 26.8462 35.7049 27.9968C35.1655 29.1474 34.5748 30.298 33.9327 31.4228ZM36.6979 30.3065C37.1602 31.4571 37.554 32.6077 37.8793 33.7239C36.7578 33.9987 35.5764 34.2305 34.3522 34.4108C34.7717 33.7497 35.1912 33.0714 35.585 32.3759C35.9788 31.6889 36.3469 30.9934 36.6979 30.3065ZM28.0171 39.4682C27.221 38.6439 26.4248 37.7252 25.6372 36.7206C26.4077 36.7549 27.1953 36.7807 27.9914 36.7807C28.7962 36.7807 29.5923 36.7635 30.3714 36.7206C29.6009 37.7252 28.8047 38.6439 28.0171 39.4682ZM21.6478 34.4108C20.4321 34.2305 19.2593 34.0073 18.1378 33.7325C18.4545 32.6249 18.8483 31.4829 19.2935 30.3409C19.6445 31.0278 20.0126 31.7147 20.415 32.4016C20.8174 33.0885 21.2283 33.7583 21.6478 34.4108ZM27.9743 16.5426C28.7705 17.3669 29.5667 18.2856 30.3543 19.2902C29.5838 19.2559 28.7962 19.2301 28 19.2301C27.1953 19.2301 26.3991 19.2473 25.6201 19.2902C26.3905 18.2856 27.1867 17.3669 27.9743 16.5426ZM21.6392 21.5999C21.2197 22.2611 20.8002 22.9394 20.4064 23.6349C20.0126 24.3218 19.6445 25.0087 19.2935 25.6957C18.8312 24.5451 18.4374 23.3945 18.1121 22.2783C19.2336 22.0121 20.415 21.7803 21.6392 21.5999V21.5999ZM13.8916 32.3501C10.861 31.0536 8.90053 29.3535 8.90053 28.0054C8.90053 26.6573 10.861 24.9486 13.8916 23.6607C14.6278 23.343 15.4325 23.0596 16.2629 22.7935C16.7509 24.4764 17.393 26.228 18.1892 28.0226C17.4015 29.8085 16.768 31.5516 16.2886 33.2259C15.4411 32.9597 14.6364 32.6678 13.8916 32.3501ZM18.4974 44.62C17.3331 43.9503 16.828 41.4001 17.2218 38.1201C17.3159 37.313 17.47 36.463 17.6584 35.5958C19.3363 36.0079 21.1684 36.3256 23.0946 36.5317C24.2503 38.1201 25.4488 39.5627 26.6559 40.8249C23.8651 43.4265 21.2454 44.8519 19.4647 44.8519C19.0795 44.8433 18.7542 44.766 18.4974 44.62V44.62ZM38.8039 38.0772C39.2063 41.3572 38.7097 43.9074 37.554 44.5857C37.2972 44.7403 36.9633 44.8089 36.5695 44.8089C34.7974 44.8089 32.1692 43.3922 29.3783 40.8077C30.5768 39.5455 31.7754 38.1116 32.914 36.5231C34.8488 36.317 36.6808 35.9993 38.3587 35.5786C38.5556 36.4458 38.7097 37.2787 38.8039 38.0772V38.0772ZM42.0999 32.3501C41.3636 32.6678 40.5589 32.9511 39.7285 33.2173C39.2405 31.5344 38.5985 29.7828 37.8023 27.9882C38.5899 26.2022 39.2234 24.4592 39.7028 22.7849C40.5503 23.051 41.3551 23.343 42.1084 23.6607C45.139 24.9572 47.0995 26.6573 47.0995 28.0054C47.0909 29.3535 45.1305 31.0621 42.0999 32.3501V32.3501Z" fill="#61DAFB"/>
<path d="M27.9915 31.928C30.1522 31.928 31.9038 30.1712 31.9038 28.0041C31.9038 25.8369 30.1522 24.0801 27.9915 24.0801C25.8307 24.0801 24.0791 25.8369 24.0791 28.0041C24.0791 30.1712 25.8307 31.928 27.9915 31.928Z" fill="#61DAFB"/>
</g>
<defs>
<clipPath id="clip0">
<rect width="42" height="48" fill="white" transform="translate(7 4)"/>
</clipPath>
</defs>
</svg>
